<svg width="353" height="336" viewBox="0 0 353 336" fill="none" xmlns="http://www.w3.org/2000/svg">
<path fill-rule="evenodd" clip-rule="evenodd" d="M278.592 28C249.112 28 218.848 47.4378 196.149 53.3174C187.603 55.5309 179.162 56.1034 170.751 56.1034C161.755 56.1034 152.794 55.4479 143.78 55.4479C125.746 55.4479 107.497 58.0696 88.313 73.8045C58.7405 98.0312 58.8788 125.865 50.2293 145.499C39.1862 170.561 16.062 187.706 5.95648 214.136C-0.820779 231.85 -2.46741 253.457 4.44816 271.437C17.3446 305.007 49.2931 297.716 90.5143 318.658C111.364 329.256 122.215 329.827 136.014 329.827C137.683 329.827 139.395 329.819 141.173 329.819C152.22 329.819 165.814 330.141 187.447 334.798C188.488 335.212 195.017 336 204.192 336C219.786 336 243.027 333.724 259.975 323.48C310.245 293.064 299.082 260.805 309.499 229.23C315.55 210.945 328.516 197.028 338.326 181.212C359.302 147.416 356.234 106.119 338.951 72.5128C321.461 38.4819 300.238 28 278.592 28V28Z" fill="#FEDAE4" fill-opacity="0.8"/>
<path fill-rule="evenodd" clip-rule="evenodd" d="M176.616 268.013C147.543 268.013 119.659 269.129 99.107 271.104C78.5562 273.079 67 275.748 67 278.545C67 281.343 78.5562 284.012 99.107 285.987C119.659 287.962 147.543 289.076 176.616 289.076C205.688 289.076 233.572 287.962 254.124 285.987C274.675 284.012 286.231 281.343 286.231 278.545C286.231 275.748 274.675 273.079 254.124 271.104C233.572 269.129 205.688 268.013 176.616 268.013Z" fill="#F2E7DD"/>
<path fill-rule="evenodd" clip-rule="evenodd" d="M170.302 104.126C167.639 104.126 164.91 105.553 163.25 107.695C160.963 110.639 160.397 114.606 160.744 118.3C161.22 123.493 163.359 128.686 162.171 133.769C161 138.741 156.941 142.381 153.394 146.056C149.865 149.731 146.465 154.393 147.177 159.44C147.964 164.944 153.431 169.039 153.778 174.599C154.016 178.565 151.548 182.168 150.963 186.099C150.14 191.639 153.248 197.198 157.617 200.672C162.006 204.164 167.492 205.901 172.922 207.272C176.368 208.134 180.055 208.831 183.62 208.831C187.089 208.831 190.441 208.171 193.345 206.359C196.234 205.297 198.905 203.743 201.153 201.659C206.474 196.704 208.942 188.475 206.016 181.821C204.846 179.187 202.908 176.847 202.378 173.995C201.574 169.826 203.933 165.804 205.834 162C207.663 158.38 209.162 154.065 207.919 150.316C207.79 149.95 207.644 149.585 207.462 149.219C207.462 149.201 207.443 149.183 207.443 149.164C206.199 146.715 203.768 145.032 202.524 142.582C202.506 142.564 202.506 142.545 202.487 142.527C202.305 142.124 202.14 141.741 202.013 141.32C200.348 136.237 202.982 129.747 199.599 125.485C196.838 121.993 191.627 122.067 187.476 120.439C184.881 119.416 182.575 117.605 180.968 115.337C178.389 111.681 177.2 106.597 173.142 104.733C172.24 104.317 171.276 104.126 170.302 104.126Z" fill="#5AD199"/>
<path fill-rule="evenodd" clip-rule="evenodd" d="M180.78 128.948C180.372 128.948 179.962 129.213 179.962 129.746V146.33L168.315 136.53C168.14 136.384 167.951 136.321 167.767 136.321C167.103 136.321 166.532 137.133 167.162 137.663L179.962 148.451L180.052 219.559C180.052 220.078 180.452 220.338 180.852 220.338C181.256 220.338 181.662 220.074 181.662 219.541L181.59 176.426C181.606 176.389 181.643 176.37 181.662 176.335C186.782 168.911 191.92 161.488 197.039 154.064C197.46 153.465 196.902 152.893 196.328 152.893C196.079 152.893 195.827 153 195.649 153.26C190.951 160.043 186.27 166.826 181.59 173.592V129.728C181.59 129.209 181.186 128.948 180.78 128.948Z" fill="#DB8E6A"/>
<path fill-rule="evenodd" clip-rule="evenodd" d="M164.642 162.458C164.079 162.458 163.53 162.592 163.049 162.896C161.842 163.646 161.384 165.163 161.384 166.571C161.384 168.308 161.969 169.99 162.682 171.581C163.817 174.104 165.279 176.499 166.907 178.748C170.142 176.116 174 174.122 176.433 170.721C177.018 169.899 177.529 168.984 177.694 167.979C177.767 167.466 177.749 166.955 177.548 166.479C177.346 166.004 176.944 165.621 176.506 165.346C175.805 164.899 174.985 164.684 174.166 164.684C173.745 164.684 173.326 164.741 172.922 164.853C171.715 165.163 170.655 165.931 169.887 166.918L169.758 166.973C169.137 165.656 168.424 164.321 167.272 163.408C166.532 162.826 165.571 162.458 164.642 162.458Z" fill="#FFD173"/>
<path fill-rule="evenodd" clip-rule="evenodd" d="M194.534 139.564C193.602 139.564 192.693 140.017 192.048 140.698C191.389 141.393 191.024 142.326 190.915 143.258L190.859 143.35C189.909 142.746 188.903 142.161 187.788 142.034C187.665 142.02 187.541 142.012 187.415 142.012C186.367 142.012 185.283 142.49 184.826 143.405C184.35 144.374 184.661 145.561 185.228 146.477C185.941 147.61 187.002 148.47 188.098 149.219C189.872 150.408 191.773 151.377 193.748 152.182C194.809 149.164 196.509 146.294 196.71 143.112C196.766 142.326 196.729 141.521 196.417 140.79C196.271 140.443 196.052 140.096 195.741 139.876C195.394 139.657 194.992 139.564 194.59 139.564C194.571 139.564 194.553 139.564 194.534 139.564Z" fill="#FFD173"/>
<path fill-rule="evenodd" clip-rule="evenodd" d="M175.415 119.083C174.724 119.083 174.025 119.304 173.452 119.689C172.647 120.219 172.062 121.024 171.752 121.921L171.66 121.993C170.892 121.188 170.034 120.385 168.991 120.001C168.613 119.861 168.202 119.787 167.795 119.787C167.022 119.787 166.263 120.053 165.774 120.64C165.078 121.481 165.115 122.707 165.443 123.73C165.883 124.992 166.706 126.07 167.601 127.057C169.046 128.648 170.691 130.02 172.411 131.282C174.148 128.576 176.47 126.181 177.42 123.128C177.658 122.377 177.804 121.59 177.677 120.822C177.622 120.439 177.476 120.055 177.219 119.763C176.963 119.451 176.579 119.268 176.176 119.178C175.928 119.113 175.671 119.083 175.415 119.083Z" fill="#FFD173"/>
<path fill-rule="evenodd" clip-rule="evenodd" d="M147.265 217.184C146.717 217.184 146.172 217.273 145.642 217.475C144.032 218.079 142.954 219.559 142.131 221.058C137.487 229.342 137.633 239.361 137.89 248.87C131.727 241.391 123.901 235.32 115.124 231.261C113.639 230.564 112.062 229.935 110.47 229.935C110.181 229.935 109.892 229.955 109.603 229.999C105.744 230.603 103.843 235.082 103.533 238.977C102.819 247.846 106.549 256.421 110.207 264.539C105.611 263.797 100.974 263.055 96.3318 263.055C95.5993 263.055 94.8668 263.074 94.1342 263.114C88.7577 263.405 83.309 264.941 79.1595 268.379C77.825 269.494 76.5627 270.993 76.6364 272.73C76.7454 275.29 79.525 276.789 81.9745 277.54C86.0165 278.746 90.2212 279.367 94.4444 279.367V279.661H229.988L230.226 279.715C231.962 271.999 225.746 264.228 218.304 261.486C214.654 260.124 210.811 259.658 206.914 259.658C202.809 259.658 198.642 260.174 194.571 260.699C200.513 253.898 202.122 244.189 201.081 235.23C200.679 231.81 199.691 228.061 196.784 226.234C195.588 225.484 194.288 225.169 192.949 225.169C189.783 225.169 186.398 226.928 183.674 228.829C177.201 233.327 171.331 238.667 166.248 244.7C164.236 235.064 160.325 225.283 152.499 219.34C150.978 218.186 149.1 217.184 147.265 217.184Z" fill="#5AD199"/>
<path fill-rule="evenodd" clip-rule="evenodd" d="M215.353 223.899C213.894 223.899 212.423 224.438 211.229 225.283C209.546 226.489 208.321 228.244 207.352 230.091C203.623 237.057 202.946 245.195 202.361 253.093C198.723 248.412 194.426 244.171 189.306 241.19C187.146 239.925 184.5 238.94 182.052 238.94C180.395 238.94 178.829 239.392 177.567 240.514C174.696 243.073 174.988 247.589 175.903 251.319C177.238 256.805 179.449 262.071 182.393 266.898C181.044 266.419 179.655 266.214 178.253 266.214C174.85 266.214 171.367 267.411 168.168 268.745C165.809 269.751 163.196 271.158 162.701 273.664C162.213 276.124 170.642 279.704 173.459 279.704C173.591 279.704 173.712 279.695 173.818 279.679H273.066C275.901 277.485 278.827 274.668 278.827 271.086C278.827 267.173 275.279 264.192 271.678 262.619C267.298 260.715 262.594 260.091 257.806 260.091C253.358 260.091 248.836 260.629 244.433 261.176C248.292 258.505 251.766 255.269 254.691 251.594C256.264 249.601 257.708 247.425 258.202 244.92C258.677 242.434 257.982 239.581 255.952 238.063C254.781 237.202 253.305 236.864 251.826 236.864C251.388 236.864 250.952 236.895 250.522 236.948C247.925 237.277 245.476 238.429 243.154 239.654C236.808 243.037 230.922 247.279 225.691 252.198C226.313 243.567 226.093 234.169 220.864 227.258C219.877 225.94 218.67 224.716 217.116 224.185C216.543 223.988 215.949 223.899 215.353 223.899Z" fill="#75D9C3"/>
<path fill-rule="evenodd" clip-rule="evenodd" d="M131.819 275.235C129.149 275.436 126.461 275.565 123.774 275.583C123.774 275.656 123.792 275.748 123.792 275.82L123.774 275.931C123.975 277.942 124.084 279.971 124.121 282.001H124.158C131.198 281.837 138.237 281.306 145.222 280.392L145.441 280.026C141.218 277.758 136.554 276.314 131.801 275.803C131.801 275.602 131.819 275.418 131.819 275.235Z" fill="#053B5C"/>
<path fill-rule="evenodd" clip-rule="evenodd" d="M130.686 171.874C128.656 172.623 126.424 172.769 124.25 172.878C121 173.04 117.748 173.121 114.494 173.121C108.153 173.121 101.809 172.812 95.4876 172.184C93.6048 175.402 93.1472 179.333 92.9828 183.118C92.4346 195.57 94.646 208.149 99.4006 219.687C95.4876 236.435 91.5746 253.202 87.6616 269.969L87.7891 270.006C87.7722 270.116 87.7538 270.244 87.7353 270.371L87.9181 270.39C90.4044 271.305 92.8723 272.219 95.3601 273.132C95.397 273.148 95.4477 273.157 95.4968 273.157C95.5659 273.157 95.6304 273.139 95.6519 273.096H95.6703C102.088 255.561 108.177 237.899 113.936 220.126C113.936 213.232 114.759 204.675 115.235 196.301C118.434 222.466 121.653 250.022 123.774 275.583C126.461 275.565 129.149 275.436 131.819 275.235C133.446 242.305 135.037 209.173 131.234 176.444C131.07 174.927 130.886 173.41 130.686 171.874Z" fill="#449E8B"/>
<path fill-rule="evenodd" clip-rule="evenodd" d="M87.7352 270.372C87.4234 272.365 86.9857 274.34 86.3638 276.259L86.5097 276.296C88.612 277.192 90.8066 277.832 92.9827 278.472C97.3164 279.733 101.667 281.014 106.019 282.275L106.038 282.203C103.02 278.783 99.4557 275.839 95.5243 273.535C95.5795 273.389 95.6333 273.243 95.6702 273.096H95.6517C95.6302 273.139 95.5657 273.157 95.4966 273.157C95.4475 273.157 95.3968 273.148 95.3599 273.133C92.8721 272.219 90.4042 271.305 87.9179 270.39L87.7352 270.372Z" fill="#053B5C"/>
<path fill-rule="evenodd" clip-rule="evenodd" d="M141.29 142.947C140.924 143.075 140.54 143.185 140.156 143.294C140.339 143.588 140.522 143.898 140.686 144.191L140.705 144.208C137.157 146.75 133.574 149.219 129.953 151.632C130.3 154.046 130.575 156.478 130.795 158.909L130.977 158.891C138.017 155.637 145.057 152.383 152.096 149.127C149.189 149.492 146.245 149.749 143.32 149.858C142.698 147.536 142.021 145.232 141.29 142.947Z" fill="#F2E7DD"/>
<path fill-rule="evenodd" clip-rule="evenodd" d="M110.919 137.772C106.111 139.894 101.43 142.344 96.9489 145.087L96.7661 145.214C97.4434 146.238 98.1191 147.281 98.8147 148.287C99.6916 149.621 100.588 150.938 101.484 152.272C104.062 156.093 106.678 159.897 109.365 163.646L109.511 163.553C113.04 162.346 116.24 160.408 119.402 158.433C122.95 156.222 126.479 153.954 129.953 151.632C133.574 149.219 137.157 146.75 140.704 144.208L140.686 144.191C140.521 143.898 140.339 143.588 140.156 143.294C139.205 141.703 138.255 140.131 137.321 138.54C137.212 138.376 137.121 138.211 137.011 138.047C136.754 138.174 136.499 138.303 136.243 138.412C133.701 139.619 131.178 140.845 128.674 142.106C124.358 144.263 120.08 146.513 115.856 148.817C114.375 145.068 112.747 141.375 110.919 137.772Z" fill="#F2E7DD"/>
<path fill-rule="evenodd" clip-rule="evenodd" d="M134.745 134.518C133.41 135.013 132.074 135.524 130.758 136.072C130.191 137.335 129.368 138.468 128.345 139.4C128.436 140.26 128.528 141.137 128.619 142.015L128.674 142.106C131.179 140.845 133.702 139.62 136.243 138.413L136.151 138.211C135.786 136.951 135.311 135.725 134.745 134.518Z" fill="#F2E7DD"/>
<path fill-rule="evenodd" clip-rule="evenodd" d="M119.674 115.805C118.96 115.805 118.271 115.836 117.629 115.905C117.776 116.343 117.922 116.8 118.087 117.258C118.123 117.385 118.16 117.494 118.214 117.623C118.361 118.026 118.47 118.592 118.526 119.233C118.764 121.701 118.306 125.595 116.972 127.936L116.789 128.155C112.656 125.156 108.762 121.81 105.177 118.19L105.159 117.55C105.159 117.494 105.159 117.441 105.159 117.385H105.124C102.015 119.872 98.9055 122.376 95.8341 124.9C95.378 125.267 94.9388 125.632 94.4812 125.998C93.5306 126.766 92.5615 127.589 91.9211 128.63C90.3133 131.282 91.1717 134.701 92.4341 137.535C93.6396 140.204 95.1584 142.746 96.7663 145.214L96.9491 145.087C101.43 142.344 106.111 139.894 110.919 137.772C112.747 141.375 114.375 145.068 115.857 148.817C120.08 146.513 124.358 144.263 128.674 142.106L128.618 142.015C128.528 141.137 128.436 140.26 128.345 139.4C129.368 138.468 130.191 137.334 130.758 136.072C132.074 135.524 133.41 135.012 134.744 134.518C135.311 134.317 135.878 134.115 136.444 133.914C136.28 132.635 136.097 131.336 135.896 130.057H135.75C135.713 129.911 134.872 127.223 134.488 125.815L134.543 125.796C134.634 125.796 134.726 125.778 134.817 125.76C134.469 125.101 134.012 124.462 133.611 123.785C132.897 122.633 130.538 119.067 129.68 118.044C128.668 116.845 123.77 115.805 119.674 115.805Z" fill="#FFD173"/>
<path fill-rule="evenodd" clip-rule="evenodd" d="M129.954 151.632C126.48 153.954 122.951 156.222 119.403 158.433C116.241 160.408 113.041 162.346 109.512 163.554L109.366 163.646C106.678 159.897 104.063 156.093 101.485 152.254C101.832 155.179 102.199 158.086 102.546 160.994C100.076 164.668 97.6822 168.38 95.3955 172.166C95.4324 172.166 95.4692 172.166 95.4877 172.184C101.809 172.812 108.153 173.121 114.494 173.121C117.748 173.121 121 173.04 124.25 172.878C126.424 172.788 128.656 172.623 130.686 171.874C130.904 171.8 131.124 171.708 131.362 171.599C131.343 167.357 131.161 163.114 130.795 158.91C130.576 156.479 130.301 154.046 129.954 151.632Z" fill="#FFD173"/>
<path fill-rule="evenodd" clip-rule="evenodd" d="M158.095 137.351C157.777 137.351 157.45 137.403 157.125 137.48C156.85 137.498 156.595 137.517 156.338 137.554C155.936 137.589 155.552 137.663 155.187 137.79C154.784 137.919 154.382 138.12 154.053 138.394C153.723 138.669 153.431 138.997 153.267 139.381C153.029 139.948 153.029 140.57 153.029 141.173C153.011 142.436 153.011 143.77 153.614 144.885C154.09 145.727 154.858 146.347 155.753 146.731C156.229 146.915 156.704 147.043 157.215 147.098C157.271 147.117 157.326 147.117 157.4 147.134C157.478 147.14 157.558 147.143 157.638 147.143C157.831 147.143 158.022 147.121 158.203 147.043C158.496 146.932 158.716 146.696 158.917 146.439C160.342 144.61 160.562 142.106 160.251 139.802C160.141 139.016 159.923 138.174 159.282 137.7C158.934 137.446 158.525 137.351 158.095 137.351Z" fill="#FBB28F"/>
<path fill-rule="evenodd" clip-rule="evenodd" d="M153.325 100.353C151.696 100.353 150.069 100.779 148.677 101.606C146.484 102.903 144.893 105.207 144.417 107.713C144.827 107.761 145.238 107.785 145.648 107.785C147.571 107.785 149.486 107.262 151.128 106.268C153.212 105.006 154.821 103.032 155.626 100.764L155.661 100.655C154.899 100.452 154.111 100.353 153.325 100.353Z" fill="#75D9C3"/>
<path fill-rule="evenodd" clip-rule="evenodd" d="M146.3 130.332C146.026 130.332 145.714 130.533 145.478 130.715C143.339 132.561 141.272 134.481 139.297 136.493C138.639 137.152 137.981 137.846 137.34 138.54H137.322C138.255 140.131 139.206 141.703 140.157 143.294C140.541 143.185 140.925 143.075 141.29 142.947C145.33 141.703 149.391 140.295 152.773 137.901C153.651 137.298 154.474 136.62 155.242 135.852C155.425 135.67 155.644 135.432 155.571 135.177C155.515 134.994 155.369 134.883 155.205 134.793C154.364 134.278 153.356 134.143 152.346 134.143C152.06 134.143 151.774 134.154 151.493 134.171C149.372 134.28 147.252 134.682 145.221 135.341C145.899 134.043 146.392 132.635 146.72 131.19C146.757 130.97 146.794 130.697 146.648 130.496C146.556 130.385 146.429 130.332 146.3 130.332Z" fill="#FBB28F"/>
<path fill-rule="evenodd" clip-rule="evenodd" d="M155.187 109.25C152.937 109.34 150.726 110.182 149.007 111.608C147.252 113.052 145.989 115.082 145.478 117.294L145.203 117.312C145.203 117.404 145.203 117.478 145.222 117.568C145.824 117.763 146.447 117.854 147.074 117.854C148.92 117.854 150.781 117.06 152.134 115.776C153.906 114.095 154.875 111.681 155.187 109.25Z" fill="#75D9C3"/>
<path fill-rule="evenodd" clip-rule="evenodd" d="M142.936 89.6289C142.132 90.5258 141.417 91.5132 140.832 92.5544C140.157 93.7984 139.627 95.1697 139.681 96.5964C139.699 97.6008 140.029 98.5698 140.431 99.5035C141.126 101.148 142.168 102.813 143.795 103.562C143.813 103.526 143.85 103.47 143.868 103.435C145.112 101.331 145.714 98.8447 145.55 96.3952C145.386 93.9442 144.472 91.5485 142.936 89.6289Z" fill="#75D9C3"/>
<path fill-rule="evenodd" clip-rule="evenodd" d="M137.573 108.042C135.938 108.042 134.305 108.656 133.299 109.906C133.775 110.639 134.287 111.37 134.999 111.863C135.713 112.339 136.553 112.577 137.395 112.723C138.53 112.927 139.689 113.033 140.849 113.033C142.173 113.033 143.495 112.896 144.782 112.612C144.782 112.522 144.763 112.43 144.763 112.339H144.71C143.301 110.491 141.472 108.847 139.243 108.262C138.702 108.116 138.137 108.042 137.573 108.042Z" fill="#75D9C3"/>
<path fill-rule="evenodd" clip-rule="evenodd" d="M143.572 103.051C143.417 103.051 143.243 103.183 143.265 103.38C144.361 110.364 145.094 117.386 145.496 124.425C141.93 124.791 138.364 125.23 134.817 125.76C134.726 125.778 134.634 125.797 134.544 125.797L134.488 125.815C134.872 127.223 135.714 129.911 135.768 130.057H135.897L137.633 129.856C138.219 132.013 138.73 134.189 139.188 136.384L139.297 136.493C141.272 134.481 143.339 132.561 145.478 130.716C145.714 130.533 146.026 130.332 146.299 130.332C146.428 130.332 146.556 130.385 146.648 130.496C146.794 130.697 146.757 130.97 146.702 131.19C146.392 132.635 145.899 134.043 145.221 135.341C147.252 134.682 149.372 134.28 151.493 134.171C151.786 134.149 152.086 134.137 152.382 134.137C153.381 134.137 154.374 134.286 155.205 134.793C155.369 134.883 155.515 134.994 155.57 135.177C155.644 135.432 155.425 135.67 155.242 135.852C154.474 136.62 153.651 137.298 152.772 137.901C149.391 140.295 145.33 141.703 141.29 142.947C142.021 145.233 142.698 147.536 143.32 149.858C146.246 149.749 149.19 149.493 152.097 149.127C153.304 148.981 154.509 148.798 155.698 148.597C155.79 147.994 155.809 147.372 155.753 146.75V146.731C154.858 146.347 154.09 145.727 153.614 144.885C153.01 143.771 153.01 142.436 153.029 141.174C153.029 140.57 153.029 139.948 153.267 139.382C153.431 138.998 153.723 138.669 154.053 138.394C154.382 138.121 154.784 137.92 155.187 137.791C155.552 137.663 155.936 137.589 156.338 137.554L156.301 137.334C156.613 134.134 156.85 130.898 157.032 127.679C157.582 127.624 158.149 127.552 158.697 127.497C158.88 126.144 159.081 124.809 159.282 123.475L159.19 123.456C154.803 123.639 150.414 123.931 146.044 124.37C145.642 117.293 144.893 110.255 143.795 103.251C143.773 103.111 143.676 103.051 143.572 103.051Z" fill="#053B5C"/>
<path fill-rule="evenodd" clip-rule="evenodd" d="M114.258 109.479C113.318 109.479 112.348 109.539 111.414 109.539C111.154 109.539 110.898 109.535 110.645 109.522C113.241 112.76 115.838 116.014 118.452 119.25L118.526 119.233C118.47 118.592 118.361 118.026 118.214 117.623C118.16 117.494 118.123 117.385 118.087 117.258C117.922 116.8 117.776 116.343 117.629 115.905C116.916 113.766 116.222 111.643 115.508 109.522H115.454C115.064 109.49 114.663 109.479 114.258 109.479Z" fill="#ED867A"/>
<path fill-rule="evenodd" clip-rule="evenodd" d="M120.821 90.4722C119.428 90.4722 118.038 90.6196 116.66 90.8177C112.419 91.4397 108.251 92.6467 104.447 94.5848C103.587 95.024 102.747 95.4985 101.924 96.0299L102.07 96.2664C103.825 96.2295 105.58 96.1574 107.317 96.0836C112.218 95.8456 117.118 95.4448 121.982 94.8766C124.232 94.6216 126.48 94.3283 128.73 93.9997C128.528 92.6099 127.139 91.6961 125.804 91.2201C124.45 90.7639 123.061 90.5443 121.635 90.4891C121.363 90.4768 121.093 90.4722 120.821 90.4722Z" fill="#FFD173"/>
<path fill-rule="evenodd" clip-rule="evenodd" d="M122 94.8765C117.118 95.4447 112.217 95.8455 107.317 96.0835C107.354 98.1322 107.153 100.198 106.732 102.209L106.586 102.282C106.019 101.624 105.233 101.095 104.356 100.984C104.273 100.976 104.19 100.972 104.107 100.972C103.304 100.972 102.489 101.368 102.125 102.08C101.759 102.795 101.887 103.653 102.215 104.386C102.654 105.427 103.478 106.287 104.483 106.817C104.794 106.981 105.124 107.11 105.489 107.219H105.508C105.342 110.602 105.233 113.984 105.159 117.385C105.159 117.441 105.159 117.494 105.159 117.55L105.178 118.19C108.762 121.81 112.656 125.156 116.789 128.155L116.972 127.936C118.306 125.595 118.764 121.701 118.526 119.233L118.452 119.25C115.838 116.014 113.242 112.76 110.645 109.523C110.898 109.535 111.155 109.539 111.414 109.539C112.348 109.539 113.318 109.48 114.258 109.48C114.664 109.48 115.064 109.49 115.455 109.523H115.508C116.789 109.413 118.214 109.212 119.384 108.792C120.372 108.444 121.359 107.95 121.854 107.036C122.182 106.451 122.238 105.739 122.275 105.061C122.476 101.661 122.384 98.2596 122 94.8765Z" fill="#FBB28F"/>
<path fill-rule="evenodd" clip-rule="evenodd" d="M121.068 87.8018C121.031 87.8018 120.994 87.8018 120.976 87.8202C113.571 88.2225 106.184 89.0441 98.8523 90.2328C98.3762 90.3249 97.9017 90.3971 97.4072 90.4892C96.7668 90.5983 96.1095 90.7089 95.4507 90.8363C95.7071 92.0065 95.8162 93.1952 95.7793 94.4022H95.7978C95.8346 94.3469 95.8715 94.2917 95.9083 94.2195C98.7417 94.2917 101.595 94.4022 104.428 94.5665L104.447 94.585C108.251 92.6469 112.419 91.4398 116.66 90.8179C118.038 90.6198 119.428 90.4724 120.821 90.4724C121.092 90.4724 121.363 90.477 121.635 90.4892V90.4524C121.415 89.5755 121.232 88.6971 121.068 87.8018Z" fill="#FBF5F3"/>
<path fill-rule="evenodd" clip-rule="evenodd" d="M110.407 82.8765C107.339 82.8765 104.31 83.5952 101.887 85.4058C100.059 86.7587 98.7049 88.6246 97.4072 90.489C97.9017 90.3968 98.3763 90.3246 98.8523 90.2325C106.184 89.0439 113.571 88.2223 120.976 87.8199V87.7646C120.61 86.4485 119.641 85.3689 118.471 84.6563C117.319 83.9438 115.985 83.5767 114.65 83.3034C113.265 83.03 111.832 82.8765 110.407 82.8765Z" fill="#053B5C"/>
<path fill-rule="evenodd" clip-rule="evenodd" d="M95.9078 94.2192C95.8709 94.2914 95.8341 94.3467 95.7972 94.402C95.0293 95.7181 93.9513 96.833 92.6705 97.6562C90.1842 99.2656 87.0943 99.6864 84.6265 101.277C83.1998 102.191 82.0112 103.47 81.2249 104.971C80.4386 106.47 80.0547 108.299 80.7319 109.853C81.1512 110.84 81.9559 111.626 82.6884 112.43C83.8939 113.729 84.9551 115.191 85.4665 116.892C85.832 118.116 85.8688 119.397 86.0885 120.658C86.3081 121.92 86.7473 123.218 87.6794 124.078C87.8806 124.279 88.1002 124.425 88.3383 124.571C89.1061 125.029 90.0014 125.23 90.8983 125.23C90.9351 125.23 90.9735 125.23 91.0119 125.23C92.2205 125.23 94.5348 124.963 95.6144 124.626L95.8341 124.9C98.9055 122.376 102.015 119.872 105.124 117.385H105.159C105.233 113.984 105.342 110.602 105.507 107.219H105.489C105.124 107.11 104.793 106.981 104.483 106.817C103.477 106.287 102.654 105.427 102.215 104.386C101.886 103.653 101.759 102.795 102.124 102.081C102.488 101.368 103.304 100.972 104.107 100.972C104.19 100.972 104.273 100.976 104.356 100.984C105.233 101.095 106.019 101.624 106.586 102.282L106.731 102.21C107.152 100.198 107.353 98.1322 107.317 96.0836C105.58 96.1573 103.824 96.2295 102.069 96.2663L101.923 96.0298C102.746 95.4985 103.586 95.0239 104.446 94.5847L104.428 94.5663C101.594 94.402 98.7411 94.2914 95.9078 94.2192Z" fill="#053B5C"/>
<path fill-rule="evenodd" clip-rule="evenodd" d="M151.109 216.542L153.285 224.131H206.949L208.979 216.542H151.109Z" fill="#40B4E5"/>
<path fill-rule="evenodd" clip-rule="evenodd" d="M155.333 224.131L162.044 279.751H198.045L205.341 224.131H155.333Z" fill="#053B5C"/>
<path fill-rule="evenodd" clip-rule="evenodd" d="M193.693 242.524C192.596 243.165 191.5 243.787 190.402 244.426C189.25 245.084 188.098 245.762 186.946 246.419C188.355 248.852 189.763 251.283 191.151 253.734C189.36 253.715 187.568 253.697 185.776 253.697C185.813 252.545 185.85 251.412 185.868 250.277C185.831 250.295 185.813 250.332 185.795 250.369C185.557 250.808 185.318 251.246 185.082 251.685C184.076 253.551 183.07 255.415 182.064 257.281C182.046 257.298 182.046 257.316 182.046 257.335C182.046 257.353 182.046 257.372 182.064 257.39C183.308 259.548 184.551 261.724 185.813 263.882C185.813 263.9 185.831 263.917 185.85 263.954C185.868 262.931 185.885 261.943 185.904 260.956H186.014C186.928 260.974 187.86 260.974 188.794 260.991H189.451C189.557 260.997 189.66 261.001 189.763 261.001C190.036 261.001 190.302 260.976 190.566 260.882C191.097 260.681 191.537 260.371 191.847 259.895C192.304 259.182 192.742 258.468 193.2 257.756C194.444 255.818 195.632 253.824 196.93 251.923C197.168 251.557 197.332 251.155 197.423 250.716C197.441 250.57 197.46 250.424 197.478 250.295V249.876C197.46 249.802 197.46 249.71 197.441 249.619C197.388 249.217 197.277 248.796 197.076 248.431C195.961 246.493 194.846 244.555 193.748 242.617C193.73 242.58 193.711 242.561 193.693 242.524Z" fill="white"/>
<path fill-rule="evenodd" clip-rule="evenodd" d="M176.817 232.943C176.708 232.961 176.598 232.98 176.507 232.998C175.922 233.09 175.409 233.327 174.953 233.675C174.641 233.93 174.349 234.224 174.148 234.571C173.032 236.546 171.935 238.539 170.839 240.514C170.839 240.531 170.82 240.549 170.82 240.586C171.843 241.134 172.849 241.701 173.892 242.269C175.136 242.945 176.378 243.639 177.64 244.316C179.012 241.867 180.365 239.397 181.736 236.93C182.65 238.484 183.564 240.019 184.46 241.555C183.473 242.122 182.486 242.688 181.498 243.255C181.535 243.274 181.59 243.274 181.626 243.274C182.668 243.22 183.711 243.165 184.752 243.109C185.649 243.072 186.544 243.037 187.441 242.982C188.099 242.945 188.776 242.926 189.452 242.89C189.47 242.89 189.507 242.871 189.507 242.871C189.525 242.854 189.544 242.836 189.544 242.817C190.768 240.641 191.956 238.465 193.182 236.289C193.182 236.252 193.2 236.234 193.219 236.199C192.34 236.692 191.482 237.203 190.603 237.697C190.585 237.661 190.585 237.642 190.566 237.624C189.928 236.546 189.287 235.466 188.665 234.388C188.3 233.784 187.807 233.401 187.111 233.255C186.947 233.218 186.764 233.162 186.618 233.162C186.197 233.144 185.813 233.144 185.393 233.144C184.881 233.144 184.368 233.144 183.839 233.126C183.161 233.126 182.504 233.107 181.845 233.107C181.315 233.09 180.804 233.09 180.273 233.09C179.898 233.081 179.519 233.081 179.139 233.081C178.76 233.081 178.381 233.081 178.006 233.072C177.786 233.053 177.548 232.98 177.329 232.943H176.817Z" fill="white"/>
<path fill-rule="evenodd" clip-rule="evenodd" d="M165.443 243.75V243.768C166.285 244.28 167.145 244.793 168.003 245.304C167.985 245.341 167.985 245.359 167.967 245.378C167.328 246.456 166.669 247.552 166.028 248.65C165.572 249.418 165.572 250.223 165.975 251.009C166.56 252.18 167.217 253.331 167.821 254.501C168.662 256.092 169.539 257.665 170.325 259.291C170.874 260.443 171.843 261.028 173.087 261.229C173.205 261.248 173.325 261.252 173.446 261.252C173.567 261.252 173.69 261.248 173.818 261.248H180.089V257.335V253.459H171.66C172.575 251.905 173.452 250.369 174.349 248.815C175.336 249.418 176.305 250.003 177.293 250.607V250.589C177.293 250.57 177.293 250.57 177.274 250.552C175.885 248.32 174.495 246.072 173.105 243.824C173.105 243.787 173.087 243.768 173.068 243.768C173.031 243.768 173.013 243.75 172.996 243.75H165.443Z" fill="white"/>
<path fill-rule="evenodd" clip-rule="evenodd" d="M271.549 266.532L260.707 269.349C256.373 272.712 251.912 276.296 249.626 281.287L250.193 281.562C257.744 277.943 265.314 274.321 272.866 270.72C272.499 269.312 272.062 267.922 271.567 266.551L271.549 266.532Z" fill="#DB8E6A"/>
<path fill-rule="evenodd" clip-rule="evenodd" d="M220.7 274.266V274.285C215.141 275.052 209.821 277.43 205.542 281.069C214.41 280.831 223.278 280.612 232.127 280.374C232.037 278.343 231.891 276.296 231.708 274.266H220.7Z" fill="#DB8E6A"/>
<path fill-rule="evenodd" clip-rule="evenodd" d="M200.781 104.257C199.325 104.257 197.888 104.85 196.802 105.793C195.54 106.891 194.717 108.445 194.388 110.073L194.261 110.218C192.723 108.975 191.079 107.804 189.177 107.384C188.758 107.291 188.322 107.244 187.886 107.244C186.266 107.244 184.633 107.892 183.782 109.231C182.777 110.84 183.107 112.943 183.947 114.643C184.971 116.727 186.654 118.41 188.426 119.89C191.28 122.268 194.425 124.279 197.716 126.053C200.075 120.988 203.53 116.308 204.462 110.822C204.7 109.469 204.774 108.061 204.372 106.762C204.17 106.123 203.84 105.482 203.329 105.062C202.799 104.587 202.103 104.367 201.409 104.294C201.2 104.269 200.99 104.257 200.781 104.257Z" fill="#FF3347"/>
<path fill-rule="evenodd" clip-rule="evenodd" d="M47.621 28C46.1651 28 44.7277 28.5928 43.642 29.5357C42.3796 30.6337 41.5565 32.1879 41.2278 33.8157L41.1004 33.9616C39.5631 32.7177 37.9184 31.5475 36.0172 31.1267C35.5979 31.0346 35.1618 30.987 34.7257 30.987C33.1055 30.987 31.473 31.635 30.6222 32.9742C29.6164 34.5836 29.9465 36.686 30.7866 38.386C31.8109 40.4699 33.494 42.1531 35.2662 43.6335C38.1196 46.0108 41.2647 48.0225 44.5557 49.7963C46.9146 44.7315 50.3699 40.0507 51.3021 34.5651C51.5401 33.2122 51.6138 31.8039 51.2115 30.5047C51.0103 29.8659 50.6801 29.2255 50.1687 28.8047C49.6389 28.3302 48.9432 28.1106 48.2491 28.0369C48.0402 28.0123 47.8299 28 47.621 28V28Z" fill="#FF3347" fill-opacity="0.5"/>
<path fill-rule="evenodd" clip-rule="evenodd" d="M141.935 0C140.784 0 139.647 0.462335 138.788 1.19777C137.79 2.05418 137.139 3.26633 136.879 4.53596L136.778 4.64976C135.563 3.67956 134.262 2.76685 132.758 2.43866C132.427 2.3668 132.082 2.32967 131.737 2.32967C130.456 2.32967 129.165 2.83513 128.492 3.87958C127.697 5.13485 127.958 6.77461 128.622 8.10054C129.432 9.72592 130.763 11.0387 132.165 12.1933C134.421 14.0475 136.908 15.6166 139.511 17C141.376 13.0497 144.109 9.39893 144.846 5.12048C145.034 4.06525 145.092 2.96688 144.774 1.95357C144.615 1.45529 144.354 0.955821 143.95 0.627631C143.531 0.25752 142.98 0.0862341 142.432 0.0287423C142.266 0.00958075 142.1 0 141.935 0Z" fill="#FF3347" fill-opacity="0.5"/>
<path fill-rule="evenodd" clip-rule="evenodd" d="M237.832 99.4116C237.832 99.4116 233.445 100.801 231.14 101.479V101.496C230.903 103.398 230.647 105.3 230.39 107.201C230.281 107.896 230.189 108.591 230.099 109.286C230.501 109.742 230.885 110.218 231.287 110.674C233.554 106.981 235.767 103.234 237.906 99.4485L237.832 99.4116Z" fill="#ED867A"/>
<path fill-rule="evenodd" clip-rule="evenodd" d="M236.198 79.9619C236.031 79.9619 235.857 79.9849 235.693 80.0126C231.396 80.6883 227.081 81.384 222.765 82.0597C221.833 82.2056 220.901 82.353 219.969 82.4252V82.5173C220.499 87.5821 221.028 92.6284 221.925 97.6379C222.145 98.7713 222.363 99.9415 222.966 100.929C223.204 101.331 223.533 101.715 223.935 101.916C224.412 102.154 224.941 102.173 225.473 102.173C227.356 102.154 229.238 101.935 231.067 101.514C231.104 101.496 231.123 101.496 231.139 101.479C233.445 100.801 237.832 99.4117 237.832 99.4117L237.906 99.4485C235.767 103.234 233.554 106.981 231.287 110.675C232.365 111.974 233.445 113.253 234.523 114.534C234.98 115.064 235.436 115.612 236.005 115.977C239.002 113.857 241.873 111.571 244.615 109.157L244.58 109.12C244.451 108.609 244.305 108.098 244.159 107.585C242.769 102.52 241.489 97.4183 240.318 92.2998C240.904 91.5857 241.453 90.8547 241.8 89.9947C242.203 89.0257 242.256 87.8386 241.708 86.9233C241.489 86.5762 241.16 86.266 240.776 86.1554C240.658 86.1201 240.54 86.1001 240.421 86.1001C240.357 86.1001 240.292 86.1063 240.228 86.1186C239.881 86.1923 239.587 86.4487 239.349 86.7037C238.711 87.3256 238.179 88.0566 237.76 88.8429L237.649 88.7892C237.503 86.1738 237.321 83.5417 237.12 80.9263C237.083 80.6883 237.064 80.4334 236.918 80.2322C236.746 80.0249 236.481 79.9619 236.198 79.9619Z" fill="#FBB28F"/>
<path fill-rule="evenodd" clip-rule="evenodd" d="M237.672 75C237.355 75 237.024 75.1106 236.717 75.2211C231.491 77.1131 225.947 78.0868 220.39 78.0868C219.823 78.0868 219.256 78.076 218.688 78.0561C217.412 78.0085 216.136 77.9209 214.86 77.9209C214.654 77.9209 214.45 77.9225 214.245 77.9271C213.88 77.9271 213.477 77.9639 213.186 78.1835C212.837 78.44 212.71 78.9514 212.8 79.3906C212.874 79.8298 213.167 80.2137 213.459 80.5239C214.592 81.731 216.239 82.2977 217.883 82.4436C218.175 82.4666 218.465 82.4774 218.757 82.4774C219.161 82.4774 219.565 82.4574 219.969 82.4252C220.901 82.353 221.833 82.2055 222.765 82.0597C227.081 81.3839 231.396 80.6883 235.693 80.0126C235.857 79.9849 236.031 79.9619 236.198 79.9619C236.481 79.9619 236.746 80.0248 236.918 80.2322C237.064 80.4333 237.083 80.6883 237.12 80.9263C237.321 83.5416 237.504 86.1738 237.649 88.7891L237.76 88.8429C238.179 88.0566 238.711 87.3256 239.349 86.7036C239.588 86.4487 239.881 86.1922 240.228 86.1185C240.292 86.1062 240.357 86.1001 240.421 86.1001C240.54 86.1001 240.658 86.1201 240.776 86.1554L240.813 86.0279C240.173 82.8644 239.551 79.7008 238.912 76.5203C238.801 75.9706 238.637 75.3317 238.126 75.0937C237.981 75.0276 237.828 75 237.672 75Z" fill="#053B5C"/>
<path fill-rule="evenodd" clip-rule="evenodd" d="M230.372 107.183C227.978 107.64 225.582 108.17 223.186 108.774C220.536 109.523 217.957 110.675 215.855 112.485C213.771 114.296 212.636 116.491 211.796 118.885C211.265 121.024 210.735 123.145 210.242 125.284H210.223L210.205 125.431C210.113 125.76 210.041 126.089 209.967 126.437H209.985L207.041 140.388L202.525 142.564C202.525 142.564 203.11 144.173 206.53 147.848C206.53 147.848 207.298 148.889 207.92 150.298L218.214 143.734C218.214 143.734 219 155.582 218.524 164.962C218.524 164.962 226.292 167.986 237.481 167.986C243.164 167.986 249.731 167.206 256.611 164.853L254.874 135.487L258.438 126.437C258.677 125.815 258.915 125.193 259.153 124.59C259.153 124.59 259.153 124.571 259.171 124.571C259.354 124.078 259.555 123.566 259.756 123.073C259.92 122.652 260.085 122.231 260.231 121.829C260.231 121.81 260.249 121.81 260.249 121.81C261.091 118.098 259.994 113.857 257.434 111.077C256.921 110.51 255.806 109.761 254.874 109.414C251.345 108.591 247.761 107.969 244.159 107.567C244.305 108.079 244.451 108.591 244.58 109.102L244.616 109.139C241.873 111.553 239.003 113.838 236.005 115.941C235.437 115.594 234.981 115.045 234.523 114.516C233.445 113.235 232.365 111.956 231.287 110.658C230.885 110.2 230.501 109.724 230.099 109.268C230.189 108.572 230.281 107.878 230.372 107.183Z" fill="#40B4E5"/>
<path fill-rule="evenodd" clip-rule="evenodd" d="M218.542 164.779C218.524 164.999 218.524 165.219 218.505 165.438L218.468 174.983L218.213 274.266H232.841L234.467 200.397L236.114 215.665L256.921 270.336L260.706 269.349L271.549 266.532L272.866 266.185L254.874 211.514L256.921 164.798C256.812 164.816 256.72 164.853 256.611 164.87C250.492 166.684 244.115 167.588 237.737 167.588C231.247 167.588 224.757 166.651 218.542 164.779Z" fill="#053B5C"/>
<path fill-rule="evenodd" clip-rule="evenodd" d="M205.613 128.125C205.37 128.125 205.132 128.173 204.902 128.209C200.129 129.215 195.339 130.203 190.566 131.19V131.227C191.298 132.982 192.943 134.262 194.735 134.83C195.703 135.142 196.713 135.272 197.728 135.272C198.611 135.272 199.499 135.174 200.367 135.013C202.032 134.701 203.695 134.134 205.14 133.239L205.158 133.293C206.109 134.208 207.059 135.122 207.992 136.035C208.119 136.164 208.248 136.292 208.376 136.401C209.09 134.573 209.784 132.744 210.459 130.898L210.223 130.806C209.911 130.605 209.583 130.404 209.272 130.184C208.449 129.655 207.626 129.106 206.785 128.576C206.511 128.394 206.236 128.209 205.926 128.156C205.822 128.133 205.717 128.125 205.613 128.125Z" fill="#FBB28F"/>
</svg>
