<svg width="353" height="308" viewBox="0 0 353 308" fill="none" xmlns="http://www.w3.org/2000/svg">
<path fill-rule="evenodd" clip-rule="evenodd" d="M278.592 0C249.112 0 218.848 19.4378 196.149 25.3174C187.603 27.5309 179.162 28.1034 170.751 28.1034C161.755 28.1034 152.794 27.4479 143.78 27.4479C125.746 27.4479 107.497 30.0696 88.313 45.8045C58.7405 70.0312 58.8788 97.865 50.2293 117.499C39.1862 142.561 16.062 159.706 5.95648 186.136C-0.820779 203.85 -2.46741 225.457 4.44816 243.437C17.3446 277.007 49.2931 269.716 90.5143 290.658C111.364 301.256 122.215 301.827 136.014 301.827C137.683 301.827 139.395 301.819 141.173 301.819C152.22 301.819 165.814 302.141 187.447 306.798C188.488 307.212 195.017 308 204.192 308C219.786 308 243.027 305.724 259.975 295.48C310.245 265.064 299.082 232.805 309.499 201.23C315.55 182.945 328.516 169.028 338.326 153.212C359.302 119.416 356.234 78.1195 338.951 44.5128C321.461 10.4819 300.238 2.63889e-06 278.592 2.63889e-06V0Z" fill="#E3D3AC" fill-opacity="0.5"/>
<path fill-rule="evenodd" clip-rule="evenodd" d="M173.86 229.555C154.603 229.555 138.982 233.039 138.982 237.327C138.982 241.634 154.603 245.118 173.86 245.118C193.116 245.118 208.737 241.634 208.737 237.327C208.737 233.039 193.116 229.555 173.86 229.555Z" fill="#F2E7DD"/>
<path fill-rule="evenodd" clip-rule="evenodd" d="M170.011 60.1475C120.184 60.1475 79.7754 100.556 79.7754 150.384C79.7754 174.312 89.29 197.264 106.211 214.166C123.133 231.087 146.085 240.6 170.011 240.6C193.94 240.6 216.872 231.087 233.794 214.166C250.715 197.264 260.23 174.312 260.23 150.384C260.23 126.456 250.715 103.505 233.794 86.5836C216.872 69.6621 193.94 60.1475 170.011 60.1475Z" fill="#40B4E5"/>
<path fill-rule="evenodd" clip-rule="evenodd" d="M170.011 60.1475C163.58 60.1475 157.302 60.8372 151.252 62.1202C151.982 62.0655 152.71 62.0382 153.44 62.0382C158.659 62.0382 163.828 63.4498 168.481 66.6749C166.241 77.8358 156.191 86.2202 143.902 87.3295C142.236 87.3295 141.662 90.6994 141.662 92.3634C141.177 97.7365 138.554 109.944 145.006 109.944C145.934 109.944 147.046 109.693 148.381 109.132C148.937 108.558 150.603 108.003 151.177 106.893C153.397 102.413 153.952 96.8442 158.985 95.7139C159.502 95.5435 160.005 95.4647 160.49 95.4647C163.158 95.4647 165.302 97.8297 166.241 100.193C169.609 108.558 162.891 114.148 155.082 116.388C152.842 116.943 152.286 120.848 151.177 123.642C150.337 125.306 148.579 128.206 146.357 128.206C145.588 128.206 144.763 127.859 143.902 126.993C141.886 125.493 143.501 121.258 142.205 121.258C142.062 121.258 141.886 121.309 141.662 121.422C137.202 123.642 141.107 130.917 136.093 133.711C133.011 135.242 128.072 137.062 126.215 140.047C126.329 140.162 126.464 140.277 126.578 140.411C128.321 141.789 130.062 142.747 131.938 143.416C133.067 143.818 134.255 144.105 135.517 144.316C135.979 144.329 136.443 144.335 136.911 144.335C147.011 144.335 158.45 141.414 168.944 141.414C178.553 141.414 187.37 143.864 193.634 153.255C199.203 162.194 199.203 172.818 201.444 183.423C204.274 197.944 217.213 200.785 230.718 200.785C235.659 200.785 240.673 200.405 245.299 200.077C254.717 185.817 260.23 168.741 260.23 150.384C260.23 100.556 219.838 60.1475 170.011 60.1475Z" fill="#A0EBFF"/>
<path fill-rule="evenodd" clip-rule="evenodd" d="M136.723 66.5024C129.622 69.316 122.961 73.0299 116.893 77.4705C111.514 95.5415 111.744 115.066 119.956 132.658C121.487 131.069 123.363 129.634 122.673 127.566C118.768 115.277 113.734 103.543 117.085 90.1234C118.213 87.3291 119.324 84.5349 120.434 81.7583C124.225 75.5187 130.062 70.0829 136.723 66.5024Z" fill="#6ECBF5"/>
<path fill-rule="evenodd" clip-rule="evenodd" d="M113.6 156.9C112.243 156.9 110.877 157.738 110.518 159.056C110.25 160.07 110.576 161.18 110.269 162.194C110.25 162.271 110.211 162.349 110.174 162.424C110.862 165.927 111.608 169.373 112.451 172.762C118.002 195.655 131.708 214.031 149.702 227.891C151.406 226.091 153.779 224.962 155.789 223.43C158.087 221.689 160.058 218.74 159.043 216.042C157.627 212.193 151.961 212.29 149.09 209.36C144.017 204.23 150.545 193.875 145.376 188.822C143.577 187.053 141.146 186.727 138.554 186.727C137.027 186.727 135.443 186.839 133.9 186.839C133.157 186.839 132.422 186.814 131.708 186.735C126.195 186.735 123.859 181.912 121.007 178.064C119.61 176.169 118.174 174.217 117.581 171.939C116.912 169.392 117.351 166.712 117.543 164.109C117.734 161.773 117.199 158.061 114.71 157.102C114.356 156.966 113.978 156.9 113.6 156.9Z" fill="#407220"/>
<path fill-rule="evenodd" clip-rule="evenodd" d="M160.53 60.0269C155.737 60.0269 149.662 61.5526 146.351 62.2922C145.969 62.3677 145.586 62.4642 145.204 62.5414C145.089 62.5783 144.974 62.6169 144.859 62.6362C144.591 62.6941 144.342 62.7697 144.073 62.8275C143.921 62.8661 143.748 62.9047 143.596 62.9626C143.385 63.0189 143.175 63.0575 142.964 63.1153C142.773 63.1716 142.581 63.2295 142.39 63.2874C142.199 63.3259 142.027 63.3822 141.834 63.4401C141.623 63.498 141.432 63.5558 141.221 63.6121C141.049 63.67 140.896 63.7086 140.724 63.7665C140.514 63.8227 140.284 63.8999 140.054 63.9771C139.92 64.0141 139.768 64.0526 139.633 64.1105C139.383 64.1877 139.155 64.2633 138.906 64.3404C138.79 64.379 138.657 64.416 138.543 64.4739C138.293 64.551 138.025 64.6459 137.776 64.7231C137.681 64.7617 137.565 64.8002 137.47 64.8372C137.182 64.9337 136.916 65.0285 136.647 65.1443C136.57 65.1636 136.475 65.2022 136.398 65.2199C136.11 65.3356 135.824 65.4498 135.536 65.5655C135.461 65.5848 135.403 65.6041 135.345 65.6218C135.039 65.7568 134.732 65.871 134.408 66.006C134.388 66.006 134.35 66.0253 134.311 66.043C133.967 66.1781 133.642 66.3115 133.316 66.445L133.277 66.4643C125.755 69.6621 118.711 74.0448 112.528 79.3857C96.6593 93.0338 86.2267 112.291 80.8279 132.505C80.0626 135.319 79.5465 138.401 80.0819 141.311C80.5417 143.875 82.7234 145.483 82.4935 147.933C82.2057 151.112 81.9003 153.734 82.9147 156.911C83.2733 158.024 85.799 164.363 87.3762 164.363C87.402 164.363 87.4261 164.361 87.4518 164.358C88.4277 164.223 89.5756 163.956 89.902 163.036C90.2847 161.946 89.2123 160.95 88.447 160.051C87.7573 159.228 86.3023 156.663 86.59 155.495C86.783 154.686 87.2798 154.372 87.8521 154.372C88.7042 154.372 89.7235 155.062 90.1689 155.84C92.8297 160.356 92.0837 166.54 97.6352 169.067C99.8555 170.082 102.439 170.004 104.795 170.675C108.489 171.728 111.571 174.675 112.777 178.312C115.361 184.437 114.308 191.961 110.116 197.129C108.24 199.445 105.713 201.455 104.889 204.326C103.473 209.285 107.666 213.917 111.494 217.381C116.968 222.32 122.501 227.316 128.895 231.01C134.406 234.179 140.67 236.351 146.99 236.351C148.001 236.351 149.015 236.295 150.027 236.179C147.329 235.126 147.232 231.068 148.974 228.751C150.697 226.417 153.472 225.192 155.789 223.43C158.086 221.689 160.057 218.74 159.043 216.042C157.627 212.193 151.961 212.29 149.089 209.36C144.017 204.23 150.544 193.875 145.375 188.821C143.576 187.053 141.146 186.727 138.554 186.727C137.026 186.727 135.443 186.839 133.899 186.839C133.157 186.839 132.422 186.813 131.708 186.735C126.195 186.735 123.859 181.911 121.007 178.064C119.61 176.169 118.174 174.217 117.581 171.939C116.912 169.392 117.351 166.712 117.542 164.109C117.734 161.773 117.198 158.061 114.709 157.102C114.356 156.966 113.978 156.9 113.6 156.9C112.243 156.9 110.877 157.737 110.518 159.056C110.25 160.07 110.576 161.18 110.269 162.194C109.906 163.419 108.642 164.223 107.359 164.319C107.221 164.331 107.087 164.336 106.955 164.336C102.634 164.336 101.748 158.364 102.306 155.15C102.995 151.284 104.814 147.379 107.513 144.355C107.705 144.144 107.896 143.953 108.087 143.761C108.126 143.723 108.163 143.665 108.201 143.626C108.584 143.244 108.986 142.88 109.388 142.517C109.446 142.478 109.484 142.44 109.542 142.401C109.963 142.057 110.383 141.732 110.824 141.425C110.881 141.406 110.939 141.367 110.996 141.33C111.206 141.176 111.436 141.023 111.666 140.89C111.896 140.755 112.126 140.621 112.356 140.507C112.431 140.469 112.489 140.449 112.547 140.411C112.777 140.297 113.026 140.181 113.254 140.067C113.332 140.028 113.389 140.009 113.465 139.97C114.23 139.637 115.068 139.379 115.89 139.379C116.013 139.379 116.137 139.383 116.261 139.396C116.414 139.416 116.547 139.435 116.701 139.454C116.912 139.512 117.121 139.588 117.332 139.684C118.137 140.086 118.75 140.89 118.75 141.752C118.75 141.827 118.73 141.885 118.73 141.962C118.557 143.149 117.275 144.219 117.525 145.292C117.542 145.388 117.581 145.464 117.619 145.56C117.861 146.057 118.417 146.3 118.976 146.3C119.173 146.3 119.369 146.271 119.554 146.211C120.089 146.02 120.51 145.655 120.893 145.234C121.007 145.081 121.123 144.928 121.237 144.795C121.391 144.584 121.525 144.393 121.658 144.182C122.214 143.359 122.653 142.478 122.999 141.541C123.266 140.851 123.457 140.142 123.592 139.416C123.917 137.75 123.304 135.607 124.166 134.152C126.98 129.366 136.207 131.089 137.814 125.767C138.543 123.337 137.049 120.618 137.853 118.206C137.911 118.073 137.948 117.938 138.025 117.824C138.369 117.058 139.001 116.426 139.729 116.005C140.4 115.623 141.17 115.404 141.941 115.404C142.292 115.404 142.642 115.449 142.983 115.545C143.117 115.565 143.252 115.623 143.366 115.679C145.07 116.369 146.104 118.301 145.911 120.102C145.893 120.254 145.874 120.388 145.835 120.541C145.777 120.809 145.683 121.078 145.567 121.327C145.605 121.402 145.663 121.46 145.702 121.518C146.104 122.004 146.638 122.213 147.216 122.213C148.758 122.213 150.62 120.732 151.176 119.049C151.462 118.187 151.634 117.267 151.808 116.349C151.884 115.986 151.942 115.64 152.036 115.296C152.036 115.277 152.036 115.277 152.036 115.258C152.114 114.952 152.191 114.664 152.286 114.397C152.286 114.359 152.305 114.34 152.305 114.301C152.401 114.033 152.496 113.785 152.612 113.536C152.823 113.134 153.052 112.732 153.358 112.386C153.454 112.272 153.569 112.158 153.683 112.061C155.98 109.936 160.038 110.989 162.432 108.941C163.159 108.309 163.619 107.505 163.868 106.606C163.943 106.28 164.001 105.936 164.04 105.592C164.059 105.495 164.059 105.42 164.078 105.323C164.078 105.151 164.096 104.96 164.096 104.788C164.096 103.544 163.848 102.222 163.503 101.055C163.12 99.8297 162.66 98.6046 162.048 97.4744C161.992 97.3988 161.934 97.3023 161.895 97.2075C161.684 96.8618 161.474 96.5178 161.244 96.193C160.728 95.4647 160.115 94.7959 159.426 94.2396C158.138 93.1978 156.461 92.5708 154.835 92.5708C153.807 92.5708 152.798 92.8216 151.922 93.3795C151.176 93.857 150.602 94.4695 150.123 95.1785C148.937 97.0162 148.477 99.4857 147.826 101.667C147.634 102.338 147.347 103.007 147.022 103.658C145.956 105.675 144.265 107.391 142.25 107.391C142.239 107.391 142.229 107.391 142.218 107.391C141.93 107.391 141.642 107.352 141.356 107.275C140.916 107.161 140.533 106.989 140.189 106.759C138.369 105.553 137.662 102.873 137.279 100.576C137.26 100.442 137.24 100.29 137.221 100.135C136.723 97.1882 136.284 94.1833 136.686 91.2347C136.705 91.0241 136.742 90.8135 136.781 90.6029C137.126 88.7074 137.911 86.8504 139.117 85.3584C139.863 84.4195 140.782 83.6349 141.872 83.0996C142.064 83.0031 142.236 82.9275 142.446 82.8504C143.748 82.3536 145.126 82.2185 146.543 82.1606C148.343 82.0851 150.181 82.1237 151.884 81.5867C155.118 80.5529 157.358 77.7008 159.387 74.9837C160.365 73.6814 162.776 71.1733 164.614 68.5897C164.672 68.5125 164.728 68.4177 164.805 68.3212C164.919 68.1492 165.035 67.9771 165.168 67.7858C165.246 67.6524 165.34 67.498 165.437 67.3646C165.476 67.2874 165.512 67.2311 165.57 67.154C165.648 67.0205 165.723 66.8662 165.82 66.7327C165.858 66.6379 165.916 66.5607 165.953 66.4643C166.318 65.7954 166.585 65.1636 166.757 64.551C166.776 64.4546 166.795 64.379 166.815 64.3018C166.892 63.9578 166.948 63.6121 166.93 63.2874C166.911 62.2536 166.413 61.3918 165.207 60.8372C164.384 60.4352 163.35 60.2053 162.202 60.1105C161.837 60.0719 161.435 60.0526 161.033 60.0333C160.868 60.0285 160.699 60.0269 160.53 60.0269Z" fill="#449E8B"/>
<path fill-rule="evenodd" clip-rule="evenodd" d="M232.871 149.076C232.369 149.076 231.875 149.186 231.401 149.446C230.52 149.925 229.965 150.824 229.448 151.705C225.811 157.887 222.155 164.07 218.518 170.234C217.37 172.168 216.221 174.159 215.915 176.36C215.608 178.58 216.354 181.088 218.288 182.217C216.47 183.729 217.886 186.869 220.012 187.865C222.136 188.879 224.625 188.688 226.864 189.395C229.104 190.123 231.191 192.591 230.099 194.659C229.181 196.363 226.653 196.707 225.792 198.431C225.39 199.235 225.428 200.191 225.486 201.091C225.907 207.619 226.329 214.146 226.731 220.674C247.442 204.498 260.095 176.035 260.191 149.771C256.742 152.562 252.307 153.988 247.88 153.988C244.321 153.988 240.766 153.065 237.737 151.187C236.242 150.25 234.511 149.076 232.871 149.076Z" fill="#449E8B"/>
<path fill-rule="evenodd" clip-rule="evenodd" d="M237.871 90.833C236.933 92.2494 236.512 93.5517 235.592 94.9681C235.842 97.3026 236.224 99.9071 238.081 101.324C239.057 102.089 240.282 102.375 241.432 102.816C245.47 104.367 248.819 108.195 248.802 112.521C248.782 113.575 248.552 114.684 247.805 115.43C247.313 115.911 246.797 116.224 246.263 116.224C245.966 116.224 245.663 116.128 245.355 115.909C244.359 115.182 243.863 113.957 243.461 112.788C243.059 111.621 242.657 110.377 241.756 109.534C241.256 109.076 240.551 108.804 239.882 108.804C239.324 108.804 238.792 108.994 238.425 109.42C239.096 110.856 239.766 112.425 239.478 113.976C239.231 115.227 238.036 116.343 236.848 116.343C236.565 116.343 236.284 116.279 236.014 116.139C235.764 117.267 235.498 118.398 235.229 119.546C234.213 118.832 232.97 118.468 231.726 118.468C230.837 118.468 229.948 118.655 229.142 119.03C227.208 119.928 225.83 121.346 225.677 123.47C225.505 125.671 223.285 127.472 223.552 129.673C223.687 130.782 224.491 131.76 225.486 132.276C226.264 132.679 227.149 132.85 228.036 132.85C228.284 132.85 228.533 132.837 228.779 132.811C230.616 132.658 232.415 131.912 233.698 130.61C234.98 129.29 235.727 127.414 235.498 125.596C235.861 125.48 236.205 125.366 236.568 125.231C237.157 124.243 238.01 123.867 238.985 123.867C239.691 123.867 240.459 124.065 241.24 124.37C243.115 125.078 244.437 126.84 245.03 128.753C245.814 131.3 245.221 134.457 243.001 135.932C244.647 135.874 246.293 135.798 247.921 135.74C248.138 135.07 248.802 134.588 249.506 134.588C249.546 134.588 249.585 134.589 249.625 134.593C249.7 134.84 249.797 135.109 249.892 135.358L251.557 134.266C249.586 131.855 248.552 128.697 248.724 125.576C248.747 125.051 249.099 124.853 249.552 124.853C249.842 124.853 250.173 124.933 250.485 125.059C251.289 125.366 251.864 126.054 252.342 126.782C254.697 130.477 254.736 135.511 252.438 139.224C252.017 139.914 251.634 141.023 252.361 141.35C252.462 141.395 252.557 141.414 252.649 141.414C253.541 141.414 254.062 139.485 255.089 139.485C255.123 139.485 255.159 139.488 255.194 139.493C255.654 140.009 256.114 140.544 256.591 141.062C256.993 141.503 257.223 141.636 257.663 142.057C258.027 141.655 258.411 141.234 258.774 140.832C257.874 121.94 250.294 105.094 237.871 90.833Z" fill="#449E8B"/>
<path fill-rule="evenodd" clip-rule="evenodd" d="M194.971 69.3228C189.745 69.3228 185.769 71.49 185 76.7634C183.296 88.4018 204.812 93.0337 211.684 98.873C213.835 100.711 216.89 101.897 219.726 101.897C222.972 101.897 225.93 100.344 226.922 96.4421C227.879 92.6704 226.673 88.7652 224.126 85.1285C218.055 76.4547 204.454 69.3228 194.971 69.3228Z" fill="#40B4E5"/>
<path fill-rule="evenodd" clip-rule="evenodd" d="M176.804 64.1216C176.217 64.1216 175.629 64.1907 175.066 64.3209C171.793 65.0669 168.979 67.8435 168.595 71.1731C168.212 74.4851 170.606 78.0269 173.916 78.5237C174.158 78.5607 174.399 78.5784 174.64 78.5784C177.714 78.5784 180.683 75.7375 180.31 72.6667L181.076 70.7519C182.473 69.3548 182.11 66.7904 180.635 65.4689C179.609 64.5235 178.211 64.1216 176.804 64.1216Z" fill="#40B4E5"/>
<path fill-rule="evenodd" clip-rule="evenodd" d="M205.659 163.196C204.576 163.196 203.489 163.541 202.65 164.223C201.524 165.151 200.92 166.627 200.965 168.075V168.072C200.965 168.074 200.965 168.077 200.965 168.079C200.976 168.41 201.019 168.738 201.1 169.058C201.418 171.386 201.736 173.701 202.056 176.016C202.228 177.317 202.495 178.772 203.587 179.5C204.01 179.794 204.497 179.924 204.997 179.924C205.926 179.924 206.897 179.476 207.569 178.791C208.602 177.738 209.081 176.302 209.521 174.905C210.114 173.067 210.708 171.191 210.708 169.259C210.708 167.324 210.037 165.296 208.487 164.109C207.682 163.498 206.672 163.196 205.659 163.196Z" fill="#40B4E5"/>
<path fill-rule="evenodd" clip-rule="evenodd" d="M86.9536 270.366C79.2397 270.366 73 271.84 73 273.658C73 275.496 79.2397 276.97 86.9536 276.97C94.6499 276.97 100.889 275.496 100.889 273.658C100.889 271.84 94.6499 270.366 86.9536 270.366Z" fill="#F2E7DD"/>
<path fill-rule="evenodd" clip-rule="evenodd" d="M258.775 251.626C246.178 251.626 235.956 253.1 235.956 254.938C235.956 256.756 246.178 258.231 258.775 258.231C271.37 258.231 281.573 256.756 281.573 254.938C281.573 253.1 271.37 251.626 258.775 251.626Z" fill="#F2E7DD"/>
<path fill-rule="evenodd" clip-rule="evenodd" d="M181.804 266.654C159.982 266.654 142.294 269.315 142.294 272.607C142.294 275.879 159.982 278.559 181.804 278.559C203.607 278.559 221.294 275.879 221.294 272.607C221.294 269.315 203.607 266.654 181.804 266.654Z" fill="#F2E7DD"/>
<path fill-rule="evenodd" clip-rule="evenodd" d="M199.911 237.117C199.91 237.117 159.158 237.94 159.982 237.94C160.096 237.94 167.332 248.086 167.332 248.086L194.532 247.397L199.911 237.117Z" fill="#C92830"/>
<path fill-rule="evenodd" clip-rule="evenodd" d="M191.777 237.271C179.947 237.519 159.387 237.94 159.982 237.94C160.019 237.94 161.34 239.74 162.853 241.826C165.114 242.218 167.413 242.405 169.73 242.405C177.138 242.405 184.719 240.493 191.777 237.271Z" fill="#C92830"/>
<path fill-rule="evenodd" clip-rule="evenodd" d="M194.629 233.499L167.657 233.843L159.982 237.94L199.912 237.116L194.629 233.499Z" fill="#ED6270"/>
<path fill-rule="evenodd" clip-rule="evenodd" d="M194.629 233.499L167.657 233.843L159.982 237.94L181.019 237.499C185.67 236.293 190.322 235.087 194.973 233.748L194.629 233.499Z" fill="#ED6270"/>
<path fill-rule="evenodd" clip-rule="evenodd" d="M200.658 225.632L203.147 226.492L199.51 236.121L195.471 233.499L200.658 225.632ZM200.391 224.311L194.629 233.499L199.912 237.116L204.602 225.613L200.391 224.311Z" fill="#7A151F"/>
<path fill-rule="evenodd" clip-rule="evenodd" d="M200.658 225.632L203.147 226.492V226.512L199.51 236.121L197.193 234.61L195.471 233.499L200.658 225.632ZM200.391 224.311L194.629 233.499L196.946 235.087L199.912 237.116L204.602 225.613L204.028 225.441L200.391 224.311Z" fill="#C92830"/>
<path fill-rule="evenodd" clip-rule="evenodd" d="M174.739 232.102L174.911 237.787L182.455 237.615L182.358 232.102H174.739Z" fill="#043A5B"/>
<path fill-rule="evenodd" clip-rule="evenodd" d="M176.557 208.193C174.299 208.193 172.461 210.011 172.461 212.27V223.373C172.461 225.632 174.299 227.45 176.557 227.45H178.625C180.884 227.45 182.702 225.632 182.702 223.373V212.27C182.702 210.011 180.884 208.193 178.625 208.193H176.557Z" fill="#59D098"/>
<path fill-rule="evenodd" clip-rule="evenodd" d="M173.037 210.987C172.672 211.677 172.461 212.481 172.461 213.323V222.34C172.461 225.153 174.758 227.451 177.591 227.451C180.424 227.451 182.702 225.153 182.702 222.34V222.282C182.09 221.976 181.286 221.746 180.177 221.592C177.601 220.944 182.078 211.515 177.49 211.515C177.064 211.515 176.561 211.595 175.964 211.773C175.467 211.773 174.72 211.965 174.032 212.347C173.725 211.946 173.4 211.563 173.17 211.084C173.131 211.045 173.073 211.026 173.037 210.987Z" fill="#439D8A"/>
<path fill-rule="evenodd" clip-rule="evenodd" d="M177.591 208.193C175.601 208.193 173.879 209.323 173.037 210.987C173.074 211.026 173.131 211.045 173.17 211.084C173.4 211.563 173.725 211.945 174.032 212.347C174.72 211.965 175.468 211.773 175.964 211.773C176.561 211.595 177.064 211.514 177.49 211.514C182.079 211.514 177.601 220.944 180.177 221.592C181.286 221.746 182.09 221.976 182.702 222.282V213.323C182.702 210.49 180.424 208.193 177.591 208.193Z" fill="#59D098"/>
<path fill-rule="evenodd" clip-rule="evenodd" d="M178.55 231.317C176.443 231.317 174.739 231.661 174.739 232.102C174.739 232.523 176.443 232.887 178.55 232.887C180.654 232.887 182.358 232.523 182.358 232.102C182.358 231.661 180.654 231.317 178.55 231.317Z" fill="#439D8A"/>
<path fill-rule="evenodd" clip-rule="evenodd" d="M177.707 220.635L177.535 224.618L176.424 222.415L175.812 222.32L177.286 225.421L177.611 231.738C177.828 231.954 178.014 232.029 178.168 232.029C178.517 232.029 178.702 231.642 178.702 231.642L178.511 220.884L177.707 220.635Z" fill="#DB8E6A"/>
<path fill-rule="evenodd" clip-rule="evenodd" d="M163.542 232.102L163.714 237.787L171.236 237.615L171.161 232.102H163.542Z" fill="#043A5B"/>
<path fill-rule="evenodd" clip-rule="evenodd" d="M165.341 208.193C163.082 208.193 161.264 210.011 161.264 212.27V223.373C161.264 225.632 163.082 227.45 165.341 227.45H167.428C169.667 227.45 171.505 225.632 171.505 223.373V212.27C171.505 210.011 169.667 208.193 167.428 208.193H165.341Z" fill="#59D098"/>
<path fill-rule="evenodd" clip-rule="evenodd" d="M167.524 218.377C167.543 218.282 167.561 218.185 167.561 218.09C167.561 218.185 167.543 218.282 167.524 218.377Z" fill="#59D098"/>
<path fill-rule="evenodd" clip-rule="evenodd" d="M167.524 218.376C167.466 218.684 167.275 219.028 167.064 219.391C167.294 219.124 167.466 218.778 167.524 218.376Z" fill="#59D098"/>
<path fill-rule="evenodd" clip-rule="evenodd" d="M161.264 219.124V222.339C161.264 225.153 163.561 227.451 166.375 227.451C168.691 227.451 170.624 225.938 171.275 223.851C170.783 223.944 170.286 223.994 169.791 223.994C168.556 223.994 167.326 223.687 166.164 222.991C165.15 221.976 166.336 220.597 167.064 219.391C166.585 219.928 165.897 220.195 165.457 220.195C165.214 220.212 164.979 220.221 164.754 220.221C163.207 220.221 162.084 219.825 161.264 219.124Z" fill="#439D8A"/>
<path fill-rule="evenodd" clip-rule="evenodd" d="M171.505 213.323L166.375 227.45C169.207 227.45 171.505 225.153 171.505 222.339V213.323Z" fill="#59D098"/>
<path fill-rule="evenodd" clip-rule="evenodd" d="M167.35 231.317C165.246 231.317 163.542 231.661 163.542 232.102C163.542 232.523 165.246 232.887 167.35 232.887C169.456 232.887 171.161 232.523 171.161 232.102C171.161 231.661 169.456 231.317 167.35 231.317Z" fill="#439D8A"/>
<path fill-rule="evenodd" clip-rule="evenodd" d="M166.51 216.271L166.318 224.618L165.207 222.415L164.614 222.32L166.089 225.422L166.413 231.739C166.63 231.954 166.817 232.03 166.97 232.03C167.32 232.03 167.505 231.642 167.505 231.642L167.314 216.5L166.51 216.271Z" fill="#DB8E6A"/>
<path fill-rule="evenodd" clip-rule="evenodd" d="M186.13 232.102L186.302 237.787L193.825 237.615L193.748 232.102H186.13Z" fill="#043A5B"/>
<path fill-rule="evenodd" clip-rule="evenodd" d="M187.929 208.193C185.69 208.193 183.852 210.011 183.852 212.27V223.373C183.852 225.632 185.69 227.45 187.929 227.45H190.015C192.273 227.45 194.093 225.632 194.093 223.373V212.27C194.093 210.011 192.273 208.193 190.015 208.193H187.929Z" fill="#59D098"/>
<path fill-rule="evenodd" clip-rule="evenodd" d="M184.77 210.394C184.196 211.217 183.852 212.232 183.852 213.323V222.34C183.852 225.153 186.148 227.451 188.982 227.451C191.796 227.451 194.093 225.153 194.093 222.34V220.291C193.193 220.042 192.714 219.487 191.375 219.487C191.182 219.422 190.987 219.393 190.794 219.393C189.092 219.393 187.421 221.684 186.18 221.684C186.043 221.684 185.912 221.655 185.785 221.592C182.09 219.737 186.513 214.108 184.77 210.394Z" fill="#439D8A"/>
<path fill-rule="evenodd" clip-rule="evenodd" d="M188.982 208.193C187.24 208.193 185.69 209.055 184.77 210.394C186.513 214.108 182.09 219.736 185.785 221.592C185.912 221.654 186.043 221.683 186.18 221.683C187.421 221.683 189.092 219.392 190.794 219.392C190.987 219.392 191.182 219.421 191.375 219.487C192.714 219.487 193.193 220.042 194.093 220.291V213.323C194.093 210.49 191.796 208.193 188.982 208.193Z" fill="#59D098"/>
<path fill-rule="evenodd" clip-rule="evenodd" d="M189.939 231.317C187.833 231.317 186.13 231.661 186.13 232.102C186.13 232.523 187.833 232.887 189.939 232.887C192.045 232.887 193.748 232.523 193.748 232.102C193.748 231.661 192.045 231.317 189.939 231.317Z" fill="#439D8A"/>
<path fill-rule="evenodd" clip-rule="evenodd" d="M185.613 219.047L188.676 225.422L189 231.738C189.217 231.954 189.404 232.029 189.558 232.029C189.907 232.029 190.092 231.642 190.092 231.642L189.901 220.885L189.097 220.635L188.753 223.258L186.206 219.142L185.613 219.047Z" fill="#DB8E6A"/>
<path fill-rule="evenodd" clip-rule="evenodd" d="M194.533 247.396L186.359 247.51L195.031 265.62L196.83 264.911L194.533 247.396Z" fill="#7A151F"/>
<path fill-rule="evenodd" clip-rule="evenodd" d="M167.903 249.425C167.879 249.425 167.853 249.425 167.829 249.425C164.594 249.445 161.493 250.708 159.178 252.948H159.159C159.101 253.006 159.043 253.062 158.985 253.12C154.104 258.02 154.104 266.061 158.985 270.961C159.062 271.037 159.139 271.094 159.215 271.172C159.215 271.189 159.234 271.189 159.234 271.189C159.234 271.209 159.254 271.209 159.273 271.228C161.61 273.434 164.709 274.656 167.911 274.656C167.961 274.656 168.009 274.656 168.059 274.654C171.352 274.598 174.492 273.276 176.826 270.961C181.707 266.061 181.707 258.02 176.826 253.12C176.788 253.101 176.749 253.062 176.731 253.043V253.023C176.712 253.023 176.712 253.023 176.693 253.006C176.673 252.986 176.635 252.948 176.616 252.929C174.26 250.686 171.149 249.425 167.903 249.425Z" fill="#7A151F"/>
<path fill-rule="evenodd" clip-rule="evenodd" d="M167.906 259.935C166.738 259.935 165.8 260.872 165.8 262.04C165.8 263.208 166.738 264.146 167.906 264.146C169.054 264.146 170.011 263.208 170.011 262.04C170.011 260.872 169.054 259.935 167.906 259.935Z" fill="#7A151F"/>
<path fill-rule="evenodd" clip-rule="evenodd" d="M186.991 240.562L179.373 241.118L173.764 250.345L168.653 258.728C168.328 258.614 167.963 258.556 167.58 258.556C165.628 258.556 164.04 260.146 164.04 262.078C164.04 264.032 165.628 265.62 167.58 265.62C169.534 265.62 171.122 264.032 171.122 262.078C171.122 261.638 171.026 261.197 170.873 260.795L183.143 245.387L186.991 240.562Z" fill="#C92830"/>
<path fill-rule="evenodd" clip-rule="evenodd" d="M196.888 265.792C198.304 265.792 199.433 266.94 199.433 268.337C199.433 269.736 198.304 270.865 196.888 270.865C195.491 270.865 194.36 269.736 194.36 268.337C194.36 266.94 195.491 265.792 196.888 265.792ZM196.888 263.686C194.341 263.686 192.256 265.773 192.256 268.337C192.256 270.903 194.341 272.971 196.888 272.971C199.452 272.971 201.539 270.903 201.539 268.337C201.539 265.773 199.452 263.686 196.888 263.686Z" fill="#C92830"/>
<path fill-rule="evenodd" clip-rule="evenodd" d="M79.2976 263.112L76.8281 267.208C76.5403 267.668 76.1384 268.032 75.6786 268.281C75.4117 268.433 75.1239 268.605 74.9133 268.797C74.7606 268.95 74.5693 269.141 74.3779 269.314C75.431 272.472 77.5934 272.835 78.1481 272.874C77.7654 272.358 77.5548 270.845 77.6127 270.175L77.632 269.869C77.6706 269.276 77.8619 268.683 78.206 268.184L79.7381 265.85L79.2976 263.112Z" fill="#FBB28F"/>
<path fill-rule="evenodd" clip-rule="evenodd" d="M74.7412 268.969C74.5113 269.199 74.2428 269.467 74.0338 269.658C73.8601 269.831 73.8232 270.099 73.9759 270.31C73.9759 270.31 76.3296 274.08 76.7701 274.234C77.2766 274.316 77.9036 274.347 78.484 274.347C79.1126 274.347 79.6882 274.311 80.0049 274.271C80.0226 273.371 78.9888 272.79 78.3232 272.79C78.283 272.79 78.2444 272.794 78.2059 272.798C78.1544 272.802 78.1046 272.803 78.0547 272.803C76.5001 272.803 75.2975 270.824 74.7412 268.969Z" fill="#053B5C"/>
<path fill-rule="evenodd" clip-rule="evenodd" d="M74.7412 268.969C74.5113 269.199 74.2428 269.467 74.0338 269.658C73.8601 269.831 73.8232 270.099 73.9759 270.31C73.9759 270.31 76.3296 274.08 76.7701 274.234C77.2766 274.316 77.9036 274.347 78.484 274.347C79.1126 274.347 79.6882 274.311 80.0049 274.271C80.0226 273.371 78.9888 272.79 78.3232 272.79C78.283 272.79 78.2444 272.794 78.2059 272.798C78.1544 272.802 78.1046 272.803 78.0547 272.803C76.5001 272.803 75.2975 270.824 74.7412 268.969V268.969Z" stroke="#053B5C" stroke-width="0.217848" stroke-miterlimit="11.9063"/>
<path fill-rule="evenodd" clip-rule="evenodd" d="M98.9748 195.234C96.9651 195.75 96.6982 198.68 97.1178 199.656C97.5198 200.651 97.769 202.718 97.769 202.718C98.9748 201.397 99.2819 199.598 98.8028 198.123C98.3252 196.67 98.9748 195.234 98.9748 195.234Z" fill="#053B5C"/>
<path fill-rule="evenodd" clip-rule="evenodd" d="M98.5211 193.388C97.5533 193.388 95.7783 194.603 95.7783 194.603C95.7783 194.603 97.9601 195.981 97.6932 197.838C97.6932 197.838 98.8604 197.015 99.1289 194.163C99.1787 193.59 98.9167 193.388 98.5211 193.388Z" fill="#053B5C"/>
<path fill-rule="evenodd" clip-rule="evenodd" d="M91.1852 194.928C91.1852 195.809 90.6674 196.574 89.8636 196.899C88.2559 197.608 86.9536 199.005 86.2462 200.804C85.825 201.915 84.9053 202.738 83.8153 203.216C81.402 204.288 79.6802 207.007 79.6802 210.184C79.6802 214.319 82.5516 217.65 86.1111 217.65C89.3475 217.65 92.0067 214.912 92.4858 211.352C95.875 211.123 98.5535 207.888 98.5535 203.905C98.5535 200.269 96.3138 197.245 93.3476 196.574V194.928H91.1852Z" fill="#053B5C"/>
<path fill-rule="evenodd" clip-rule="evenodd" d="M98.5825 203.503C96.7979 203.503 95.0519 205.372 97.4249 209.476C99.0696 212.336 101.457 213.475 104.161 213.475C108.094 213.475 112.695 211.066 116.644 208.06C117.203 207.648 116.829 206.841 116.239 206.841C116.142 206.841 116.041 206.862 115.935 206.91C112.687 208.442 108.75 209.928 105.73 209.928C103.163 209.928 101.259 208.854 101.004 205.82C100.988 205.77 100.986 205.679 100.986 205.679C100.986 205.679 100.986 205.68 100.986 205.685C100.873 204.262 99.7207 203.503 98.5825 203.503Z" fill="#FBB28F"/>
<path fill-rule="evenodd" clip-rule="evenodd" d="M90.8585 203.37C89.5949 203.37 88.5611 204.384 88.5241 205.629C88.4469 208.672 90.418 217.113 90.418 217.113C90.418 217.113 86.3022 228.809 87.1832 229.823C87.1832 229.823 99.1657 228.828 101.233 226.455C103.032 224.407 97.7493 216.846 97.7493 216.846C97.7493 216.846 100.889 207.849 100.698 205.437C100.601 204.268 99.6256 203.37 98.4583 203.37H90.8585Z" fill="#FBB28F"/>
<path fill-rule="evenodd" clip-rule="evenodd" d="M92.6592 265.374C92.4985 265.374 92.3329 265.421 92.1801 265.524C91.701 265.85 91.4325 266.385 91.4518 266.959L91.6431 270.998C91.6431 271.133 91.6238 271.266 91.6045 271.382L91.3184 273.046C92.0644 273.392 92.7541 273.622 94.1898 273.659C94.2364 273.662 94.2879 273.662 94.3409 273.662C95.1802 273.662 96.7686 273.387 97.5966 273.027C97.214 272.932 94.9744 272.167 94.6303 272.051C93.4052 271.63 93.3859 268.356 93.5194 266.271C93.5483 265.758 93.1223 265.374 92.6592 265.374Z" fill="#ED867A"/>
<path fill-rule="evenodd" clip-rule="evenodd" d="M91.3765 272.76L91.2414 273.486C91.1852 273.888 91.4713 274.252 91.8733 274.252C92.9665 274.286 95.0196 274.335 96.6226 274.335C97.8557 274.335 98.822 274.306 98.8798 274.215C99.2046 273.678 98.5728 273.334 97.6161 272.99C97.5486 272.967 97.4811 272.958 97.4136 272.958C97.3669 272.958 97.3187 272.962 97.2721 272.97C96.4489 273.123 95.5871 273.2 94.7062 273.2C93.5775 273.2 92.4665 273.046 91.3765 272.76Z" fill="#053B5C"/>
<path fill-rule="evenodd" clip-rule="evenodd" d="M91.3765 272.76L91.2414 273.486C91.1852 273.888 91.4713 274.252 91.8733 274.252C92.9665 274.286 95.0196 274.335 96.6226 274.335C97.8557 274.335 98.822 274.306 98.8798 274.215C99.2046 273.678 98.5728 273.334 97.6161 272.99C97.5486 272.967 97.4811 272.958 97.4136 272.958C97.3669 272.958 97.3187 272.962 97.2721 272.97C96.4489 273.123 95.5871 273.2 94.7062 273.2C93.5775 273.2 92.4665 273.046 91.3765 272.76V272.76Z" stroke="#053B5C" stroke-width="0.217848" stroke-miterlimit="11.9063"/>
<path fill-rule="evenodd" clip-rule="evenodd" d="M90.0598 245.908C88.9279 245.908 87.5983 246.535 86.6288 247.932C85.2124 249.98 76.9422 267.611 77.4406 268.165C77.4518 268.178 77.4663 268.185 77.4872 268.185C78.4631 268.185 89.6048 252.946 90.9922 250.938C92.4102 248.871 92.6964 247.147 91.4906 246.324C91.1 246.051 90.6032 245.908 90.0598 245.908Z" fill="#FBB28F"/>
<path fill-rule="evenodd" clip-rule="evenodd" d="M94.915 245.306C93.5613 245.306 92.1899 247.015 91.7783 249.33C91.3378 251.781 91.1658 271.247 91.8539 271.535C91.8619 271.538 91.8683 271.54 91.8748 271.54C92.1385 271.54 92.4471 269.45 93.1561 266.615C94.5726 260.853 96.698 251.895 97.0035 250.248C97.4247 247.779 96.6208 245.578 95.1851 245.329C95.0951 245.313 95.0051 245.306 94.915 245.306Z" fill="#ED867A"/>
<path fill-rule="evenodd" clip-rule="evenodd" d="M96.5357 222.313C94.0839 222.313 92.0018 224.788 91.8153 227.966C91.624 231.22 92.8121 252.028 95.3379 252.163C95.3475 252.163 95.3572 252.163 95.3669 252.163C97.9054 252.163 100.833 231.744 101.004 228.484C101.195 225.23 99.301 222.453 96.7543 222.32C96.682 222.315 96.608 222.313 96.5357 222.313Z" fill="#ED867A"/>
<path fill-rule="evenodd" clip-rule="evenodd" d="M96.5354 222.313C94.0836 222.313 92.0016 224.788 91.8151 227.966C91.7202 229.613 91.9694 235.7 92.5627 241.367C92.8296 243.854 92.5048 246.343 91.8922 248.774C91.8537 248.965 91.8151 249.137 91.7781 249.33C91.471 251.033 91.2218 261.005 91.3761 266.978C91.5161 267.1 91.9582 267.153 92.4051 267.153C92.873 267.153 93.344 267.095 93.4807 266.997C93.5 266.864 101.119 236.101 101.1 228.215C101.1 224.942 99.3007 222.453 96.7541 222.32C96.6817 222.315 96.6078 222.313 96.5354 222.313Z" fill="#439D8A"/>
<path fill-rule="evenodd" clip-rule="evenodd" d="M96.5354 222.313C94.0836 222.313 92.0016 224.788 91.8151 227.966C91.7202 229.479 91.9308 234.839 92.4469 240.122C93.5964 237.825 94.8778 235.605 96.2765 233.46C96.41 233.269 96.5627 233.154 96.7348 233.097C97.9036 231.508 99.3763 230.15 101.061 229.153C101.08 228.809 101.1 228.503 101.1 228.215C101.1 224.942 99.3007 222.453 96.754 222.32C96.6817 222.315 96.6078 222.313 96.5354 222.313Z" fill="#439D8A"/>
<path fill-rule="evenodd" clip-rule="evenodd" d="M92.5164 221.726C89.9987 221.726 87.489 224.251 87.4327 227.489C87.3749 230.761 88.2945 249.522 90.8395 249.559C90.8443 249.559 90.8476 249.559 90.8524 249.559C93.3974 249.559 97.0615 230.986 97.1001 227.718C97.1564 224.444 95.1467 221.766 92.6016 221.727C92.5727 221.726 92.5437 221.726 92.5164 221.726Z" fill="#FBB28F"/>
<path fill-rule="evenodd" clip-rule="evenodd" d="M92.5166 221.726C89.9989 221.726 87.4892 224.251 87.4329 227.489C87.3944 229.862 87.3365 246.917 86.6291 247.932C85.5374 249.503 79.9666 260.088 77.8813 265.237C78.1113 265.811 78.9344 266.347 79.3171 266.482C82.801 262.385 89.9973 252.585 90.9925 250.938C94.8028 244.658 97.4251 230.359 97.4636 227.661C97.5199 224.388 95.1469 221.766 92.6018 221.727C92.5729 221.726 92.544 221.726 92.5166 221.726Z" fill="#74D8C2"/>
<path fill-rule="evenodd" clip-rule="evenodd" d="M90.6672 203.37C89.5193 203.37 88.5611 204.288 88.5418 205.437C88.4469 208.423 90.418 217.113 90.418 217.113C90.418 217.113 86.3022 228.54 87.1832 229.823C87.1832 229.823 99.1657 228.828 101.233 226.455C103.032 224.407 97.7493 216.846 97.7493 216.846C97.7493 216.846 98.7445 213.936 99.587 210.968C100.18 206.394 97.1946 205.839 98.3426 203.37H97.2911C96.8699 204.365 95.9502 205.13 94.5338 205.13C93.1367 205.13 92.2171 204.365 91.7974 203.37H90.6672Z" fill="#FFD173"/>
<path fill-rule="evenodd" clip-rule="evenodd" d="M93.4247 199.771L92.333 203.542L95.7784 203.906L95.645 200.039L93.4247 199.771Z" fill="#FBB28F"/>
<path fill-rule="evenodd" clip-rule="evenodd" d="M93.4248 199.771L93.0791 200.959C93.5775 201.513 94.2093 202.719 95.0325 202.719C95.2801 202.719 95.5293 202.642 95.7399 202.508L95.6451 200.039L93.4248 199.771Z" fill="#ED867A"/>
<path fill-rule="evenodd" clip-rule="evenodd" d="M91.8926 194.603V198.298C91.8926 198.947 92.3717 199.942 93.0228 200.499C94.1515 201.494 94.9746 201.876 95.7206 201.876C96.3139 201.876 97.2721 199.962 97.5776 198.508C97.9988 196.574 97.5776 194.603 97.5776 194.603H91.8926Z" fill="#FBB28F"/>
<path fill-rule="evenodd" clip-rule="evenodd" d="M91.5869 196.02V196.497H92.6577V196.02H91.5869Z" fill="white"/>
<path fill-rule="evenodd" clip-rule="evenodd" d="M92.0838 196.286C91.6625 196.286 91.1851 196.516 91.1851 197.244C91.1851 197.952 91.6625 198.891 92.0838 198.891C92.505 198.891 92.8491 198.315 92.8491 197.588C92.8491 196.879 92.505 196.286 92.0838 196.286Z" fill="#FBB28F"/>
<path fill-rule="evenodd" clip-rule="evenodd" d="M97.5549 192.389C97.2591 192.389 96.9568 192.465 96.6787 192.611C96.2189 192.841 95.7205 192.976 95.1851 192.976H93.2703C92.1223 192.976 91.1851 193.913 91.1851 195.061V195.502L92.1416 196.364L92.4101 197.225H92.4857C92.8491 197.225 93.1368 196.957 93.1754 196.593C93.214 196 93.6159 195.502 94.2092 195.502H96.0275C96.1433 195.466 96.2703 195.454 96.4038 195.454C96.7365 195.454 97.1144 195.534 97.4713 195.534C97.7286 195.534 97.9761 195.492 98.19 195.349C99.3958 194.545 99.243 193.664 98.7832 193.013C98.4874 192.589 98.0324 192.389 97.5549 192.389Z" fill="#053B5C"/>
<path fill-rule="evenodd" clip-rule="evenodd" d="M118.497 202.393C118.493 202.393 118.486 202.393 118.481 202.393C118.29 202.393 117.065 203.274 116.624 203.983C116.184 204.69 115.705 205.954 115.687 206.891C115.668 207.83 116.089 207.963 116.719 208.002C116.727 208.002 116.734 208.002 116.74 208.002C117.387 208.002 118.118 206.203 118.118 206.203C118.118 206.203 119.305 204.537 118.864 204.518C118.444 204.518 117.761 205.618 117.401 205.618C117.383 205.618 117.367 205.614 117.351 205.61C117.007 205.494 117.428 204.767 117.85 204.174C118.268 203.566 119.174 202.393 118.497 202.393Z" fill="#FBB28F"/>
<path fill-rule="evenodd" clip-rule="evenodd" d="M97.386 193.492C96.2573 195.081 93.8264 194.986 92.3328 195.426C90.8199 195.848 90.0161 197.991 90.0161 197.991C91.0691 196.843 91.7203 197.569 94.4004 196.918C97.0998 196.286 96.9455 195.79 97.2911 195.024C97.5194 194.507 97.386 193.492 97.386 193.492Z" fill="#053B5C"/>
<path fill-rule="evenodd" clip-rule="evenodd" d="M89.5248 203.362C88.7772 203.362 88.0312 203.717 87.5473 204.576C84.6389 209.667 81.671 220.119 81.8623 232.734C81.8623 233.105 82.1694 233.404 82.5199 233.404C82.5295 233.404 82.5408 233.404 82.552 233.404C82.8575 233.404 83.1453 233.193 83.2224 232.848C86.8206 214.798 91.7017 206.91 91.7017 206.91C92.7628 205.037 91.1438 203.362 89.5248 203.362Z" fill="#FBB28F"/>
<path fill-rule="evenodd" clip-rule="evenodd" d="M82.3476 233.028C82.0083 233.028 81.743 233.214 81.5372 233.806C81.2687 234.552 81.2108 235.547 81.3073 236.351C81.3073 236.351 82.4167 237.462 83.2221 237.518C83.2527 237.52 83.2816 237.521 83.3089 237.521C83.9681 237.521 83.6627 237.115 83.4746 237.115C83.4665 237.115 83.4585 237.115 83.4504 237.116C83.4504 237.116 83.4488 237.116 83.4472 237.116C83.2688 237.116 82.5517 235.644 82.5324 235.624C82.5598 235.61 82.5775 235.597 82.5983 235.597C82.6064 235.597 82.616 235.599 82.6273 235.605C82.9922 235.605 83.2398 237.002 83.6611 237.136C83.6771 237.142 83.6916 237.145 83.7045 237.145C84.0437 237.145 83.5469 235.317 83.5469 235.317C83.5469 235.317 83.5083 233.327 82.8958 233.136C82.6948 233.073 82.5131 233.028 82.3476 233.028Z" fill="#FBB28F"/>
<path fill-rule="evenodd" clip-rule="evenodd" d="M118.615 238.591L114.078 241.041C112.586 241.845 112.126 243.76 113.083 245.157L118.615 253.234L124.166 245.157C125.123 243.76 124.665 241.845 123.171 241.041L118.615 238.591Z" fill="#053B5C"/>
<path fill-rule="evenodd" clip-rule="evenodd" d="M118.615 168.229C118.428 168.229 118.242 168.348 118.213 168.588L117.697 173.66V194.966L107.092 176.321C106.988 176.14 106.796 176.038 106.602 176.038C106.507 176.038 106.412 176.061 106.325 176.111C106.058 176.263 105.962 176.609 106.115 176.876L115.954 194.162C117.104 196.172 117.697 198.45 117.697 200.785V235.872C117.697 237.845 116.624 239.663 114.882 240.6C114.787 240.697 111.877 241.711 112.7 244.391C112.777 244.2 112.853 244.009 112.949 243.817C113.313 243.166 113.983 242.745 114.71 242.573L116.567 242.094C116.647 242.076 116.727 242.067 116.806 242.067C117.308 242.067 117.75 242.42 117.85 242.917L118.615 247.435L119.477 242.917C119.575 242.406 120.028 242.067 120.518 242.067C120.597 242.067 120.679 242.075 120.76 242.094L122.559 242.573C123.266 242.745 123.936 243.186 124.3 243.817C124.396 244.009 124.472 244.2 124.53 244.391C124.932 243.128 124.396 241.711 123.171 241.041C122.98 240.869 119.554 239.682 119.554 235.872V201.264C119.554 198.68 120.3 196.133 121.716 193.971L131.517 178.868C131.689 178.599 131.613 178.255 131.345 178.083C131.255 178.027 131.15 178 131.048 178C130.867 178 130.689 178.085 130.58 178.255L119.554 195.235V173.66L119.017 168.588C118.988 168.348 118.801 168.229 118.615 168.229Z" fill="#DB8E6A"/>
<path fill-rule="evenodd" clip-rule="evenodd" d="M105.005 171.919C105.005 171.919 104.412 174.331 104.833 175.231C105.274 176.13 107.303 176.667 107.303 176.667C107.303 176.667 108.144 174.752 107.705 173.851C107.264 172.953 105.005 171.919 105.005 171.919Z" fill="#74D8C2"/>
<path fill-rule="evenodd" clip-rule="evenodd" d="M105.412 176.924C105.238 176.924 105.078 176.95 104.947 177.011C104.277 177.336 103.512 179.002 103.512 179.002C103.512 179.002 104.472 179.236 105.242 179.236C105.528 179.236 105.787 179.204 105.962 179.117C106.632 178.81 107.015 177.317 107.015 177.317C107.015 177.317 106.108 176.924 105.412 176.924Z" fill="#74D8C2"/>
<path fill-rule="evenodd" clip-rule="evenodd" d="M120.626 179.035C120.339 179.035 120.077 179.067 119.897 179.154C119.227 179.481 118.844 180.972 118.844 180.972C118.844 180.972 119.728 181.355 120.421 181.355C120.605 181.355 120.775 181.328 120.912 181.26C121.582 180.953 122.347 179.27 122.347 179.27C122.347 179.27 121.399 179.035 120.626 179.035Z" fill="#74D8C2"/>
<path fill-rule="evenodd" clip-rule="evenodd" d="M108.298 182.014C107.496 182.014 106.25 182.466 106.25 182.466C106.25 182.466 107.206 184.035 107.915 184.284C108.004 184.315 108.105 184.328 108.213 184.328C108.93 184.328 109.944 183.749 109.944 183.749C109.944 183.749 109.369 182.313 108.68 182.064C108.574 182.029 108.442 182.014 108.298 182.014Z" fill="#74D8C2"/>
<path fill-rule="evenodd" clip-rule="evenodd" d="M112.949 180.648C112.949 180.648 111.361 181.605 111.131 182.294C110.882 182.984 111.666 184.323 111.666 184.323C111.666 184.323 113.102 183.769 113.351 183.079C113.581 182.371 112.949 180.648 112.949 180.648Z" fill="#74D8C2"/>
<path fill-rule="evenodd" clip-rule="evenodd" d="M109.81 173.852C109.81 173.852 107.666 175.154 107.34 176.091C107.015 177.03 108.068 178.829 108.068 178.829C108.068 178.829 110.02 178.064 110.347 177.125C110.671 176.188 109.81 173.852 109.81 173.852Z" fill="#59D098"/>
<path fill-rule="evenodd" clip-rule="evenodd" d="M134.005 174.024C134.005 174.026 131.689 174.924 131.192 175.786C130.713 176.667 131.42 178.619 131.42 178.619C131.42 178.619 133.488 178.217 133.967 177.336C134.465 176.474 134.005 174.026 134.005 174.024Z" fill="#74D8C2"/>
<path fill-rule="evenodd" clip-rule="evenodd" d="M127.695 185.554C127.594 185.554 127.501 185.564 127.421 185.586C126.713 185.797 126.062 187.194 126.062 187.194C126.062 187.194 127.08 187.877 127.803 187.877C127.892 187.877 127.975 187.868 128.052 187.845C128.76 187.654 129.813 186.141 129.813 186.141C129.813 186.141 128.49 185.554 127.695 185.554Z" fill="#74D8C2"/>
<path fill-rule="evenodd" clip-rule="evenodd" d="M126.713 178.771C126.713 178.771 125.965 180.456 126.176 181.164C126.367 181.873 127.784 182.524 127.784 182.524C127.784 182.524 128.626 181.241 128.435 180.534C128.224 179.825 126.713 178.771 126.713 178.771Z" fill="#74D8C2"/>
<path fill-rule="evenodd" clip-rule="evenodd" d="M132.329 178.286C132.184 178.286 132.052 178.3 131.938 178.331C130.982 178.599 130.101 180.495 130.101 180.495C130.101 180.495 131.498 181.416 132.477 181.416C132.591 181.416 132.699 181.403 132.8 181.374C133.757 181.107 135.173 179.059 135.173 179.059C135.173 179.059 133.403 178.286 132.329 178.286Z" fill="#59D098"/>
<path fill-rule="evenodd" clip-rule="evenodd" d="M121.123 166.941C121.123 166.941 118.978 168.224 118.654 169.162C118.329 170.101 119.38 171.919 119.38 171.919C119.38 171.919 121.334 171.154 121.658 170.215C121.985 169.277 121.123 166.941 121.123 166.941Z" fill="#59D098"/>
<path fill-rule="evenodd" clip-rule="evenodd" d="M121.729 169.221C121.354 169.221 121.013 169.263 120.779 169.372C119.897 169.813 119.343 171.823 119.343 171.823C119.343 171.823 120.579 172.363 121.536 172.363C121.774 172.363 121.996 172.329 122.176 172.244C123.055 171.803 124.108 169.544 124.108 169.544C124.108 169.544 122.783 169.221 121.729 169.221Z" fill="#74D8C2"/>
<path fill-rule="evenodd" clip-rule="evenodd" d="M114.986 174.681C114.618 174.681 114.366 174.694 114.366 174.694C114.366 174.694 114.978 177.125 115.782 177.699C116.089 177.927 116.58 177.996 117.067 177.996C117.855 177.996 118.634 177.815 118.634 177.815C118.634 177.815 118.462 175.728 117.658 175.135C117.11 174.742 115.779 174.681 114.986 174.681Z" fill="#74D8C2"/>
<path fill-rule="evenodd" clip-rule="evenodd" d="M119.009 204.24C118.745 204.24 116.774 205.391 116.719 205.954C116.682 206.528 117.658 207.14 117.658 207.14C117.658 207.14 119.477 205.053 119.036 204.249C119.033 204.243 119.023 204.24 119.009 204.24Z" fill="#FBB28F"/>
<path fill-rule="evenodd" clip-rule="evenodd" d="M254.736 137.329C254.736 137.329 251.06 140.909 249.376 142.115C249.376 142.115 248.322 141.866 246.121 141.253L243.843 143.551C245.26 144.125 248.935 145.541 249.853 145.58C249.853 145.58 253.126 143.607 255.577 141.023L254.736 137.329Z" fill="#FBB28F"/>
<path fill-rule="evenodd" clip-rule="evenodd" d="M259.789 157.925L253.012 158.557L251.194 176.246L252.782 195.54H255.29C255.884 188.707 256.86 182.754 255.712 178.083L259.789 157.925Z" fill="#053B5C"/>
<path fill-rule="evenodd" clip-rule="evenodd" d="M252.763 195.234C251.405 196.21 249.969 195.598 249.03 196.21C248.112 196.823 248.131 197.971 248.131 197.971H255.482C255.482 197.971 255.521 196.459 255.521 196.038C255.521 195.598 255.366 195.387 255.366 195.387C254.861 195.43 254.451 195.447 254.119 195.447C252.982 195.447 252.763 195.249 252.763 195.234Z" fill="#F9958B"/>
<path fill-rule="evenodd" clip-rule="evenodd" d="M264.823 157.639L258.201 159.208L260.172 177.413L266.489 195.252C266.895 195.477 267.336 195.561 267.794 195.561C268.196 195.561 268.614 195.495 269.034 195.407C268.556 190.161 266.278 179.652 264.823 177.374V157.639Z" fill="#0D415D"/>
<path fill-rule="evenodd" clip-rule="evenodd" d="M266.489 195.252C265.13 196.211 263.695 195.617 262.775 196.23C261.838 196.823 261.857 197.971 261.857 197.971H269.208C269.208 197.971 269.208 196.497 269.208 196.058C269.208 195.617 269.034 195.407 269.034 195.407C268.548 195.449 268.153 195.465 267.831 195.465C266.677 195.465 266.489 195.252 266.489 195.252Z" fill="#F9958B"/>
<path fill-rule="evenodd" clip-rule="evenodd" d="M261.435 136.314L258.104 136.888L257.511 136.965L257.3 136.984L254.717 137.328L252.208 159.17C252.533 159.724 253.644 160.146 254.601 160.375C254.659 160.395 254.717 160.395 254.792 160.414C254.945 160.453 255.119 160.491 255.252 160.51C256.71 160.758 258.168 160.875 259.627 160.875C259.738 160.875 259.85 160.875 259.961 160.874C260.249 160.874 260.554 160.855 260.879 160.816C260.937 160.816 261.014 160.797 261.07 160.797C262.717 160.547 264.537 159.84 265.455 158.92L264.115 152.949L266.66 138.094L263.254 136.927L263.082 136.869L262.315 136.602L261.435 136.314Z" fill="#40B4E5"/>
<path fill-rule="evenodd" clip-rule="evenodd" d="M255.693 126.303C255.693 126.303 254.792 126.743 254.908 128.293C255.003 129.825 255.577 130.055 255.577 130.055C255.577 130.055 256.879 126.859 255.693 126.303Z" fill="#053B5C"/>
<path fill-rule="evenodd" clip-rule="evenodd" d="M260.656 133.584C260.188 133.584 259.69 133.637 259.31 133.692C258.928 133.75 258.659 133.806 258.659 133.806L258.526 135.721L258.468 136.869C258.751 137.142 259.114 137.238 259.489 137.238C260.403 137.238 261.378 136.658 261.378 136.658L261.913 133.864C261.67 133.652 261.182 133.584 260.656 133.584Z" fill="#FBB28F"/>
<path fill-rule="evenodd" clip-rule="evenodd" d="M259.31 133.692C258.927 133.75 258.659 133.806 258.659 133.806L258.525 135.721C259.845 135.587 261.148 133.941 261.148 133.941L259.31 133.692Z" fill="#ED867A"/>
<path fill-rule="evenodd" clip-rule="evenodd" d="M255.914 123.55C255.368 123.55 254.932 123.74 254.659 124.274C253.855 125.882 255.768 127.087 255.768 127.087C255.85 127.078 255.93 127.073 256.011 127.073C258.297 127.073 260.45 130.883 260.746 132.103C260.972 133.087 261.284 134.194 261.898 134.194C262.059 134.194 262.242 134.116 262.45 133.941C263.445 133.099 263.75 130.515 264.096 128.6C264.421 126.685 263.636 125.25 260.114 124.6C258.554 124.319 257.011 123.55 255.914 123.55Z" fill="#053B5C"/>
<path fill-rule="evenodd" clip-rule="evenodd" d="M259.159 125.843C257.669 125.843 256.286 126.281 255.826 127.012C255.596 127.356 255.463 127.969 255.386 128.697C255.366 128.773 255.366 128.83 255.366 128.906C255.233 130.094 255.271 131.567 255.31 132.774C255.365 134.009 256.397 134.959 257.601 134.959C257.648 134.959 257.694 134.959 257.741 134.956C259.291 134.84 261.186 134.612 262.104 134.171C262.373 134.036 262.564 133.864 262.622 133.692C262.755 133.271 262.871 132.697 262.966 132.046C263.273 130.131 263.445 127.7 263.445 127.7C262.645 126.395 260.834 125.843 259.159 125.843Z" fill="#FBB28F"/>
<path fill-rule="evenodd" clip-rule="evenodd" d="M259.597 125.118C257.215 125.118 254.588 126.47 255.768 127.087C256.416 127.431 257.2 127.534 257.911 127.534C258.983 127.534 259.884 127.298 259.884 127.298C259.941 128.007 260.956 128.121 261.128 128.753C261.319 129.365 261.147 130.438 261.147 130.438L261.683 130.515C262.001 130.164 262.313 130.061 262.572 130.061C262.951 130.061 263.215 130.285 263.215 130.285C263.827 128.504 264.191 127.433 261.893 125.748C261.289 125.295 260.459 125.118 259.597 125.118Z" fill="#053B5C"/>
<path fill-rule="evenodd" clip-rule="evenodd" d="M262.966 132.046L261.531 132.792C261.531 132.792 261.397 133.731 262.104 134.171C262.392 134.036 262.564 133.864 262.622 133.692C262.756 133.271 262.871 132.697 262.966 132.046Z" fill="#002E49"/>
<path fill-rule="evenodd" clip-rule="evenodd" d="M262.677 130.045C262.173 130.045 261.683 130.515 261.683 130.515L261.53 132.791C261.615 132.806 261.697 132.812 261.778 132.812C263.114 132.812 263.829 130.952 263.215 130.285C263.05 130.108 262.861 130.045 262.677 130.045Z" fill="#FBB28F"/>
<path fill-rule="evenodd" clip-rule="evenodd" d="M240.512 147.493L240.665 152.49L247.27 152.337L247.192 147.493H240.512Z" fill="#043A5B"/>
<path fill-rule="evenodd" clip-rule="evenodd" d="M242.1 126.513C240.129 126.513 238.521 128.121 238.521 130.094V139.837C238.521 141.808 240.129 143.415 242.1 143.415H243.919C245.891 143.415 247.499 141.808 247.499 139.837V130.094C247.499 128.121 245.891 126.513 243.919 126.513H242.1Z" fill="#59D098"/>
<path fill-rule="evenodd" clip-rule="evenodd" d="M239.325 128.447C238.809 129.174 238.521 130.055 238.521 131.012V138.917C238.521 141.406 240.531 143.415 243.001 143.415C245.489 143.415 247.499 141.406 247.499 138.917V137.118C246.715 136.927 246.293 136.43 245.126 136.43C244.957 136.373 244.788 136.348 244.62 136.348C243.121 136.348 241.649 138.348 240.558 138.348C240.436 138.348 240.319 138.324 240.206 138.267C236.972 136.64 240.838 131.701 239.325 128.447Z" fill="#439D8A"/>
<path fill-rule="evenodd" clip-rule="evenodd" d="M243.02 126.513C241.488 126.513 240.129 127.278 239.326 128.447C240.838 131.701 236.972 136.64 240.207 138.267C240.319 138.324 240.437 138.348 240.559 138.348C241.649 138.348 243.121 136.348 244.62 136.348C244.789 136.348 244.957 136.373 245.126 136.43C246.293 136.43 246.715 136.927 247.499 137.118V131.012C247.499 128.523 245.49 126.513 243.02 126.513Z" fill="#59D098"/>
<path fill-rule="evenodd" clip-rule="evenodd" d="M243.863 146.805C242.006 146.805 240.512 147.11 240.512 147.493C240.512 147.877 242.006 148.183 243.863 148.183C245.7 148.183 247.192 147.877 247.192 147.493C247.192 147.11 245.7 146.805 243.863 146.805Z" fill="#439D8A"/>
<path fill-rule="evenodd" clip-rule="evenodd" d="M240.052 136.028L242.752 141.636L243.039 147.168C243.228 147.362 243.392 147.43 243.527 147.43C243.829 147.43 243.99 147.091 243.977 147.091L243.824 137.655L243.115 137.444L242.81 139.721L240.589 136.123L240.052 136.028Z" fill="#DB8E6A"/>
<path fill-rule="evenodd" clip-rule="evenodd" d="M266.661 138.094C263.961 140.009 258.411 146.575 258.411 146.575C256.344 146.824 253.434 147.609 252.209 147.858C251.003 148.106 247.192 149.064 247.192 149.064L247.691 151.151L259.443 149.829C259.443 149.829 265.607 145.963 266.871 143.225C268.135 140.507 266.661 138.094 266.661 138.094Z" fill="#FBB28F"/>
<path fill-rule="evenodd" clip-rule="evenodd" d="M245.134 148.126C244.734 148.126 244.334 148.191 243.938 148.202C243.326 148.221 243.517 148.718 244.093 148.834C244.667 148.967 245.279 149.025 245.144 149.197C245.011 149.389 242.465 149.733 241.986 150.231C241.798 150.434 242.028 150.495 242.375 150.495C242.917 150.495 243.747 150.345 243.747 150.345C243.747 150.347 241.642 150.921 241.546 151.323C241.523 151.419 241.634 151.456 241.814 151.456C242.385 151.456 243.65 151.093 243.652 151.093C243.65 151.093 242.064 151.572 242.197 151.916C242.216 151.977 242.311 152.003 242.453 152.003C242.879 152.003 243.732 151.773 244.207 151.628C244.207 151.628 242.657 152.146 242.887 152.337C242.943 152.389 243.101 152.416 243.329 152.416C244.266 152.416 246.398 151.98 247.691 151.151C247.633 150.442 247.385 149.79 247.192 149.064C247.192 149.064 246.485 148.413 245.853 148.221C245.615 148.149 245.376 148.126 245.134 148.126Z" fill="#FBB28F"/>
<path fill-rule="evenodd" clip-rule="evenodd" d="M258.775 199.675L251.768 254.689C251.71 255.168 251.845 255.57 252.093 255.57C252.323 255.57 252.572 255.168 252.63 254.689L259.654 199.675H258.775Z" fill="#DB8E6A"/>
<path fill-rule="evenodd" clip-rule="evenodd" d="M247.308 199.675L240.301 254.689C240.244 255.168 240.379 255.57 240.628 255.57C240.856 255.57 241.105 255.168 241.163 254.689L248.189 199.675H247.308Z" fill="#DB8E6A"/>
<path fill-rule="evenodd" clip-rule="evenodd" d="M246.369 210.624C246.122 210.624 245.872 211.026 245.814 211.505C245.757 211.983 245.911 212.386 246.141 212.386H257.606C257.836 212.386 258.085 211.983 258.143 211.505C258.201 211.026 258.065 210.624 257.816 210.624H246.369Z" fill="#DB8E6A"/>
<path fill-rule="evenodd" clip-rule="evenodd" d="M244.972 221.592C244.725 221.592 244.475 221.994 244.418 222.473C244.36 222.952 244.514 223.354 244.742 223.354H256.209C256.439 223.354 256.688 222.952 256.746 222.473C256.802 221.994 256.668 221.592 256.419 221.592H244.972Z" fill="#DB8E6A"/>
<path fill-rule="evenodd" clip-rule="evenodd" d="M243.575 232.484C243.326 232.484 243.078 232.886 243.02 233.385C242.962 233.882 243.097 234.283 243.345 234.283H254.792C255.041 234.283 255.29 233.882 255.348 233.385C255.405 232.886 255.271 232.484 255.022 232.484H243.575Z" fill="#DB8E6A"/>
<path fill-rule="evenodd" clip-rule="evenodd" d="M242.178 243.53C241.929 243.53 241.68 243.932 241.623 244.411C241.565 244.888 241.699 245.29 241.948 245.29H253.395C253.644 245.29 253.894 244.888 253.95 244.411C254.008 243.932 253.874 243.53 253.625 243.53H242.178Z" fill="#DB8E6A"/>
<path fill-rule="evenodd" clip-rule="evenodd" d="M258.124 199.675L265.149 254.689C265.206 255.168 265.455 255.57 265.685 255.57C265.934 255.57 266.067 255.168 266.009 254.689L259.005 199.675H258.124Z" fill="#DB8E6A"/>
<path fill-rule="evenodd" clip-rule="evenodd" d="M269.589 199.675L276.614 254.689C276.671 255.168 276.921 255.57 277.151 255.57C277.4 255.57 277.533 255.168 277.475 254.689L270.469 199.675H269.589Z" fill="#DB8E6A"/>
<path fill-rule="evenodd" clip-rule="evenodd" d="M246.734 197.913C246.599 197.913 246.485 198.143 246.485 198.431V200.9C246.485 201.186 246.599 201.397 246.734 201.397H270.718C270.871 201.397 270.987 201.186 270.987 200.9V198.431C270.987 198.143 270.871 197.913 270.718 197.913H246.734Z" fill="#DB8E6A"/>
<path fill-rule="evenodd" clip-rule="evenodd" d="M259.961 210.624C259.711 210.624 259.578 211.026 259.636 211.505C259.692 211.983 259.941 212.386 260.191 212.386H271.638C271.887 212.386 272.02 211.983 271.963 211.505C271.905 211.026 271.657 210.624 271.408 210.624H259.961Z" fill="#DB8E6A"/>
<path fill-rule="evenodd" clip-rule="evenodd" d="M261.358 221.592C261.109 221.592 260.976 221.994 261.033 222.473C261.09 222.952 261.339 223.354 261.588 223.354H273.035C273.284 223.354 273.418 222.952 273.36 222.473C273.304 221.994 273.055 221.592 272.805 221.592H261.358Z" fill="#DB8E6A"/>
<path fill-rule="evenodd" clip-rule="evenodd" d="M262.755 232.484C262.506 232.484 262.373 232.886 262.43 233.385C262.488 233.882 262.736 234.283 262.985 234.283H274.432C274.681 234.283 274.815 233.882 274.757 233.385C274.701 232.886 274.452 232.484 274.202 232.484H262.755Z" fill="#DB8E6A"/>
<path fill-rule="evenodd" clip-rule="evenodd" d="M264.152 243.53C263.924 243.53 263.77 243.932 263.828 244.411C263.886 244.888 264.133 245.29 264.382 245.29H275.829C276.079 245.29 276.212 244.888 276.156 244.411C276.098 243.932 275.849 243.53 275.619 243.53H264.152Z" fill="#DB8E6A"/>
<path fill-rule="evenodd" clip-rule="evenodd" d="M241.369 74.2624C244.268 74.2624 247.211 75.3238 249.629 77.6981C257.179 85.2479 251.785 98.0606 241.27 98.0606C234.662 98.0606 229.268 92.7977 229.268 86.3311C229.268 79.0768 235.198 74.2624 241.369 74.2624ZM241.128 71.0894C232.78 71.0894 226.04 78.103 226.303 86.4624C226.303 97.9184 239.377 110.053 240.997 111.541H241.402C243.152 109.921 256.095 98.4655 256.095 86.4624C256.369 78.103 249.629 71.0894 241.128 71.0894Z" fill="#C92830"/>
<path fill-rule="evenodd" clip-rule="evenodd" d="M237.43 115.271C237.43 113.211 239.1 111.541 241.161 111.541C242.15 111.541 243.099 111.934 243.798 112.634C244.498 113.333 244.891 114.282 244.891 115.271C244.891 117.332 243.221 119.002 241.161 119.002C239.1 119.002 237.43 117.332 237.43 115.271ZM239.295 115.271C239.295 116.302 240.13 117.137 241.161 117.137C242.191 117.137 243.026 116.302 243.026 115.271C243.026 114.241 242.191 113.406 241.161 113.406C240.13 113.406 239.295 114.241 239.295 115.271Z" fill="#C92830"/>
<path fill-rule="evenodd" clip-rule="evenodd" d="M141.016 33.1731C143.915 33.1731 146.858 34.2344 149.276 36.6088C156.825 44.1586 151.432 56.9713 140.917 56.9713C134.309 56.9713 128.915 51.7083 128.915 45.2418C128.915 37.9874 134.845 33.1731 141.016 33.1731ZM140.775 30C132.427 30 125.687 37.0136 125.95 45.3731C125.95 56.829 139.024 68.9634 140.644 70.4514H141.048C142.799 68.8321 155.742 57.3761 155.742 45.3731C156.016 37.0136 149.276 30 140.775 30Z" fill="#59D098"/>
<path fill-rule="evenodd" clip-rule="evenodd" d="M137.077 74.1815C137.077 72.1213 138.747 70.4512 140.808 70.4512C141.797 70.4512 142.746 70.8442 143.445 71.5438C144.145 72.2433 144.538 73.1922 144.538 74.1815C144.538 76.2418 142.868 77.9119 140.808 77.9119C138.747 77.9119 137.077 76.2418 137.077 74.1815ZM138.942 74.1815C138.942 75.2117 139.777 76.0467 140.808 76.0467C141.838 76.0467 142.673 75.2117 142.673 74.1815C142.673 73.1514 141.838 72.3163 140.808 72.3163C139.777 72.3163 138.942 73.1514 138.942 74.1815Z" fill="#59D098"/>
<path fill-rule="evenodd" clip-rule="evenodd" d="M97.5557 94.8074C100.455 94.8074 103.398 95.8687 105.816 98.2431C113.366 105.793 107.972 118.606 97.4572 118.606C90.8488 118.606 85.4549 113.343 85.4549 106.876C85.4549 99.6217 91.3849 94.8074 97.5557 94.8074ZM97.315 91.6343C88.9669 91.6343 82.2273 98.6479 82.4898 107.007C82.4898 118.463 95.5644 130.598 97.1837 132.086H97.5885C99.3391 130.466 112.282 119.01 112.282 107.007C112.556 98.6479 105.816 91.6343 97.315 91.6343Z" fill="#053B5C"/>
<path fill-rule="evenodd" clip-rule="evenodd" d="M93.6172 135.816C93.6172 133.756 95.2873 132.085 97.3476 132.085C98.3369 132.085 99.2858 132.478 99.9854 133.178C100.685 133.878 101.078 134.826 101.078 135.816C101.078 137.876 99.4078 139.546 97.3476 139.546C95.2873 139.546 93.6172 137.876 93.6172 135.816ZM95.4824 135.816C95.4824 136.846 96.3175 137.681 97.3476 137.681C98.3777 137.681 99.2127 136.846 99.2127 135.816C99.2127 134.786 98.3777 133.951 97.3476 133.951C96.3175 133.951 95.4824 134.786 95.4824 135.816Z" fill="#053B5C"/>
</svg>
