<svg width="213" height="193" viewBox="0 0 213 193" fill="none" xmlns="http://www.w3.org/2000/svg">
<path fill-rule="evenodd" clip-rule="evenodd" d="M94.8218 0.118652C45.5998 0.118652 5.68164 40.0368 5.68164 89.2588C5.68164 112.896 15.0807 135.57 31.7966 152.266C48.5126 168.982 71.1859 178.38 94.8218 178.38C118.459 178.38 141.113 168.982 157.829 152.266C174.545 135.57 183.944 112.896 183.944 89.2588C183.944 65.6214 174.545 42.9496 157.829 26.2337C141.113 9.51771 118.459 0.118652 94.8218 0.118652V0.118652Z" fill="#40B4E5"/>
<path fill-rule="evenodd" clip-rule="evenodd" d="M94.8222 0.118652C88.4693 0.118652 82.2673 0.799997 76.2909 2.06739C77.012 2.0134 77.7314 1.9864 78.4525 1.9864C83.6078 1.9864 88.7139 3.38085 93.3102 6.56681C91.0978 17.5922 81.1699 25.8747 69.0296 26.9706C67.3842 26.9706 66.8172 30.2995 66.8172 31.9433C66.3376 37.2511 63.7472 49.3104 70.1207 49.3104C71.0371 49.3104 72.1361 49.0627 73.4544 48.5084C74.0039 47.9414 75.6493 47.3935 76.2162 46.296C78.4096 41.8712 78.9575 36.3697 83.9302 35.2531C84.44 35.0848 84.9371 35.007 85.4168 35.007C88.0517 35.007 90.1703 37.3432 91.0978 39.6779C94.4251 47.9414 87.788 53.4636 80.074 55.676C77.8616 56.2239 77.3121 60.0817 76.2162 62.842C75.3872 64.4858 73.6497 67.351 71.4548 67.351C70.6956 67.351 69.8809 67.0079 69.0296 66.1519C67.038 64.6701 68.6341 60.4867 67.354 60.4867C67.2127 60.4867 67.038 60.5375 66.8172 60.6487C62.4115 62.842 66.2693 70.0287 61.3156 72.789C58.271 74.301 53.392 76.0989 51.5576 79.0482C51.6704 79.1609 51.8038 79.2753 51.9166 79.4071C53.6382 80.7682 55.3583 81.7148 57.2117 82.3755C58.3266 82.7725 59.5003 83.0568 60.747 83.2649C61.2029 83.2776 61.6619 83.2839 62.124 83.2839C72.1012 83.2839 83.4014 80.3982 93.7676 80.3982C103.26 80.3982 111.97 82.8186 118.158 92.0954C123.659 100.926 123.659 111.421 125.873 121.897C128.669 136.241 141.451 139.048 154.792 139.048C159.672 139.048 164.626 138.673 169.195 138.349C178.499 124.261 183.945 107.393 183.945 89.2588C183.945 40.0368 144.044 0.118652 94.8222 0.118652Z" fill="#A0EBFF"/>
<path fill-rule="evenodd" clip-rule="evenodd" d="M61.9386 6.39746C54.9235 9.17683 48.3435 12.8456 42.3496 17.2323C37.0354 35.0838 37.2625 54.3711 45.3752 71.7493C46.8871 70.1802 48.7406 68.7619 48.0592 66.7195C44.2015 54.5791 39.2288 42.9883 42.5386 29.7315C43.6535 26.9712 44.751 24.2109 45.8468 21.468C49.5919 15.3042 55.3587 9.93442 61.9386 6.39746V6.39746Z" fill="#6ECBF5"/>
<path fill-rule="evenodd" clip-rule="evenodd" d="M39.0954 95.6958C37.755 95.6958 36.405 96.5233 36.0508 97.8256C35.7855 98.8278 36.108 99.9236 35.8047 100.926C35.7855 101.002 35.7474 101.078 35.7109 101.153C36.3907 104.614 37.1276 108.017 37.9598 111.365C43.4439 133.98 56.9835 152.133 74.7588 165.825C76.4423 164.046 78.7865 162.931 80.7717 161.418C83.0413 159.698 84.9885 156.785 83.9863 154.12C82.5871 150.318 76.9902 150.413 74.1537 147.519C69.1429 142.451 75.591 132.222 70.4849 127.23C68.7077 125.483 66.3063 125.16 63.7461 125.16C62.2373 125.16 60.6729 125.272 59.1482 125.272C58.4145 125.272 57.6886 125.246 56.9835 125.168C51.5375 125.168 49.2298 120.404 46.4123 116.603C45.0322 114.731 43.6139 112.802 43.0278 110.552C42.3671 108.036 42.8007 105.389 42.9897 102.817C43.1787 100.51 42.6498 96.8425 40.1913 95.8959C39.8419 95.7609 39.4686 95.6958 39.0954 95.6958V95.6958Z" fill="#407220"/>
<path fill-rule="evenodd" clip-rule="evenodd" d="M85.458 0C80.7236 0 74.7217 1.50722 71.4516 2.2378C71.0736 2.31244 70.6956 2.40774 70.3176 2.48397C70.2049 2.5205 70.0905 2.55862 69.9777 2.57767C69.7125 2.63486 69.4663 2.7095 69.2011 2.76667C69.0502 2.80479 68.8803 2.8429 68.7294 2.90009C68.5213 2.95567 68.3133 2.99379 68.1052 3.05096C67.9162 3.10655 67.7272 3.16373 67.5382 3.2209C67.3492 3.25902 67.1793 3.31461 66.9887 3.37178C66.7806 3.42896 66.5916 3.48613 66.3836 3.54172C66.2136 3.59889 66.0628 3.63702 65.8928 3.69419C65.6848 3.74978 65.4576 3.82601 65.2305 3.90225C65.0987 3.93878 64.9479 3.97689 64.8145 4.03407C64.5683 4.11031 64.3427 4.18495 64.0966 4.26118C63.9822 4.29931 63.8504 4.33583 63.7376 4.39301C63.4915 4.46924 63.2262 4.56294 62.9801 4.63918C62.8863 4.6773 62.772 4.71541 62.6783 4.75194C62.394 4.84724 62.1303 4.94094 61.8651 5.0553C61.7889 5.07435 61.6952 5.11247 61.6189 5.12994C61.3346 5.24429 61.0519 5.35706 60.7676 5.4714C60.693 5.49046 60.6358 5.50953 60.5786 5.52699C60.2769 5.6604 59.9736 5.77316 59.6527 5.90657C59.6337 5.90657 59.5956 5.92563 59.5575 5.9431C59.2176 6.07652 58.8967 6.20833 58.5743 6.34016L58.5362 6.35922C51.1049 9.51817 44.147 13.8477 38.0387 19.1237C22.363 32.6061 12.0571 51.6297 6.72387 71.5983C5.96791 74.3777 5.45808 77.4223 5.98697 80.297C6.4412 82.8302 8.59639 84.4184 8.36927 86.8388C8.08498 89.9787 7.78321 92.5691 8.78539 95.7074C9.13956 96.8065 11.6346 103.069 13.1927 103.069C13.2181 103.069 13.2419 103.067 13.2673 103.064C14.2314 102.931 15.3654 102.667 15.6878 101.759C16.0658 100.682 15.0064 99.697 14.2504 98.8092C13.5691 97.996 12.1317 95.4628 12.416 94.3082C12.6067 93.5093 13.0974 93.1996 13.6628 93.1996C14.5046 93.1996 15.5115 93.881 15.9514 94.6497C18.5799 99.111 17.843 105.219 23.3271 107.716C25.5204 108.718 28.0727 108.642 30.3994 109.304C34.0491 110.344 37.0937 113.256 38.2849 116.848C40.8371 122.899 39.7969 130.332 35.6564 135.437C33.803 137.725 31.3063 139.711 30.4931 142.547C29.0939 147.445 33.236 152.021 37.0175 155.443C42.4254 160.322 47.8904 165.257 54.2068 168.907C59.6511 172.037 65.8388 174.183 72.0821 174.183C73.0811 174.183 74.0832 174.127 75.0822 174.013C72.4172 172.972 72.3219 168.964 74.042 166.675C75.7445 164.369 78.4858 163.159 80.7744 161.418C83.044 159.698 84.9911 156.785 83.989 154.12C82.5897 150.318 76.9929 150.413 74.1563 147.52C69.1455 142.452 75.5936 132.222 70.4875 127.23C68.7103 125.483 66.3089 125.161 63.7487 125.161C62.2399 125.161 60.6756 125.272 59.1509 125.272C58.4171 125.272 57.6913 125.247 56.9861 125.169C51.5401 125.169 49.2325 120.404 46.415 116.604C45.0348 114.731 43.6165 112.803 43.0305 110.552C42.3698 108.037 42.8034 105.389 42.9924 102.818C43.1814 100.51 42.6525 96.843 40.1939 95.8964C39.8445 95.7614 39.4713 95.6963 39.0981 95.6963C37.7576 95.6963 36.4076 96.5238 36.0535 97.8261C35.7882 98.8283 36.1106 99.9241 35.8073 100.926C35.4484 102.137 34.2 102.931 32.9326 103.026C32.796 103.037 32.6642 103.042 32.534 103.042C28.2649 103.042 27.3898 97.1432 27.9408 93.9683C28.6222 90.1487 30.4185 86.2909 33.0851 83.3035C33.2741 83.0954 33.4631 82.9064 33.6521 82.7174C33.6902 82.6793 33.7267 82.6221 33.7648 82.584C34.1428 82.206 34.5399 81.8471 34.937 81.4881C34.9941 81.45 35.0322 81.4119 35.0894 81.3738C35.5055 81.0339 35.92 80.7131 36.3552 80.4097C36.4124 80.3907 36.4695 80.3526 36.5251 80.316C36.7332 80.1636 36.9603 80.0127 37.1874 79.8809C37.4145 79.7475 37.6417 79.6156 37.8688 79.5029C37.9434 79.4647 38.0006 79.4457 38.0578 79.4076C38.2849 79.2948 38.5311 79.1805 38.7566 79.0677C38.8328 79.0296 38.89 79.0105 38.9647 78.9724C39.7207 78.6436 40.5481 78.3879 41.3597 78.3879C41.482 78.3879 41.6043 78.3927 41.7265 78.4054C41.8774 78.4245 42.0092 78.4435 42.1617 78.4626C42.3698 78.5198 42.5762 78.5944 42.7843 78.6897C43.58 79.0868 44.1851 79.8809 44.1851 80.7321C44.1851 80.8068 44.1661 80.864 44.1661 80.9402C43.9945 82.1123 42.7287 83.17 42.9749 84.2294C42.9924 84.3247 43.0305 84.3993 43.0686 84.4946C43.3068 84.9854 43.8564 85.2252 44.409 85.2252C44.6028 85.2252 44.7966 85.1966 44.9792 85.1378C45.5081 84.9488 45.9242 84.5883 46.3022 84.1722C46.415 84.0213 46.5293 83.8705 46.6421 83.7386C46.7945 83.5306 46.9264 83.3416 47.0582 83.1335C47.6077 82.3204 48.0413 81.45 48.3828 80.5241C48.6464 79.8427 48.8354 79.1423 48.9688 78.4245C49.2896 76.7791 48.6845 74.662 49.5358 73.2247C52.3152 68.4965 61.4299 70.1991 63.0182 64.9421C63.7376 62.5407 62.2622 59.8551 63.0563 57.4727C63.1135 57.3409 63.15 57.2075 63.2262 57.0947C63.5661 56.3388 64.1903 55.7146 64.9097 55.2985C65.572 54.9205 66.3327 54.7045 67.0951 54.7045C67.4414 54.7045 67.7876 54.7489 68.1243 54.8442C68.2561 54.8633 68.3895 54.9205 68.5023 54.9761C70.1858 55.6574 71.207 57.5664 71.0164 59.3452C70.999 59.4961 70.9799 59.628 70.9417 59.7788C70.8846 60.0441 70.7909 60.3093 70.6765 60.5555C70.7146 60.6301 70.7719 60.6873 70.81 60.7445C71.207 61.2241 71.7343 61.4306 72.3061 61.4306C73.8292 61.4306 75.6683 59.9678 76.2178 58.305C76.5005 57.4537 76.6705 56.5452 76.842 55.6383C76.9166 55.2794 76.9738 54.9379 77.0675 54.5981C77.0675 54.579 77.0675 54.579 77.0675 54.5599C77.1437 54.2582 77.22 53.9739 77.3137 53.7103C77.3137 53.6721 77.3327 53.6531 77.3327 53.615C77.428 53.3497 77.5217 53.1052 77.6361 52.859C77.8441 52.4619 78.0713 52.0649 78.373 51.7234C78.4683 51.6106 78.5811 51.4979 78.6939 51.4026C80.9634 49.303 84.972 50.3432 87.3369 48.3199C88.0548 47.6957 88.509 46.9016 88.7552 46.0138C88.8298 45.6914 88.887 45.3515 88.9251 45.0116C88.9442 44.9163 88.9442 44.8417 88.9632 44.7464C88.9632 44.5764 88.9807 44.3874 88.9807 44.2175C88.9807 42.9882 88.7361 41.6827 88.3947 40.5297C88.0167 39.3194 87.5624 38.1092 86.9573 36.9927C86.9017 36.9181 86.8446 36.8228 86.8064 36.7291C86.5984 36.3876 86.3903 36.0477 86.1632 35.7269C85.6534 35.0074 85.0483 34.3467 84.367 33.7972C83.0948 32.7681 81.4383 32.1487 79.8326 32.1487C78.8162 32.1487 77.8203 32.3964 76.9547 32.9475C76.2178 33.4192 75.6508 34.0243 75.1776 34.7247C74.0054 36.5401 73.5512 38.9796 72.908 41.1348C72.719 41.7971 72.4347 42.4577 72.1139 43.101C71.0609 45.0942 69.3901 46.7888 67.4 46.7888C67.3889 46.7888 67.3794 46.7888 67.3683 46.7888C67.084 46.7888 66.7997 46.7507 66.517 46.6745C66.0818 46.5617 65.7039 46.3918 65.364 46.1646C63.5661 44.9735 62.8673 42.3259 62.4893 40.0564C62.4702 39.9246 62.4512 39.7737 62.4321 39.6212C61.9398 36.71 61.5062 33.7416 61.9032 30.8288C61.9223 30.6208 61.9588 30.4127 61.9969 30.2047C62.3384 28.3322 63.1135 26.4978 64.3046 25.0239C65.0416 24.0964 65.95 23.3214 67.0268 22.7925C67.2158 22.6972 67.3858 22.6225 67.5938 22.5463C68.8803 22.0555 70.2413 21.9221 71.6406 21.865C73.4194 21.7903 75.2347 21.8284 76.9166 21.298C80.1121 20.2767 82.3245 17.4593 84.3288 14.7752C85.2945 13.4887 87.6768 11.0111 89.4921 8.45884C89.5493 8.3826 89.6049 8.2889 89.6811 8.1936C89.7939 8.02367 89.9083 7.85372 90.04 7.66472C90.1163 7.53291 90.21 7.38044 90.3053 7.24862C90.3434 7.17238 90.3799 7.11679 90.4371 7.04056C90.5133 6.90873 90.588 6.75626 90.6833 6.62445C90.7214 6.53075 90.7786 6.4545 90.8151 6.35922C91.1756 5.69851 91.4393 5.07435 91.6092 4.46924C91.6283 4.37395 91.6473 4.29931 91.6664 4.22307C91.7426 3.88319 91.7982 3.54172 91.7807 3.2209C91.7617 2.19968 91.2693 1.3484 90.0781 0.800465C89.265 0.403407 88.2438 0.176292 87.1098 0.0825894C86.7493 0.0444749 86.3522 0.0254176 85.9552 0.00636036C85.7916 0.00159605 85.6248 0 85.458 0V0Z" fill="#449E8B"/>
<path fill-rule="evenodd" clip-rule="evenodd" d="M156.918 87.9678C156.422 87.9678 155.935 88.0758 155.466 88.3331C154.596 88.8064 154.048 89.6942 153.536 90.5645C149.944 96.6712 146.332 102.779 142.74 108.869C141.606 110.779 140.47 112.746 140.168 114.92C139.865 117.113 140.602 119.591 142.513 120.706C140.716 122.2 142.116 125.302 144.215 126.285C146.313 127.287 148.772 127.098 150.984 127.797C153.197 128.517 155.258 130.954 154.18 132.997C153.273 134.68 150.776 135.02 149.925 136.723C149.528 137.517 149.566 138.462 149.623 139.351C150.039 145.799 150.455 152.248 150.852 158.696C171.312 142.717 183.811 114.599 183.906 88.6539C180.5 91.411 176.118 92.8198 171.745 92.8198C168.229 92.8198 164.718 91.9081 161.725 90.0531C160.248 89.1272 158.538 87.9678 156.918 87.9678V87.9678Z" fill="#449E8B"/>
<path fill-rule="evenodd" clip-rule="evenodd" d="M161.857 30.4316C160.931 31.8308 160.515 33.1173 159.607 34.5165C159.853 36.8226 160.231 39.3955 162.065 40.7947C163.029 41.5507 164.239 41.8334 165.375 42.2686C169.364 43.8012 172.673 47.5828 172.655 51.8567C172.636 52.8969 172.409 53.9928 171.671 54.7297C171.185 55.2046 170.675 55.5143 170.148 55.5143C169.854 55.5143 169.555 55.419 169.25 55.203C168.267 54.4851 167.776 53.2749 167.379 52.1203C166.982 50.9673 166.585 49.738 165.696 48.9058C165.202 48.4531 164.505 48.1847 163.844 48.1847C163.293 48.1847 162.767 48.3721 162.405 48.793C163.067 50.2113 163.73 51.7614 163.445 53.294C163.201 54.5296 162.021 55.6318 160.847 55.6318C160.567 55.6318 160.289 55.5683 160.023 55.4301C159.776 56.5451 159.513 57.6616 159.248 58.7956C158.244 58.0904 157.016 57.7315 155.787 57.7315C154.909 57.7315 154.03 57.9157 153.235 58.2857C151.324 59.1736 149.963 60.5744 149.812 62.6724C149.642 64.8467 147.449 66.6255 147.712 68.7997C147.846 69.8956 148.64 70.8612 149.623 71.3711C150.392 71.7697 151.265 71.938 152.142 71.938C152.386 71.938 152.633 71.9253 152.876 71.8999C154.691 71.749 156.468 71.0121 157.736 69.7257C159.001 68.4217 159.74 66.5683 159.513 64.772C159.872 64.6577 160.212 64.5449 160.571 64.4115C161.152 63.4363 161.995 63.0647 162.958 63.0647C163.655 63.0647 164.414 63.26 165.186 63.5618C167.038 64.2606 168.343 66.0013 168.929 67.8913C169.704 70.407 169.118 73.5263 166.925 74.9827C168.551 74.9255 170.178 74.8508 171.785 74.7937C171.999 74.1314 172.655 73.6549 173.351 73.6549C173.391 73.6549 173.429 73.6565 173.468 73.6597C173.543 73.9042 173.638 74.1695 173.732 74.4157L175.377 73.3373C173.43 70.9549 172.409 67.8357 172.579 64.753C172.601 64.2336 172.949 64.0383 173.397 64.0383C173.683 64.0383 174.01 64.1177 174.318 64.2416C175.112 64.5449 175.681 65.2247 176.153 65.9441C178.479 69.5938 178.517 74.5665 176.248 78.2353C175.832 78.9167 175.454 80.0125 176.172 80.3349C176.272 80.3794 176.365 80.3985 176.456 80.3985C177.337 80.3985 177.852 78.4926 178.867 78.4926C178.9 78.4926 178.935 78.4958 178.97 78.5006C179.424 79.0104 179.878 79.5392 180.35 80.0506C180.747 80.4858 180.974 80.6176 181.41 81.0338C181.768 80.6367 182.148 80.2206 182.507 79.8235C181.618 61.1604 174.129 44.5191 161.857 30.4316V30.4316Z" fill="#449E8B"/>
<path fill-rule="evenodd" clip-rule="evenodd" d="M119.479 9.18262C114.316 9.18262 110.388 11.3235 109.629 16.5329C107.945 28.03 129.2 32.6056 135.988 38.374C138.113 40.1893 141.131 41.3614 143.933 41.3614C147.139 41.3614 150.062 39.8272 151.042 35.9726C151.987 32.2467 150.795 28.3889 148.28 24.7964C142.282 16.2279 128.846 9.18262 119.479 9.18262V9.18262Z" fill="#40B4E5"/>
<path fill-rule="evenodd" clip-rule="evenodd" d="M101.533 4.04492C100.953 4.04492 100.372 4.11321 99.8161 4.24185C96.5824 4.97879 93.8031 7.72164 93.4235 11.0108C93.0455 14.2826 95.4103 17.7814 98.6805 18.2721C98.9187 18.3087 99.1569 18.3261 99.3952 18.3261C102.432 18.3261 105.365 15.5198 104.997 12.4863L105.753 10.5947C107.133 9.21456 106.774 6.68135 105.318 5.37585C104.304 4.44197 102.923 4.04492 101.533 4.04492V4.04492Z" fill="#40B4E5"/>
<path fill-rule="evenodd" clip-rule="evenodd" d="M130.037 101.916C128.967 101.916 127.893 102.257 127.064 102.93C125.952 103.847 125.355 105.305 125.4 106.736V106.733C125.4 106.734 125.4 106.737 125.4 106.739C125.411 107.066 125.454 107.39 125.533 107.706C125.848 110.006 126.162 112.293 126.478 114.58C126.648 115.865 126.912 117.302 127.99 118.022C128.408 118.312 128.889 118.441 129.383 118.441C130.301 118.441 131.26 117.998 131.924 117.321C132.944 116.281 133.417 114.863 133.852 113.483C134.438 111.667 135.024 109.814 135.024 107.905C135.024 105.994 134.362 103.99 132.831 102.818C132.035 102.214 131.038 101.916 130.037 101.916V101.916Z" fill="#40B4E5"/>
<path fill-rule="evenodd" clip-rule="evenodd" d="M1.26909 100.272C0.802076 100.272 0.619337 100.773 0.749615 101.167C0.42813 101.167 0.104942 101.368 0.0846478 101.771C-0.519436 113.314 2.18111 124.536 5.90702 135.376C9.41298 145.568 13.3623 155.863 21.1187 163.64C28.5113 171.034 38.041 175.889 47.8313 179.254C53.8093 181.312 60.2679 183.23 66.6436 183.23C69.9364 183.23 73.2088 182.719 76.3781 181.449C76.62 181.349 76.7215 181.188 76.7419 181.026C76.884 181.144 77.0735 181.213 77.2596 181.213C77.5151 181.213 77.7639 181.08 77.8688 180.765C83.9128 162.169 73.1953 140.775 60.4828 127.558C44.9514 111.421 23.1932 103.302 1.37399 100.28C1.33847 100.275 1.30292 100.272 1.26909 100.272V100.272Z" fill="#75D9C3"/>
<path fill-rule="evenodd" clip-rule="evenodd" d="M16.7986 113.042C16.296 113.042 15.8222 113.68 16.2622 114.181C21.1184 119.883 25.9526 125.604 30.8072 131.306C24.4619 129.271 18.2368 126.893 12.1522 124.154C12.0557 124.11 11.9626 124.089 11.878 124.089C11.2621 124.089 11.0219 125.125 11.7291 125.443C18.0558 128.304 32.2792 133.36 32.5601 133.36C37.7987 139.524 43.0374 145.67 48.2946 151.814C48.7582 152.338 49.2219 152.861 49.6855 153.406C48.2506 153.513 46.8225 153.567 45.4012 153.567C39.0492 153.567 32.8207 152.496 26.7784 150.323C26.6988 150.296 26.621 150.284 26.5499 150.284C25.8815 150.284 25.6108 151.36 26.3553 151.633C32.4891 153.824 38.8055 154.929 45.2421 154.929C46.7971 154.929 48.3589 154.865 49.9258 154.736C50.2083 154.716 50.3894 154.555 50.5112 154.352C56.958 161.807 63.6264 169.059 70.9598 175.587C68.865 175.928 66.7719 176.097 64.6907 176.097C59.5062 176.097 54.3979 175.041 49.5231 172.927C49.4317 172.889 49.3454 172.872 49.2642 172.872C48.6381 172.872 48.386 173.934 49.1 174.237C54.117 176.391 59.3844 177.471 64.7212 177.471C67.1205 177.471 69.5351 177.252 71.9463 176.816C72.0664 176.796 72.1476 176.755 72.2288 176.714C74.8075 178.951 77.4658 181.107 80.2458 183.122C80.3744 183.217 80.503 183.258 80.6265 183.258C81.1799 183.258 81.5893 182.422 81.0123 181.994C74.8871 177.521 69.3066 172.484 64.0291 167.105C64.1899 167.105 64.3709 167.005 64.4724 166.804C68.1188 159.953 68.8041 152.178 66.2457 144.844C66.1273 144.499 65.8244 144.347 65.5317 144.347C65.1239 144.347 64.7398 144.645 64.9157 145.125C67.332 152.096 66.8092 159.53 63.3438 166.037C63.2829 166.139 63.2626 166.239 63.2626 166.32C58.1458 161.081 53.2913 155.542 48.5366 149.981C46.5619 147.665 44.5873 145.347 42.633 143.051C42.6939 142.97 42.7345 142.89 42.7751 142.768C44.4875 136.161 45.2523 129.452 45.0103 122.622C44.99 122.162 44.6144 121.924 44.2624 121.924C43.9376 121.924 43.6313 122.127 43.6414 122.543C43.8834 129.09 43.1981 135.496 41.5856 141.843C33.4874 132.333 25.3892 122.803 17.269 113.275C17.1302 113.111 16.9627 113.042 16.7986 113.042V113.042Z" fill="#449E8B"/>
<path fill-rule="evenodd" clip-rule="evenodd" d="M174.104 91.5508C155.947 91.5508 138.06 93.5377 121.579 100.21C92.0207 112.178 60.2421 140.455 69.9823 184.198C69.9823 184.198 84.5514 192.313 104.236 192.313C111.135 192.313 118.658 191.317 126.407 188.626C148.959 180.818 164.21 169.395 178.262 151.49C192.315 133.62 202.439 113.535 212.52 93.5704C199.848 92.5394 186.912 91.5508 174.104 91.5508V91.5508Z" fill="#5AD199"/>
<path fill-rule="evenodd" clip-rule="evenodd" d="M187.913 104.491C187.702 104.491 187.483 104.549 187.275 104.68C151.482 126.628 116.668 149.819 82.8803 174.175C82.03 174.795 82.7547 175.836 83.6264 175.836C83.8453 175.836 84.0749 175.771 84.2902 175.611C118.078 151.255 152.892 128.064 188.642 106.116C189.578 105.548 188.824 104.491 187.913 104.491V104.491Z" fill="#449E8B"/>
<path fill-rule="evenodd" clip-rule="evenodd" d="M153.221 98.0767C152.83 98.0767 152.45 98.2626 152.292 98.6966C148.235 109.496 145.885 120.413 145.117 131.793C145.07 132.446 145.634 132.785 146.193 132.785C146.703 132.785 147.212 132.505 147.252 131.911C147.976 120.723 150.283 109.963 154.301 99.3589C154.567 98.602 153.878 98.0767 153.221 98.0767V98.0767Z" fill="#449E8B"/>
<path fill-rule="evenodd" clip-rule="evenodd" d="M137.835 136.331C136.647 136.331 136.54 138.129 137.856 138.243C149.602 139.564 161.391 139.989 173.007 142.282C173.101 142.302 173.19 142.308 173.273 142.308C174.424 142.308 174.97 140.71 173.736 140.455C161.904 138.126 149.943 137.62 137.982 136.338C137.932 136.331 137.881 136.331 137.835 136.331V136.331Z" fill="#449E8B"/>
<path fill-rule="evenodd" clip-rule="evenodd" d="M113.468 115.271C112.963 115.271 112.432 115.535 112.313 116.099C109.493 128.801 110.774 141.659 111.757 154.478C111.793 155.01 112.195 155.242 112.636 155.242C113.232 155.242 113.899 154.821 113.849 154.129C112.866 141.467 111.671 128.801 114.448 116.256C114.584 115.613 114.043 115.271 113.468 115.271V115.271Z" fill="#449E8B"/>
<path fill-rule="evenodd" clip-rule="evenodd" d="M104.757 159.115C103.734 159.115 103.304 160.622 104.452 161.007C112.588 163.656 121.034 164.984 129.536 164.984C134.871 164.984 140.223 164.462 145.544 163.415C146.792 163.196 146.52 161.49 145.379 161.49C145.307 161.49 145.235 161.497 145.16 161.513C139.969 162.544 134.752 163.059 129.558 163.059C121.292 163.059 113.084 161.758 105.133 159.18C105.001 159.138 104.875 159.115 104.757 159.115V159.115Z" fill="#449E8B"/>
</svg>
