<svg width="353" height="308" viewBox="0 0 353 308" fill="none" xmlns="http://www.w3.org/2000/svg">
<path fill-rule="evenodd" clip-rule="evenodd" d="M278.592 0C249.112 0 218.848 19.4378 196.149 25.3174C187.603 27.5309 179.162 28.1034 170.751 28.1034C161.755 28.1034 152.794 27.4479 143.78 27.4479C125.746 27.4479 107.497 30.0696 88.313 45.8045C58.7405 70.0312 58.8788 97.865 50.2293 117.499C39.1862 142.561 16.062 159.706 5.95648 186.136C-0.820779 203.85 -2.46741 225.457 4.44816 243.437C17.3446 277.007 49.2931 269.716 90.5143 290.658C111.364 301.256 122.215 301.827 136.014 301.827C137.683 301.827 139.395 301.819 141.173 301.819C152.22 301.819 165.814 302.141 187.447 306.798C188.488 307.212 195.017 308 204.192 308C219.786 308 243.027 305.724 259.975 295.48C310.245 265.064 299.082 232.805 309.499 201.23C315.55 182.945 328.516 169.028 338.326 153.212C359.302 119.416 356.234 78.1195 338.951 44.5128C321.461 10.4819 300.238 2.63889e-06 278.592 2.63889e-06V0Z" fill="#ADB8FF" fill-opacity="0.4"/>
<path fill-rule="evenodd" clip-rule="evenodd" d="M134.126 221.906C106.513 221.906 80.0334 223.052 60.5037 225.071C40.974 227.1 30 229.838 30 232.708C30 235.567 40.974 238.316 60.5037 240.335C80.0334 242.364 106.513 243.499 134.126 243.499C161.75 243.499 188.229 242.364 207.759 240.335C227.288 238.316 238.253 235.567 238.253 232.708C238.253 229.838 227.288 227.1 207.759 225.071C188.229 223.052 161.75 221.906 134.126 221.906Z" fill="#F2E7DD"/>
<path fill-rule="evenodd" clip-rule="evenodd" d="M208.715 139.756C208.643 139.756 208.571 139.762 208.498 139.772L193.048 141.976C192.138 142.096 191.505 143.012 191.645 144.017L195.928 175.275C196.056 176.189 196.782 176.862 197.606 176.862C197.678 176.862 197.75 176.857 197.823 176.847L213.273 174.653C214.184 174.523 214.815 173.605 214.676 172.613L210.393 141.355C210.265 140.431 209.539 139.756 208.715 139.756Z" fill="#46B6E6"/>
<path fill-rule="evenodd" clip-rule="evenodd" d="M177.974 149.4C177.294 149.4 176.636 149.846 176.344 150.573L164.673 179.814C164.31 180.741 164.695 181.789 165.541 182.138L179.995 188.128C180.19 188.21 180.39 188.248 180.588 188.248C181.267 188.248 181.922 187.798 182.212 187.081L193.883 157.84C194.246 156.902 193.861 155.865 193.015 155.505L178.561 149.516C178.369 149.437 178.171 149.4 177.974 149.4Z" fill="#46B6E6"/>
<path fill-rule="evenodd" clip-rule="evenodd" d="M214.476 142.585C212.768 142.585 211.054 143.061 209.557 144.038C206.688 145.904 205.05 149.198 205.275 152.625C205.414 154.763 204.547 156.847 202.93 158.2L202.684 158.407L202.545 158.222L202.416 158.069L201.849 158.538L201.977 158.702L201.421 159.171L201.292 159.018L200.735 159.487L200.853 159.651L200.296 160.12L200.168 159.968L199.61 160.437L199.75 160.611C199.525 160.862 199.472 161.222 199.61 161.538C199.322 161.767 199.289 162.194 199.514 162.477L199.739 162.75L199.643 162.837C199.429 163.012 199.407 163.328 199.579 163.546L200.574 164.768C200.678 164.892 200.82 164.956 200.962 164.956C201.07 164.956 201.178 164.92 201.27 164.845L201.367 164.758L201.592 165.03C201.724 165.189 201.911 165.273 202.098 165.273C202.244 165.273 202.391 165.222 202.512 165.117H202.523C202.665 165.221 202.831 165.273 202.998 165.273C203.147 165.273 203.297 165.232 203.433 165.15L203.573 165.325L204.14 164.845L204.011 164.692L204.568 164.222L204.697 164.375L205.264 163.906L205.136 163.742L205.692 163.273L205.821 163.426L206.378 162.957L206.11 162.619L206.356 162.412C207.528 161.425 208.989 160.908 210.529 160.908C211.101 160.908 211.684 160.979 212.267 161.124C213.002 161.31 213.749 161.402 214.494 161.402C216.621 161.402 218.717 160.654 220.383 159.247C224.312 155.93 224.858 149.995 221.614 145.991C221.389 145.718 221.154 145.456 220.896 145.206C219.146 143.478 216.815 142.585 214.476 142.585Z" fill="#053B5C"/>
<path fill-rule="evenodd" clip-rule="evenodd" d="M184.576 142.183C184.369 142.183 184.16 142.247 183.978 142.38L179.91 145.336C179.45 145.675 179.353 146.318 179.675 146.787L180.521 147.999L179.535 148.718C179.075 149.056 178.968 149.701 179.3 150.17L198.637 177.763C198.84 178.049 199.155 178.202 199.475 178.202C199.677 178.202 199.882 178.14 200.061 178.014L207.77 172.395C208.23 172.067 208.337 171.412 208.016 170.943L188.668 143.351C188.467 143.066 188.155 142.914 187.838 142.914C187.633 142.914 187.425 142.977 187.245 143.111L186.259 143.83L185.403 142.62C185.208 142.335 184.895 142.183 184.576 142.183Z" fill="#053B5C"/>
<path fill-rule="evenodd" clip-rule="evenodd" d="M91.2439 134.542C91.091 134.542 90.9409 134.619 90.8483 134.764L83.1387 147.202L80.6872 145.817C80.5011 145.708 80.2987 145.657 80.0991 145.657C79.6774 145.657 79.2673 145.886 79.0488 146.286L77.1432 149.755L75.2691 148.687C75.0838 148.578 74.8815 148.526 74.6818 148.526C74.2601 148.526 73.8491 148.755 73.6315 149.156L60.6008 172.897C60.2789 173.486 60.483 174.239 61.0712 174.566L73.984 181.931C74.1692 182.035 74.3707 182.086 74.5694 182.086C74.9921 182.086 75.4039 181.859 75.6225 181.451L88.6531 157.709C88.9741 157.12 88.7709 156.379 88.1819 156.04L86.3087 154.971L88.2143 151.501C88.5353 150.913 88.332 150.159 87.743 149.832L85.3015 148.436L91.6621 135.222C91.7691 134.993 91.6936 134.721 91.4687 134.601C91.3977 134.561 91.3204 134.542 91.2439 134.542Z" fill="#46B6E6"/>
<path fill-rule="evenodd" clip-rule="evenodd" d="M53.8008 141.449C53.2621 141.449 52.7702 141.824 52.6335 142.38L46.0922 168.751C45.9312 169.406 46.3169 170.071 46.9699 170.245L49.0472 170.78L48.0939 174.632C47.9339 175.286 48.3296 175.952 48.9716 176.127L51.692 176.825L48.9078 191.271C48.8538 191.511 49.004 191.761 49.2504 191.816C49.2891 191.827 49.3287 191.831 49.3673 191.831C49.5625 191.831 49.745 191.699 49.8071 191.5L54.0904 177.436L56.8098 178.134C56.9114 178.162 57.0131 178.175 57.1138 178.175C57.6488 178.175 58.1417 177.802 58.2766 177.25L59.2298 173.399L61.317 173.934C61.4159 173.958 61.5149 173.97 61.612 173.97C62.1479 173.97 62.6372 173.604 62.7738 173.049L69.3153 146.668C69.4762 146.014 69.0904 145.347 68.4375 145.184L54.0904 141.486C53.9932 141.461 53.8961 141.449 53.8008 141.449Z" fill="#46B6E6"/>
<path fill-rule="evenodd" clip-rule="evenodd" d="M46.9191 147.32C46.6888 147.32 46.4568 147.399 46.2635 147.562L38.9937 153.76C38.5656 154.131 38.5117 154.785 38.8651 155.221L50.2248 169.057L60.2149 181.233C60.4173 181.482 60.706 181.609 60.9964 181.609C61.2275 181.609 61.4595 181.528 61.6493 181.364L64.027 179.345L64.6691 180.141C64.7815 180.275 64.938 180.344 65.0945 180.344C65.2195 180.344 65.3454 180.299 65.4506 180.207L67.1314 178.778C67.367 178.581 67.3993 178.221 67.2069 177.981L66.5531 177.196L68.92 175.177C69.3589 174.806 69.4119 174.152 69.0486 173.705L59.0585 161.528L47.7086 147.693C47.5054 147.449 47.2131 147.32 46.9191 147.32Z" fill="#053B5C"/>
<path fill-rule="evenodd" clip-rule="evenodd" d="M164.629 122.417C164.146 122.417 163.719 122.764 163.625 123.265L160.295 140.984L157.35 156.564C157.243 157.131 157.607 157.676 158.164 157.785L161.194 158.375L161.012 159.39C160.948 159.695 161.14 159.99 161.451 160.055L163.593 160.469C163.629 160.478 163.667 160.482 163.704 160.482C163.961 160.482 164.19 160.29 164.245 160.022L164.438 159.008L167.468 159.608C167.534 159.621 167.599 159.627 167.664 159.627C168.146 159.627 168.573 159.279 168.667 158.779L171.602 143.188L174.941 125.48C175.049 124.912 174.685 124.367 174.129 124.258L164.824 122.435C164.758 122.422 164.693 122.417 164.629 122.417Z" fill="#053B5C"/>
<path fill-rule="evenodd" clip-rule="evenodd" d="M162.617 158.31L163.035 162.074L170.284 226.948C170.637 230.068 173.228 232.436 176.322 232.436H210.982C214.076 232.436 216.678 230.068 217.02 226.948L224.269 162.074L224.687 158.31H162.617Z" fill="#5AD199"/>
<path fill-rule="evenodd" clip-rule="evenodd" d="M162.617 158.31L163.035 162.074H224.269L224.687 158.31H162.617Z" fill="white"/>
<path fill-rule="evenodd" clip-rule="evenodd" d="M161.087 156.989C160.369 156.989 159.791 157.578 159.791 158.309C159.791 159.041 160.369 159.63 161.087 159.63H226.218C226.935 159.63 227.513 159.041 227.513 158.309C227.513 157.578 226.935 156.989 226.218 156.989H161.087Z" fill="#449E8B"/>
<path fill-rule="evenodd" clip-rule="evenodd" d="M193.664 167.474C193.652 167.474 193.638 167.474 193.625 167.474C192.908 167.496 192.34 168.096 192.362 168.828L193.658 222.147L194.942 168.828C194.942 168.806 194.942 168.784 194.942 168.762C194.932 168.044 194.354 167.474 193.664 167.474Z" fill="#449E8B"/>
<path fill-rule="evenodd" clip-rule="evenodd" d="M210.859 167.47C210.186 167.47 209.618 167.989 209.557 168.685L205.21 222.147L212.138 168.968C212.138 168.947 212.138 168.925 212.138 168.903C212.202 168.172 211.667 167.54 210.96 167.474C210.927 167.471 210.893 167.47 210.859 167.47Z" fill="#449E8B"/>
<path fill-rule="evenodd" clip-rule="evenodd" d="M176.465 167.473C176.407 167.473 176.35 167.477 176.291 167.485C175.574 167.583 175.081 168.249 175.177 168.969L182.094 222.147L177.747 168.686C177.747 168.664 177.747 168.642 177.736 168.62C177.648 167.959 177.1 167.473 176.465 167.473Z" fill="#449E8B"/>
<path fill-rule="evenodd" clip-rule="evenodd" d="M167.828 124.352C167.752 124.352 167.675 124.357 167.596 124.367L136.845 128.152C135.861 128.272 135.154 129.135 135.261 130.062L137.134 145.838C137.233 146.702 137.994 147.326 138.882 147.326C138.959 147.326 139.037 147.321 139.115 147.311L169.866 143.525C170.851 143.394 171.558 142.543 171.44 141.616L169.576 125.828C169.469 124.975 168.716 124.352 167.828 124.352Z" fill="#46B6E6"/>
<path fill-rule="evenodd" clip-rule="evenodd" d="M37.3022 158.31L37.7195 162.074L44.9678 226.948C45.3212 230.068 47.9129 232.436 51.0073 232.436H85.6657C88.7602 232.436 91.351 230.068 91.7044 226.948L98.9535 162.074L99.3708 158.31H37.3022Z" fill="#FFD173"/>
<path fill-rule="evenodd" clip-rule="evenodd" d="M37.3022 158.31L37.7195 162.074H98.9535L99.3708 158.31H37.3022Z" fill="#F2E7DD"/>
<path fill-rule="evenodd" clip-rule="evenodd" d="M35.7705 156.989C35.0528 156.989 34.4746 157.578 34.4746 158.309C34.4746 159.041 35.0528 159.63 35.7705 159.63H100.902C101.619 159.63 102.197 159.041 102.197 158.309C102.197 157.578 101.619 156.989 100.902 156.989H35.7705Z" fill="#FFD173"/>
<path fill-rule="evenodd" clip-rule="evenodd" d="M68.3382 167.474C68.3248 167.474 68.3122 167.474 68.2987 167.474C67.5918 167.496 67.0244 168.096 67.046 168.828L68.3311 222.147L69.6269 168.828C69.6269 168.806 69.6269 168.784 69.6269 168.762C69.6161 168.044 69.0379 167.474 68.3382 167.474Z" fill="#F2E7DD"/>
<path fill-rule="evenodd" clip-rule="evenodd" d="M85.5443 167.47C84.8698 167.47 84.3033 167.989 84.2422 168.685L79.895 222.147L86.8114 168.968C86.8222 168.947 86.8222 168.925 86.8222 168.903C86.886 168.172 86.351 167.54 85.6441 167.474C85.6109 167.471 85.5776 167.47 85.5443 167.47Z" fill="#F2E7DD"/>
<path fill-rule="evenodd" clip-rule="evenodd" d="M51.1401 167.473C51.0817 167.473 51.0232 167.477 50.9639 167.485C50.257 167.583 49.7642 168.249 49.8613 168.969L56.7777 222.147L52.4306 168.686C52.4306 168.664 52.4198 168.642 52.4198 168.62C52.3317 167.959 51.784 167.473 51.1401 167.473Z" fill="#F2E7DD"/>
<path fill-rule="evenodd" clip-rule="evenodd" d="M135.539 111.59L124.64 137.088L140.851 144.289L151.751 118.792L135.539 111.59Z" fill="#2EBEAE"/>
<path fill-rule="evenodd" clip-rule="evenodd" d="M135.538 111.59L151.75 118.781L140.86 144.289L124.65 137.088L135.538 111.59ZM137.282 108.578C136.62 108.578 135.968 108.999 135.667 109.703L123.301 138.637C122.904 139.565 123.269 140.623 124.114 140.994L138.419 147.344C138.619 147.433 138.827 147.474 139.035 147.474C139.699 147.474 140.355 147.047 140.657 146.34L153.023 117.406C153.42 116.478 153.056 115.43 152.22 115.06L137.905 108.71C137.704 108.621 137.493 108.578 137.282 108.578Z" fill="#053B5C"/>
<path fill-rule="evenodd" clip-rule="evenodd" d="M142.447 112.602C142.351 112.602 142.26 112.662 142.22 112.757C142.167 112.877 142.22 113.03 142.349 113.085L146.042 114.722C146.077 114.736 146.111 114.742 146.146 114.742C146.243 114.742 146.336 114.687 146.375 114.591C146.428 114.471 146.364 114.318 146.247 114.264L142.552 112.627C142.518 112.609 142.482 112.602 142.447 112.602Z" fill="#75D9C3"/>
<path fill-rule="evenodd" clip-rule="evenodd" d="M131.942 141.452C131.321 141.452 130.818 141.964 130.818 142.587C130.818 143.22 131.321 143.732 131.942 143.732C132.553 143.732 133.055 143.22 133.055 142.587C133.055 141.964 132.553 141.452 131.942 141.452Z" fill="#75D9C3"/>
<path fill-rule="evenodd" clip-rule="evenodd" d="M110.251 114.499C109.862 114.499 109.481 114.633 109.179 114.907L97.5617 125.523C96.8765 126.145 96.8657 127.269 97.5293 128.01L118.205 151.512C118.576 151.933 119.082 152.15 119.574 152.15C119.963 152.15 120.344 152.015 120.646 151.741L132.252 141.126C132.938 140.492 132.959 139.38 132.296 138.627L111.62 115.136C111.249 114.715 110.743 114.499 110.251 114.499Z" fill="#46B6E6"/>
<path fill-rule="evenodd" clip-rule="evenodd" d="M120.96 120.244C120.926 120.244 120.893 120.247 120.86 120.253L118.708 120.635C118.407 120.689 118.204 120.985 118.258 121.29L118.44 122.304L115.399 122.861C114.843 122.959 114.468 123.494 114.564 124.061L117.283 139.696L120.378 157.458C120.464 157.956 120.901 158.314 121.383 158.314C121.44 158.314 121.498 158.308 121.556 158.298L130.892 156.608C131.449 156.509 131.813 155.974 131.717 155.407L128.622 137.645L125.914 122.01C125.818 121.512 125.389 121.154 124.9 121.154C124.843 121.154 124.784 121.16 124.725 121.17L121.684 121.726L121.502 120.711C121.454 120.43 121.221 120.244 120.96 120.244Z" fill="#053B5C"/>
<path fill-rule="evenodd" clip-rule="evenodd" d="M92.6362 133.325L93.2037 138.354L102.883 225.093C103.354 229.283 106.823 232.436 110.956 232.436H157.307C161.44 232.436 164.909 229.283 165.38 225.093L175.07 138.354L175.627 133.325H92.6362Z" fill="#053B5C"/>
<path fill-rule="evenodd" clip-rule="evenodd" d="M92.6362 133.325L93.2037 138.354H175.07L175.627 133.325H92.6362Z" fill="#40B4E5"/>
<path fill-rule="evenodd" clip-rule="evenodd" d="M90.5911 131.557C89.6271 131.557 88.8564 132.353 88.8564 133.324C88.8564 134.295 89.6271 135.081 90.5911 135.081H177.672C178.636 135.081 179.406 134.295 179.406 133.324C179.406 132.353 178.636 131.557 177.672 131.557H90.5911Z" fill="#053B5C"/>
<path fill-rule="evenodd" clip-rule="evenodd" d="M134.134 145.577C134.121 145.577 134.108 145.577 134.094 145.577C133.131 145.599 132.381 146.406 132.403 147.377L134.137 218.689L135.861 147.377C135.861 147.355 135.861 147.322 135.861 147.29C135.84 146.333 135.069 145.577 134.134 145.577Z" fill="#40B4E5"/>
<path fill-rule="evenodd" clip-rule="evenodd" d="M157.136 145.571C156.242 145.571 155.482 146.268 155.401 147.192L149.586 218.688L158.837 147.573C158.848 147.541 158.848 147.508 158.848 147.486C158.935 146.515 158.228 145.664 157.274 145.576C157.228 145.573 157.182 145.571 157.136 145.571Z" fill="#40B4E5"/>
<path fill-rule="evenodd" clip-rule="evenodd" d="M111.129 145.573C111.057 145.573 110.985 145.578 110.912 145.587C109.959 145.718 109.296 146.602 109.424 147.573L118.675 218.688L112.861 147.192C112.861 147.17 112.85 147.137 112.85 147.104C112.732 146.217 111.984 145.573 111.129 145.573Z" fill="#40B4E5"/>
<path fill-rule="evenodd" clip-rule="evenodd" d="M181.944 199.279C181.376 199.279 180.927 199.748 180.927 200.315V234.225C180.927 234.803 181.376 235.272 181.944 235.272H191.42C191.987 235.272 192.447 234.803 192.447 234.225V200.315C192.447 199.748 191.987 199.279 191.42 199.279H181.944Z" fill="#FFD173"/>
<path fill-rule="evenodd" clip-rule="evenodd" d="M180.927 216.189V234.224C180.927 234.802 181.376 235.272 181.944 235.272H191.42C191.987 235.272 192.447 234.802 192.447 234.224V216.189H180.927Z" fill="#053B5C"/>
<path fill-rule="evenodd" clip-rule="evenodd" d="M185.595 197.686C185.285 197.686 185.039 197.936 185.039 198.253V199.279H188.336V198.253C188.336 197.936 188.079 197.686 187.78 197.686H185.595Z" fill="#8DDFB9"/>
<path fill-rule="evenodd" clip-rule="evenodd" d="M186.688 219.31L184.364 226.805H186.688V232.151L189 224.656H186.688V219.31Z" fill="#FFD173"/>
<path fill-rule="evenodd" clip-rule="evenodd" d="M186.463 200.947V204.308H186.902V200.947H186.463Z" fill="#053B5C"/>
<path fill-rule="evenodd" clip-rule="evenodd" d="M185.039 202.409V202.845H188.336V202.409H185.039Z" fill="#053B5C"/>
<path fill-rule="evenodd" clip-rule="evenodd" d="M185.039 211.585V212.033H188.336V211.585H185.039Z" fill="#053B5C"/>
<path fill-rule="evenodd" clip-rule="evenodd" d="M150.283 226.565C149.726 226.565 149.266 227.035 149.266 227.602V237.258C149.266 237.836 149.726 238.305 150.283 238.305H183.572C184.128 238.305 184.589 237.836 184.589 237.258V227.602C184.589 227.035 184.128 226.565 183.572 226.565H150.283Z" fill="#FFD173"/>
<path fill-rule="evenodd" clip-rule="evenodd" d="M165.862 226.565V238.305H183.571C184.128 238.305 184.589 237.836 184.589 237.258V227.602C184.589 227.035 184.128 226.565 183.571 226.565H165.862Z" fill="#053B5C"/>
<path fill-rule="evenodd" clip-rule="evenodd" d="M148.26 230.755C147.95 230.755 147.703 231.006 147.703 231.322V233.548C147.703 233.854 147.95 234.115 148.26 234.115H149.266V230.755H148.26Z" fill="#8DDFB9"/>
<path fill-rule="evenodd" clip-rule="evenodd" d="M174.17 230.067V232.435H168.924L176.28 234.792V232.435H181.526L174.17 230.067Z" fill="#FFD173"/>
<path fill-rule="evenodd" clip-rule="evenodd" d="M150.904 232.217V232.653H154.202V232.217H150.904Z" fill="#053B5C"/>
<path fill-rule="evenodd" clip-rule="evenodd" d="M152.338 230.755V234.115H152.767V230.755H152.338Z" fill="#053B5C"/>
<path fill-rule="evenodd" clip-rule="evenodd" d="M161.344 230.755V234.115H161.783V230.755H161.344Z" fill="#053B5C"/>
<path fill-rule="evenodd" clip-rule="evenodd" d="M121.995 184.964V190.528H129.072V184.964H121.995Z" fill="#FFD173"/>
<path fill-rule="evenodd" clip-rule="evenodd" d="M122.252 181.909C121.759 181.909 121.364 182.313 121.364 182.814V185.531H129.705V182.814C129.705 182.313 129.308 181.909 128.815 181.909H122.252Z" fill="#053B5C"/>
<path fill-rule="evenodd" clip-rule="evenodd" d="M121.984 190.528C118.686 191.935 116.352 195.252 116.352 199.147C116.352 200.01 116.47 200.849 116.685 201.645C117.466 204.526 117.145 207.603 115.817 210.265C114.992 211.967 114.553 213.844 114.553 215.742V233.526C114.553 235.567 116.17 237.214 118.162 237.214H132.884C134.64 237.214 136.106 235.949 136.428 234.246C136.481 234.017 136.503 233.777 136.503 233.526V215.742C136.503 215.535 136.503 215.339 136.481 215.132C136.407 213.451 135.979 211.781 135.229 210.265C133.901 207.581 133.601 204.493 134.383 201.602C134.672 200.5 134.779 199.311 134.64 198.089C134.276 194.695 132.06 191.815 129.072 190.528H121.984Z" fill="#FFD173"/>
<path fill-rule="evenodd" clip-rule="evenodd" d="M121.495 192.556C121.279 192.556 121.061 192.623 120.871 192.765C118.9 194.259 117.722 196.638 117.722 199.147C117.722 199.867 117.82 200.588 118.001 201.275C118.868 204.46 118.536 207.876 117.048 210.898C116.31 212.392 115.924 214.062 115.924 215.731V233.188C115.924 233.766 116.384 234.246 116.962 234.246C117.53 234.246 118.001 233.766 118.001 233.188V215.731C118.001 214.389 118.311 213.047 118.9 211.847C120.624 208.356 121.01 204.406 120.003 200.708C119.864 200.206 119.8 199.67 119.8 199.147C119.8 197.303 120.668 195.558 122.113 194.466C122.573 194.117 122.669 193.452 122.327 192.983C122.123 192.703 121.812 192.556 121.495 192.556Z" fill="#F2E7DD"/>
<path fill-rule="evenodd" clip-rule="evenodd" d="M119.671 215.132V234.246H136.428C136.481 234.017 136.503 233.777 136.503 233.526V215.742C136.503 215.535 136.503 215.339 136.481 215.132H119.671Z" fill="white"/>
<path fill-rule="evenodd" clip-rule="evenodd" d="M122.916 217.935V221.907H136.503V217.935H122.916Z" fill="#F2E7DD"/>
<path fill-rule="evenodd" clip-rule="evenodd" d="M122.916 224.579V225.714H136.503V224.579H122.916Z" fill="#F2E7DD"/>
<path fill-rule="evenodd" clip-rule="evenodd" d="M122.916 229.763V230.897H136.503V229.763H122.916Z" fill="#F2E7DD"/>
<path fill-rule="evenodd" clip-rule="evenodd" d="M122.916 227.274V228.409H136.503V227.274H122.916Z" fill="#F2E7DD"/>
<path fill-rule="evenodd" clip-rule="evenodd" d="M215.866 216.892C215.192 216.892 214.514 216.969 213.841 217.127C210.522 217.902 207.898 220.444 206.978 223.75C206.41 225.812 204.9 227.471 202.941 228.201L202.17 228.486L204.001 233.625L204.772 233.341C205.479 233.077 206.217 232.946 206.957 232.946C208.266 232.946 209.585 233.353 210.768 234.148C212.295 235.183 214.085 235.715 215.884 235.715C216.948 235.715 218.015 235.529 219.033 235.151C223.819 233.373 226.293 227.961 224.548 223.084C224.43 222.746 224.29 222.419 224.141 222.103C222.575 218.884 219.295 216.892 215.866 216.892Z" fill="#A0EBFF"/>
<path fill-rule="evenodd" clip-rule="evenodd" d="M201.303 229.238L198.701 230.21C198.369 230.33 198.187 230.712 198.316 231.061L199.429 234.17C199.521 234.443 199.77 234.616 200.038 234.616C200.114 234.616 200.19 234.603 200.265 234.573L202.866 233.614L201.303 229.238Z" fill="#053B5C"/>
<path fill-rule="evenodd" clip-rule="evenodd" d="M201.068 230.417L198.316 231.442C198.059 231.541 197.919 231.824 198.015 232.086L198.551 233.592C198.627 233.788 198.813 233.918 199.015 233.918C199.07 233.918 199.127 233.908 199.183 233.886L201.934 232.86L201.068 230.417Z" fill="#053B5C"/>
<path fill-rule="evenodd" clip-rule="evenodd" d="M213.413 223.936L212.781 227.253C212.759 227.384 212.802 227.526 212.909 227.613L215.489 229.741L204.761 230.428L213.413 223.936ZM213.952 222.707C213.874 222.707 213.793 222.731 213.723 222.78L203.337 230.581C203.209 230.679 203.166 230.853 203.22 231.006C203.27 231.151 203.407 231.247 203.559 231.247C203.568 231.247 203.576 231.247 203.584 231.246L216.453 230.417C216.604 230.406 216.732 230.308 216.774 230.155C216.828 230.014 216.774 229.861 216.657 229.763L213.531 227.177L214.291 223.14C214.323 222.998 214.258 222.845 214.13 222.758C214.077 222.723 214.015 222.707 213.952 222.707Z" fill="#449E8B"/>
<path fill-rule="evenodd" clip-rule="evenodd" d="M202.556 228.093L199.248 229.326C198.808 229.478 198.583 229.98 198.744 230.417L200.158 234.388C200.283 234.737 200.605 234.954 200.948 234.954C201.044 234.954 201.142 234.937 201.239 234.901L204.547 233.668L202.556 228.093Z" fill="#053B5C"/>
<path fill-rule="evenodd" clip-rule="evenodd" d="M201.12 228.42L200.445 228.671L202.576 234.639L203.261 234.377L201.12 228.42Z" fill="#FBF5F3"/>
<path fill-rule="evenodd" clip-rule="evenodd" d="M202.48 227.897L201.794 228.148L203.926 234.115L204.611 233.854L202.48 227.897Z" fill="#FBF5F3"/>
<path fill-rule="evenodd" clip-rule="evenodd" d="M199.739 228.911L199.054 229.173L201.185 235.131L201.871 234.868L199.739 228.911Z" fill="#FBF5F3"/>
<path fill-rule="evenodd" clip-rule="evenodd" d="M92.5073 190.277L95.3338 230.33H109.81L112.648 190.277H92.5073Z" fill="#2EBEAE"/>
<path fill-rule="evenodd" clip-rule="evenodd" d="M95.334 230.33V236.527H109.811V230.33H95.334Z" fill="#053B5C"/>
<path fill-rule="evenodd" clip-rule="evenodd" d="M100.806 233.657V236.527H104.35V233.657H100.806Z" fill="#A0EBFF"/>
<path fill-rule="evenodd" clip-rule="evenodd" d="M92.1113 190.277L92.507 193.19H112.647L113.075 190.277H92.1113Z" fill="#053B5C"/>
<path fill-rule="evenodd" clip-rule="evenodd" d="M95.9336 201.592L96.8976 216.758H108.257L109.221 201.592H95.9336Z" fill="#1AB8A6"/>
<path fill-rule="evenodd" clip-rule="evenodd" d="M95.3465 196.788C95.3213 196.788 95.2961 196.789 95.2701 196.79C94.7026 196.834 94.2637 197.337 94.2961 197.915L96.1369 227.111C96.1693 227.679 96.6298 228.104 97.1648 228.104H97.2404C97.8078 228.06 98.2467 227.559 98.2035 226.98L96.3725 197.784C96.342 197.221 95.8824 196.788 95.3465 196.788Z" fill="#53BCE8"/>
<path fill-rule="evenodd" clip-rule="evenodd" d="M72.3779 205.606C71.7143 205.606 71.1792 206.152 71.1792 206.828V234.028C71.1792 234.715 71.7143 235.262 72.3779 235.262H87.1865C87.8501 235.262 88.3852 234.715 88.3852 234.028V206.828C88.3852 206.152 87.8501 205.606 87.1865 205.606H72.3779Z" fill="#40B4E5"/>
<path fill-rule="evenodd" clip-rule="evenodd" d="M75.7403 200.402C75.0766 200.402 74.5308 200.958 74.5308 201.635V205.606H85.0344V201.635C85.0344 200.958 84.4876 200.402 83.824 200.402H75.7403Z" fill="#053B5C"/>
<path fill-rule="evenodd" clip-rule="evenodd" d="M79.7774 185.258C79.531 185.258 79.3278 185.455 79.317 185.705L78.5454 200.402H81.0193L80.2487 185.705C80.2379 185.455 80.0337 185.258 79.7774 185.258Z" fill="#40B4E5"/>
<path fill-rule="evenodd" clip-rule="evenodd" d="M72.2925 207.014V233.297H74.3698V207.014H72.2925Z" fill="#053B5C"/>
<path fill-rule="evenodd" clip-rule="evenodd" d="M77.978 215.775V219.223H88.3854V215.775H77.978Z" fill="#053B5C"/>
<path fill-rule="evenodd" clip-rule="evenodd" d="M77.978 222.769V223.685H88.3854V222.769H77.978Z" fill="#053B5C"/>
<path fill-rule="evenodd" clip-rule="evenodd" d="M77.978 224.917V225.835H88.3854V224.917H77.978Z" fill="#053B5C"/>
<path fill-rule="evenodd" clip-rule="evenodd" d="M279.452 264.772L270.115 269.071L270.05 270.375H284.427C285.522 270.375 286.424 269.425 286.375 268.33L286.198 264.772H279.452Z" fill="#053B5C"/>
<path fill-rule="evenodd" clip-rule="evenodd" d="M278.165 254.437C278.92 260.892 279.388 264.805 279.388 264.805L286.165 264.82C286.585 261.214 286.955 257.77 287.293 254.437H278.165Z" fill="#FF9E6E"/>
<path fill-rule="evenodd" clip-rule="evenodd" d="M260.101 264.772L250.763 269.071L250.699 270.375H265.076C266.171 270.375 267.071 269.425 267.024 268.33L266.847 264.772H260.101Z" fill="#053B5C"/>
<path fill-rule="evenodd" clip-rule="evenodd" d="M258.812 254.437C259.569 260.941 260.036 264.869 260.036 264.869L266.701 264.757C267.055 261.183 267.362 257.754 267.619 254.437H258.812Z" fill="#FF9E6E"/>
<path fill-rule="evenodd" clip-rule="evenodd" d="M248.203 112.891C248.203 112.891 246.175 122.6 245.564 130.745C245.386 133.176 245.338 135.463 245.499 137.33C246.24 145.428 258.572 262.341 258.572 262.341C258.572 262.341 262.006 262.67 265.011 262.67C266.514 262.67 267.908 262.587 268.714 262.341L269.068 150.951L278.454 261.81H287.293L292.091 191.827C292.091 191.827 299.448 119.026 289.692 112.891H248.203Z" fill="#FFD274"/>
<path fill-rule="evenodd" clip-rule="evenodd" d="M256.494 61.5669C256.451 61.5669 256.409 61.5669 256.366 61.5669C252.63 61.648 249.668 64.7553 249.748 68.49V68.6834C249.877 74.3503 250.054 80.3067 249.974 85.9736C249.942 88.8402 249.829 91.6568 249.62 94.3611C249.361 97.0506 249.023 99.7063 248.412 101.703C248.268 102.202 248.107 102.62 247.962 102.991C247.816 103.28 247.72 103.571 247.478 103.925C247.028 104.665 246.256 105.55 245.37 106.42C243.582 108.175 241.409 109.963 239.123 111.636C234.535 115.066 229.495 118.318 224.553 121.649L224.456 121.714C224.425 121.73 224.392 121.779 224.36 121.81C223.668 122.262 221.8 123.453 221.269 123.453C221.247 123.453 221.224 123.453 221.2 123.453C220.094 123.453 217.477 123.821 217.099 124.451C216.713 125.078 219.304 125.771 219.304 125.771C219.304 125.771 214.653 126.56 214.475 127.059C214.388 127.307 216.083 127.384 218.222 127.384C221.242 127.384 225.145 127.228 226.164 127.172C226.195 127.172 226.227 127.155 226.276 127.155C226.356 127.155 226.421 127.155 226.421 127.139C226.549 127.124 226.663 127.124 226.791 127.092C232.989 125.707 238.817 123.679 244.645 120.942C247.543 119.525 250.441 118.012 253.291 115.886C254.723 114.807 256.156 113.632 257.604 112.007C258.329 111.201 259.038 110.203 259.618 109.173C260.165 108.191 260.616 107.241 260.986 106.308C262.418 102.62 263.094 99.2722 263.546 95.9716C264.012 92.6709 264.238 89.4514 264.302 86.2643C264.448 79.8726 264.157 73.7392 263.224 67.3637C262.747 64.0725 259.899 61.5669 256.494 61.5669Z" fill="#FF9E6E"/>
<path fill-rule="evenodd" clip-rule="evenodd" d="M256.935 61.0449C256.703 61.0449 256.469 61.0584 256.236 61.0841C252.937 61.4546 249.121 63.7885 249.008 70.4222C248.879 77.0547 249.62 88.4697 248.879 92.8805C248.139 97.3075 249.732 104.665 224.199 120.749C224.199 120.749 227.274 128.234 229.109 129.829C229.227 129.931 229.436 129.98 229.726 129.98C233.978 129.98 255.614 119.234 260.905 107.853C266.556 95.7146 264.963 75.2035 263.98 69.0701C263.067 63.3666 260.025 61.0449 256.935 61.0449Z" fill="#053B5C"/>
<path fill-rule="evenodd" clip-rule="evenodd" d="M263.675 48.4141V60.5525H272.836V48.4141H263.675Z" fill="#FF9E6E"/>
<path fill-rule="evenodd" clip-rule="evenodd" d="M263.675 50.9575V54.822C263.675 54.822 263.857 54.8477 264.183 54.8477C265.356 54.8477 268.38 54.5029 271.306 51.3118L263.675 50.9575Z" fill="#F57B3F"/>
<path fill-rule="evenodd" clip-rule="evenodd" d="M268.862 53.0127C266.582 53.0127 264.454 53.2669 263.514 53.4048C263.241 53.4373 263.064 53.6942 263.111 53.9687C263.272 54.7083 263.498 56.1092 263.111 56.9786C261.887 59.7316 252.308 61.3259 249.862 64.4007C247.399 67.4755 248.203 112.891 248.203 112.891C255.963 113.997 263.16 114.366 269.307 114.366C281.599 114.366 289.692 112.891 289.692 112.891C290.802 100.624 289.016 68.9399 287.485 64.0951C286.159 59.8912 283.076 59.6126 282.282 59.6126C282.16 59.6126 282.093 59.6194 282.093 59.6194C278.519 59.4261 273.302 56.8015 273.302 56.8015C273.528 55.932 273.528 54.2418 273.431 53.7753C273.398 53.5982 273.27 53.4535 273.076 53.4048C271.785 53.1127 270.294 53.0127 268.862 53.0127Z" fill="#053B5C"/>
<path fill-rule="evenodd" clip-rule="evenodd" d="M244.71 66.6226L243.438 66.9606C242.906 67.0891 242.456 67.4595 242.23 67.9747L240.942 70.8238C240.878 71.0009 240.942 71.178 241.104 71.2591L236.16 82.2388C236.12 82.2226 236.075 82.2144 236.032 82.2144C235.908 82.2144 235.786 82.2807 235.726 82.3997L234.438 85.265C234.213 85.7639 234.23 86.3602 234.486 86.8429L236.16 90.1274L235.244 92.1556L238.27 93.524L239.188 91.4958L242.762 90.5776C243.293 90.4329 243.743 90.0625 243.969 89.5473L245.256 86.6983C245.321 86.5374 245.256 86.344 245.096 86.2642L250.038 75.2846C250.081 75.3049 250.127 75.3157 250.172 75.3157C250.295 75.3157 250.414 75.2413 250.473 75.1223L251.76 72.2571C251.986 71.7581 251.97 71.178 251.713 70.6791L251.117 69.5203L244.71 66.6226Z" fill="#75D9C3"/>
<path fill-rule="evenodd" clip-rule="evenodd" d="M279.918 63.5967L279.323 65.7372L275.926 67.1867C275.427 67.3949 275.04 67.8466 274.896 68.378L274.043 71.4041C273.994 71.565 274.106 71.7422 274.267 71.7908L271.047 83.3979C271.019 83.3911 270.992 83.3871 270.964 83.3871C270.818 83.3871 270.686 83.4885 270.645 83.6237L269.808 86.6499C269.663 87.1813 269.76 87.7614 270.082 88.2116L270.854 89.2744L277.633 91.158L278.84 90.6428C279.339 90.417 279.726 89.983 279.87 89.4516L280.707 86.4254C280.756 86.2483 280.659 86.0711 280.482 86.0225L283.717 74.4154C283.746 74.4235 283.774 74.4276 283.804 74.4276C283.942 74.4276 284.08 74.3356 284.12 74.1896L284.957 71.1783C285.102 70.632 285.006 70.0682 284.668 69.6179L282.51 66.6229L283.106 64.481L279.918 63.5967Z" fill="#75BED9"/>
<path fill-rule="evenodd" clip-rule="evenodd" d="M254.933 61.6479V63.8858L252.051 66.1872C251.616 66.5266 251.375 67.0566 251.375 67.6043V70.744C251.375 70.9211 251.52 71.0658 251.697 71.0658V83.1245C251.52 83.1245 251.375 83.2692 251.375 83.4463V86.5861C251.375 87.1323 251.616 87.6637 252.051 88.0018L253.081 88.8239H260.117L261.131 88.0018C261.565 87.6637 261.823 87.1323 261.823 86.5861V83.4463C261.823 83.2692 261.679 83.1245 261.501 83.1245V71.0658C261.679 71.0658 261.823 70.9211 261.823 70.744V67.6043C261.823 67.0566 261.565 66.5266 261.131 66.1872L258.249 63.8858V61.6479H254.933Z" fill="#89F6FF"/>
<path fill-rule="evenodd" clip-rule="evenodd" d="M214.506 64.2563L211.497 65.6572L212.446 67.6692L210.804 70.9699C210.562 71.4688 210.562 72.0476 210.788 72.5628L212.124 75.3969C212.171 75.5145 212.288 75.5889 212.409 75.5889C212.454 75.5889 212.5 75.5794 212.543 75.5578L217.646 86.4725C217.485 86.5537 217.42 86.747 217.485 86.9079L218.821 89.7408C219.047 90.2397 219.497 90.6102 220.045 90.7386L221.317 91.0618L227.693 88.083L228.272 86.9079C228.514 86.409 228.514 85.8289 228.288 85.33L226.952 82.4809C226.892 82.3606 226.779 82.2943 226.66 82.2943C226.618 82.2943 226.575 82.3024 226.533 82.32L221.43 71.4039C221.59 71.339 221.655 71.147 221.59 70.9861L220.255 68.1357C220.029 67.6368 219.578 67.2663 219.031 67.1378L215.441 66.2684L214.506 64.2563Z" fill="#75D9C3"/>
<path fill-rule="evenodd" clip-rule="evenodd" d="M213.814 62.1958L210.369 63.8049L211.867 67.0258L215.329 65.4153L213.814 62.1958Z" fill="#559E8E"/>
<path fill-rule="evenodd" clip-rule="evenodd" d="M265.026 67.4268V69.6484L262.145 71.9511C261.711 72.3054 261.453 72.8206 261.453 73.3844V76.5228C261.453 76.7 261.597 76.8446 261.774 76.8446V88.8871C261.597 88.8871 261.453 89.0318 261.453 89.2089V92.3486C261.453 92.8963 261.711 93.4277 262.145 93.7657L263.159 94.5865H270.194L271.225 93.7657C271.644 93.4277 271.901 92.8963 271.901 92.3486V89.2089C271.901 89.0318 271.756 88.8871 271.579 88.8871V76.8446C271.756 76.8446 271.901 76.7 271.901 76.5228V73.3844C271.901 72.8206 271.644 72.3054 271.209 71.9511L268.343 69.6484V67.4268H265.026Z" fill="#75D9C3"/>
<path fill-rule="evenodd" clip-rule="evenodd" d="M264.786 65.2544V68.8282H268.584V65.2544H264.786Z" fill="#559E8E"/>
<path fill-rule="evenodd" clip-rule="evenodd" d="M262.257 77.1035V88.5821H271.096V77.1035H262.257Z" fill="#75D9C3"/>
<path fill-rule="evenodd" clip-rule="evenodd" d="M231.139 64.5942V66.8321L228.256 69.1335C227.822 69.4715 227.58 70.0029 227.58 70.5506V73.6903C227.58 73.8674 227.724 74.0121 227.901 74.0121V86.0708C227.724 86.0708 227.58 86.2155 227.58 86.3926V89.5324C227.58 90.0786 227.822 90.6101 228.256 90.9481L229.286 91.7688H236.305L237.335 90.9481C237.771 90.6101 238.013 90.0786 238.013 89.5324V86.3926C238.013 86.2155 237.883 86.0708 237.69 86.0708V74.0121C237.883 74.0121 238.028 73.8674 238.028 73.6903V70.5506C238.028 70.0029 237.771 69.4715 237.335 69.1335L234.454 66.8321V64.5942H231.139Z" fill="#75BED9"/>
<path fill-rule="evenodd" clip-rule="evenodd" d="M230.896 62.436V65.995H234.696V62.436H230.896Z" fill="#559E8E"/>
<path fill-rule="evenodd" clip-rule="evenodd" d="M228.386 74.2856V85.7642H237.224V74.2856H228.386Z" fill="#75BED9"/>
<path fill-rule="evenodd" clip-rule="evenodd" d="M214.476 86.5542L214.684 89.694L215.296 99.1443L216.101 111.411L216.713 120.862L216.97 124.773C217.019 125.514 217.63 126.078 218.355 126.078H277.987C278.727 126.078 279.339 125.514 279.388 124.773L279.918 116.675L280.74 103.989L281.384 94.2007L281.883 86.5542H214.476Z" fill="#5AD199"/>
<path fill-rule="evenodd" clip-rule="evenodd" d="M245.627 95.2144C244.919 95.2144 244.243 95.5848 243.888 96.2136L241.506 100.335L246.014 102.926L248.301 98.9342L249.394 100.818L247.914 101.735L253.548 102.83L255.464 97.3237L253.87 98.2743L252.728 96.2934C252.389 95.6822 251.746 95.3117 251.054 95.2955L245.627 95.2144Z" fill="white"/>
<path fill-rule="evenodd" clip-rule="evenodd" d="M242.955 102.718L237.256 104.005L238.914 104.842L237.836 106.872C237.498 107.483 237.513 108.224 237.867 108.819L240.653 113.455C241.015 114.069 241.669 114.422 242.377 114.422C242.391 114.422 242.408 114.422 242.424 114.422L247.189 114.26L247.012 109.077L242.408 109.238L243.438 107.306L244.984 108.094L242.955 102.718Z" fill="white"/>
<path fill-rule="evenodd" clip-rule="evenodd" d="M256.413 102.685L251.954 105.31L254.257 109.285H252.084L252.035 107.547L248.284 111.893L252.115 116.289L252.068 114.437H254.353C255.061 114.437 255.705 114.068 256.059 113.471L258.812 108.819C259.183 108.191 259.183 107.434 258.828 106.806L256.413 102.685Z" fill="white"/>
<path fill-rule="evenodd" clip-rule="evenodd" d="M222.605 86.3115L220.126 126.061H233.151L230.671 86.3115H222.605Z" fill="#5AD199"/>
<path fill-rule="evenodd" clip-rule="evenodd" d="M222.605 86.3115L220.126 126.045H221.043L222.911 91.8663C223.008 89.8705 224.649 88.3087 226.63 88.3087C228.626 88.3087 230.269 89.8705 230.365 91.8663L232.232 126.045H233.151L230.671 86.3115H222.605Z" fill="#5AD199"/>
<path fill-rule="evenodd" clip-rule="evenodd" d="M265.67 86.3115L263.208 126.061H276.232L273.752 86.3115H265.67Z" fill="#5AD199"/>
<path fill-rule="evenodd" clip-rule="evenodd" d="M265.67 86.3115L263.208 126.045H264.11L265.977 91.8663C266.089 89.8705 267.731 88.3087 269.712 88.3087C271.708 88.3087 273.334 89.8705 273.447 91.8663L275.314 126.045H276.232L273.752 86.3115H265.67Z" fill="#5AD199"/>
<path fill-rule="evenodd" clip-rule="evenodd" d="M214.572 83.4307C213.413 83.4307 212.479 84.365 212.479 85.5238V87.31H283.879V85.5238C283.879 84.365 282.929 83.4307 281.771 83.4307H214.572Z" fill="#41D18D"/>
<path fill-rule="evenodd" clip-rule="evenodd" d="M264.528 118.704C262.371 119.83 260.213 120.957 258.056 122.101L258.008 122.117C257.751 122.245 257.525 122.423 257.331 122.632C257.267 122.616 257.203 122.6 257.154 122.583C256.485 122.378 255.038 122.114 253.989 122.114C253.475 122.114 253.057 122.178 252.872 122.341C252.324 122.857 254.611 124.241 254.611 124.241C254.611 124.241 248.557 125.931 248.863 126.351C249.17 126.786 252.147 128.09 252.695 128.154C253.057 128.194 253.472 128.211 253.919 128.211C256.49 128.211 260.068 127.639 260.068 127.639C262.886 126.978 265.67 126.238 268.44 125.449C267.055 123.26 265.735 121.022 264.528 118.704Z" fill="#FF9E6E"/>
<path fill-rule="evenodd" clip-rule="evenodd" d="M279.023 59.022C278.973 59.022 278.923 59.0233 278.873 59.0233C278.873 59.0233 287.646 67.6367 288.016 70.4059C288.548 74.334 287.196 78.2296 284.636 81.1273C287.646 84.7822 295.229 94.5381 294.489 98.8367C293.571 104.182 260.793 120.008 260.793 120.008C260.793 120.008 261.518 127.929 264.833 129.957C265.036 130.081 265.377 130.141 265.837 130.141C272.925 130.141 308.546 115.929 309.59 101.235C310.68 85.6273 293.007 59.022 279.023 59.022Z" fill="#053B5C"/>
<path fill-rule="evenodd" clip-rule="evenodd" d="M267.844 28.7729C265.542 28.7729 263.481 29.6911 261.984 31.2042C260.471 32.7024 259.553 34.7779 259.553 37.0645V43.7942C259.553 44.8408 259.746 45.8387 260.1 46.7568C261.292 49.879 264.302 52.0858 267.844 52.0858C271.982 52.0858 275.411 49.0582 276.022 45.0815C277.101 44.5663 278.083 43.1182 278.293 42.0391C278.582 40.6383 277.681 39.2699 276.28 38.9967C276.232 38.9805 276.183 38.9805 276.136 38.9805V37.0645C276.136 32.4766 272.416 28.7729 267.844 28.7729Z" fill="#FF9E6E"/>
<path fill-rule="evenodd" clip-rule="evenodd" d="M267.628 27C266.425 27 265.127 27.2799 263.772 27.9844C257.236 31.3973 256.462 37.2738 259.537 41.475L259.586 36.6464L271.419 35.1157C271.419 35.1171 271.323 40.3324 272.803 42.4418C272.803 42.4418 274.043 40.542 275.298 39.5441C275.609 39.2953 275.984 39.1641 276.357 39.1641C276.661 39.1641 276.964 39.2507 277.23 39.4305C277.729 39.7523 278.228 40.3 278.277 41.1532C278.373 42.8596 277.456 44.0036 275.974 45.0664C275.974 45.0664 275.797 46.7241 275.379 47.1906C275.379 47.1906 279.291 45.7573 279.195 40.5582C279.114 35.3578 277.906 32.4114 275.475 31.0754C275.475 31.0754 272.23 27 267.628 27Z" fill="#053B5C"/>
</svg>
