<svg width="353" height="308" viewBox="0 0 353 308" fill="none" xmlns="http://www.w3.org/2000/svg">
<path fill-rule="evenodd" clip-rule="evenodd" d="M278.592 0C249.112 0 218.848 19.4378 196.149 25.3174C187.603 27.5309 179.162 28.1034 170.751 28.1034C161.755 28.1034 152.794 27.4479 143.78 27.4479C125.746 27.4479 107.497 30.0696 88.313 45.8045C58.7405 70.0312 58.8788 97.865 50.2293 117.499C39.1862 142.561 16.062 159.706 5.95648 186.136C-0.820779 203.85 -2.46741 225.457 4.44816 243.437C17.3446 277.007 49.2931 269.716 90.5143 290.658C111.364 301.256 122.215 301.827 136.014 301.827C137.683 301.827 139.395 301.819 141.173 301.819C152.22 301.819 165.814 302.141 187.447 306.798C188.488 307.212 195.017 308 204.192 308C219.786 308 243.027 305.724 259.975 295.48C310.245 265.064 299.082 232.805 309.499 201.23C315.55 182.945 328.516 169.028 338.326 153.212C359.302 119.416 356.234 78.1195 338.951 44.5128C321.461 10.4819 300.238 2.63889e-06 278.592 2.63889e-06V0Z" fill="#A0EBFF" fill-opacity="0.5"/>
<path fill-rule="evenodd" clip-rule="evenodd" d="M173.787 73.3916C188.911 73.3916 204.235 77.2848 218.227 85.4754C235.124 95.3778 247.509 110.018 254.678 126.713C254.762 126.814 256.04 128.056 257.441 128.056C258.512 128.056 259.656 127.329 260.395 124.809C261.182 122.099 263.138 120.985 264.924 120.985C267.055 120.985 268.943 122.573 268.316 124.933C267.638 127.492 265.608 127.014 261.723 130.85C258.664 133.859 258.889 138.495 259.39 140.828C259.491 141.355 259.592 141.704 259.616 141.78V141.805C264.48 162.939 261.597 185.902 249.789 206.109C233.387 234.131 203.89 249.755 173.598 249.755C158.471 249.755 143.149 245.859 129.156 237.669C87.1395 213.076 73.0008 159.054 97.5936 117.038C113.998 89.0127 143.495 73.3916 173.787 73.3916V73.3916Z" fill="#FFD274"/>
<path fill-rule="evenodd" clip-rule="evenodd" d="M237.179 100.391C237.407 100.616 237.632 100.867 237.857 101.092C237.781 101.044 237.531 100.791 237.179 100.391Z" fill="#FFD274"/>
<path fill-rule="evenodd" clip-rule="evenodd" d="M106.077 229.883C108.857 229.883 112.244 237.404 118.426 238.724C123.945 239.882 124.038 244.251 119.69 244.251C118.11 244.251 115.944 243.674 113.238 242.158C113.238 242.158 101.129 235.839 104.338 231.077C104.904 230.234 105.477 229.883 106.077 229.883V229.883Z" fill="#FFD274"/>
<path fill-rule="evenodd" clip-rule="evenodd" d="M244.329 127.178C248.172 127.178 252.587 127.793 257.636 129.271C257.988 129.395 258.363 129.496 258.715 129.623C265.282 131.678 272.879 135.188 281.678 140.677C281.779 140.753 281.878 140.803 281.979 140.879C281.979 140.879 281.728 141.178 281.227 141.73C279.322 143.736 274.056 148.95 266.41 153.338C266.084 153.512 265.783 153.664 265.459 153.839C261.422 156.071 256.733 158.025 251.57 159.153C251.444 159.178 251.343 159.204 251.219 159.229C250.968 159.279 250.718 159.328 250.467 159.378C249.181 159.604 247.926 159.707 246.702 159.707C232.031 159.707 221.962 144.766 220.459 142.382C220.332 142.182 220.259 142.056 220.259 142.056C220.259 142.056 220.358 141.78 220.56 141.304C221.737 138.746 226.375 130.273 237.832 127.841C238.282 127.743 238.758 127.641 239.236 127.566C240.809 127.315 242.504 127.178 244.329 127.178V127.178Z" fill="#59D098"/>
<path fill-rule="evenodd" clip-rule="evenodd" d="M255.407 140.41C266 140.41 275.908 140.572 281.678 140.677C281.779 140.753 281.878 140.803 281.979 140.879C281.979 140.879 281.728 141.178 281.227 141.73C275.685 141.631 266.711 141.479 256.984 141.454H255.63C250.591 141.454 245.378 141.479 240.388 141.555C239.963 141.555 239.56 141.58 239.16 141.58C232.067 141.705 225.472 141.955 220.459 142.383C220.332 142.183 220.259 142.056 220.259 142.056C220.259 142.056 220.358 141.78 220.56 141.305C223.242 141.105 226.325 140.928 229.709 140.803C230.136 140.778 230.561 140.753 230.989 140.753C236.352 140.553 242.319 140.452 248.336 140.427H249.715C251.621 140.416 253.524 140.41 255.407 140.41V140.41Z" fill="#439D8A"/>
<path fill-rule="evenodd" clip-rule="evenodd" d="M256.308 140.603L256.984 141.454L266.41 153.337C266.084 153.512 265.783 153.664 265.459 153.839L255.63 141.454L255.48 141.254L256.308 140.603V140.603Z" fill="#439D8A"/>
<path fill-rule="evenodd" clip-rule="evenodd" d="M257.636 129.271C257.988 129.395 258.363 129.496 258.714 129.623L249.715 140.426L248.987 141.279L248.185 140.603L248.336 140.426L257.636 129.271V129.271Z" fill="#439D8A"/>
<path fill-rule="evenodd" clip-rule="evenodd" d="M239.887 140.752L240.388 141.555L251.571 159.153C251.444 159.178 251.343 159.203 251.219 159.229C250.969 159.279 250.718 159.328 250.467 159.378L239.161 141.58L238.986 141.329L239.887 140.752V140.752Z" fill="#439D8A"/>
<path fill-rule="evenodd" clip-rule="evenodd" d="M239.236 127.565L230.989 140.752L230.536 141.428L229.66 140.879L229.709 140.803L237.832 127.841C238.282 127.742 238.758 127.641 239.236 127.565V127.565Z" fill="#439D8A"/>
<path fill-rule="evenodd" clip-rule="evenodd" d="M268.238 55.0039C269.457 55.0039 270.683 55.4166 271.902 56.3704C272.051 56.4946 272.201 56.621 272.352 56.7452C272.502 56.8463 272.679 56.9705 272.828 57.0968C282.179 64.5421 260.269 80.0094 261.547 82.4161C261.835 82.953 262.38 83.1256 263.092 83.1256C264.349 83.1256 266.124 82.5908 267.91 82.5908C269.689 82.5908 271.481 83.1235 272.778 85.2501C272.879 85.4249 272.98 85.5744 273.054 85.7513C273.155 85.926 273.23 86.1008 273.304 86.2776C275.21 91.3415 268.516 95.8537 261.974 98.035C255.005 100.366 247.408 105.43 248.661 106.634C249.615 107.51 255.055 107.209 256.182 110.068C256.308 110.395 256.384 110.795 256.384 111.22C256.384 112.047 256.083 113.1 255.43 114.38C253.223 118.566 246.957 121.35 241.792 123.028C240.841 123.329 239.912 123.605 239.059 123.83C236.329 124.582 234.347 124.933 234.198 124.984V124.959L214.844 109.717C214.844 109.717 214.844 109.717 214.844 109.691C214.844 109.542 214.742 107.535 214.818 104.703C214.869 103.825 214.894 102.874 214.993 101.846C215.395 96.4559 216.673 89.6865 220.234 86.604C221.312 85.6502 222.263 85.1238 223.066 84.9238C223.316 84.8648 223.556 84.8396 223.784 84.8396C223.946 84.8396 224.099 84.8522 224.245 84.8732C227.302 85.2986 228.256 90.6635 229.334 91.3668C229.408 91.4152 229.488 91.4383 229.572 91.4383C231.107 91.4383 233.979 83.3678 234.598 76.4258C235.175 69.8459 237.821 62.645 242.736 62.645C242.953 62.645 243.172 62.6576 243.397 62.6871C243.597 62.7123 243.774 62.7376 243.974 62.7881C244.149 62.8366 244.351 62.8871 244.525 62.9376C250.617 64.9189 247.233 72.5137 249.89 73.2169C249.926 73.2253 249.962 73.2295 250 73.2295C252.425 73.2295 260.153 55.0039 268.238 55.0039V55.0039Z" fill="#59D098"/>
<path fill-rule="evenodd" clip-rule="evenodd" d="M271.902 56.3706C272.051 56.4948 272.201 56.6212 272.352 56.7454C272.502 56.8465 272.679 56.9707 272.828 57.097L224.971 117.688L224.068 116.987L271.902 56.3706V56.3706Z" fill="#439D8A"/>
<path fill-rule="evenodd" clip-rule="evenodd" d="M273.054 85.7515C273.155 85.9262 273.231 86.101 273.304 86.2779L273.481 86.8548L245.027 92.2934L244.827 92.3187L244.726 91.767L244.602 91.1901L245.252 91.0659L246.13 90.889L273.054 85.7515V85.7515Z" fill="#439D8A"/>
<path fill-rule="evenodd" clip-rule="evenodd" d="M256.182 110.068C256.308 110.395 256.384 110.795 256.384 111.22L225.422 117.137L225.222 117.162L225.098 116.585L224.997 116.033L225.649 115.909L226.525 115.734L256.182 110.068V110.068Z" fill="#439D8A"/>
<path fill-rule="evenodd" clip-rule="evenodd" d="M242.82 62.6367L243.397 62.6873C243.597 62.7125 243.774 62.7378 243.974 62.7883L245.226 90.1626L245.252 91.0659L245.302 91.7417L244.725 91.767L244.123 91.7923V91.567L242.82 62.6367V62.6367Z" fill="#439D8A"/>
<path fill-rule="evenodd" clip-rule="evenodd" d="M223.786 84.8398C223.946 84.8398 224.099 84.8525 224.245 84.8735L225.624 115.006L225.649 115.909L225.697 116.56L225.097 116.585L224.52 116.61V116.41L223.091 84.9241C223.327 84.8651 223.56 84.8398 223.786 84.8398V84.8398Z" fill="#439D8A"/>
<path fill-rule="evenodd" clip-rule="evenodd" d="M99.2404 173.103C103.148 173.103 107.694 177.217 110.831 181.666C114.661 187.054 120.706 192.303 122.555 192.303C122.787 192.303 122.953 192.221 123.039 192.044C123.642 190.867 121.736 185.702 124.193 183.771C124.469 183.546 124.821 183.371 125.246 183.245C125.657 183.117 126.145 183.047 126.718 183.047C127.263 183.047 127.882 183.11 128.581 183.245C133.268 184.148 137.806 189.387 140.913 193.899C141.49 194.752 142.042 195.554 142.518 196.306C144.023 198.738 144.95 200.542 145.026 200.694L135.9 223.857C135.751 223.933 133.82 224.609 131.062 225.36C130.209 225.588 129.257 225.813 128.28 226.038C125.562 226.636 122.444 227.116 119.506 227.116C116.649 227.116 113.962 226.659 111.985 225.411C110.73 224.634 109.953 223.882 109.528 223.13C109.303 222.754 109.176 222.404 109.126 222.027C108.65 218.942 113.564 216.462 113.939 215.207C114.224 214.205 111.053 213.603 106.898 213.603C104.1 213.603 100.855 213.877 97.9202 214.481C95.8968 214.898 93.7575 215.144 91.7236 215.144C86.904 215.144 82.6866 213.759 82.0528 209.969C82.0275 209.794 82.0022 209.592 82.0022 209.392C81.977 209.192 81.977 209.017 81.977 208.79C82.1265 202.349 90.4497 203.401 90.3486 200.618C90.2497 197.86 63.2502 195.503 67.6361 184.222C67.6866 184.047 67.7624 183.872 67.8635 183.696C67.9119 183.496 67.9877 183.321 68.0635 183.144C69.2047 180.272 71.4535 179.226 74.1991 179.226C81.5938 179.226 92.5974 186.812 95.3409 186.812C95.5641 186.812 95.7325 186.761 95.8399 186.654C97.8213 184.675 91.0014 179.76 95.3135 174.947C95.4378 174.798 95.5894 174.671 95.7136 174.522C95.8652 174.395 96.0147 174.271 96.1663 174.145C97.1117 173.423 98.1518 173.103 99.2404 173.103V173.103Z" fill="#59D098"/>
<path fill-rule="evenodd" clip-rule="evenodd" d="M68.0637 183.144L140.688 211.722L140.263 212.826L67.6362 184.222C67.6868 184.047 67.7626 183.872 67.8637 183.695C67.9121 183.495 67.9879 183.32 68.0637 183.144V183.144Z" fill="#439D8A"/>
<path fill-rule="evenodd" clip-rule="evenodd" d="M96.6672 173.792L110.229 199.739L110.33 199.941L109.804 200.217L109.303 200.493L108.976 199.891L108.549 199.089L95.7134 174.521C95.865 174.395 96.0145 174.27 96.1661 174.144L96.6672 173.792V173.792Z" fill="#439D8A"/>
<path fill-rule="evenodd" clip-rule="evenodd" d="M125.246 183.245L139.987 211.472L140.086 211.649L139.585 211.924L139.059 212.2L138.734 211.598L138.332 210.796L124.193 183.771C124.469 183.546 124.821 183.371 125.246 183.245V183.245Z" fill="#439D8A"/>
<path fill-rule="evenodd" clip-rule="evenodd" d="M109.627 199.666L109.804 200.217L110.004 200.767L109.804 200.843L82.2025 210.57L82.053 209.968C82.0277 209.793 82.0024 209.591 82.0024 209.391L108.124 200.167L108.977 199.891L109.627 199.666V199.666Z" fill="#439D8A"/>
<path fill-rule="evenodd" clip-rule="evenodd" d="M139.385 211.373L139.585 211.925L139.762 212.476L139.56 212.55L109.528 223.13C109.303 222.754 109.176 222.404 109.126 222.027L137.881 211.899L138.734 211.598L139.385 211.373V211.373Z" fill="#439D8A"/>
<path fill-rule="evenodd" clip-rule="evenodd" d="M251.295 178.833C251.821 178.833 252.373 178.833 252.925 178.857C262.65 179.034 274.382 180.762 288.546 184.7C288.698 184.748 288.873 184.799 289.048 184.849C289.048 184.849 288.797 185.375 288.321 186.304C286.567 189.789 281.478 198.988 272.828 207.987C272.502 208.364 272.153 208.715 271.776 209.065C267.162 213.729 261.572 218.266 255.005 221.852C254.879 221.926 254.729 222.027 254.578 222.103C254.253 222.277 253.927 222.427 253.601 222.604C248.949 224.901 244.239 225.821 239.679 225.821C223.142 225.821 208.573 213.744 206.019 211.522C205.769 211.297 205.617 211.173 205.617 211.173C205.617 211.173 205.642 210.745 205.744 210.019C206.295 206.058 209.203 192.696 223.792 184.799C224.394 184.472 224.997 184.173 225.624 183.872C231.966 180.838 240.315 178.833 251.295 178.833V178.833Z" fill="#59D098"/>
<path fill-rule="evenodd" clip-rule="evenodd" d="M288.546 184.699C288.698 184.748 288.873 184.798 289.048 184.849C289.048 184.849 288.797 185.375 288.321 186.304C280.775 188.384 268.516 191.768 255.306 195.629C254.679 195.804 254.076 196.004 253.474 196.181C246.606 198.185 239.538 200.316 232.768 202.422C232.217 202.599 231.665 202.773 231.113 202.948C221.537 205.957 212.662 208.94 206.019 211.522C205.769 211.297 205.617 211.172 205.617 211.172C205.617 211.172 205.642 210.745 205.744 210.018C209.279 208.665 213.439 207.184 217.952 205.656C218.528 205.456 219.08 205.281 219.657 205.079C226.877 202.672 234.975 200.141 243.121 197.684C243.749 197.509 244.374 197.307 245.002 197.133C262.149 191.993 279.246 187.23 288.546 184.699V184.699Z" fill="#439D8A"/>
<path fill-rule="evenodd" clip-rule="evenodd" d="M254.025 194.751L255.306 195.63L272.828 207.987C272.502 208.364 272.152 208.715 271.775 209.065L253.474 196.181L253.175 195.954L254.025 194.751V194.751Z" fill="#439D8A"/>
<path fill-rule="evenodd" clip-rule="evenodd" d="M251.295 178.833C251.846 178.833 252.373 178.833 252.924 178.857L245.001 197.133L244.35 198.588L242.997 198.011L243.121 197.684L251.295 178.833V178.833Z" fill="#439D8A"/>
<path fill-rule="evenodd" clip-rule="evenodd" d="M231.766 201.546L232.768 202.422L255.005 221.852C254.879 221.926 254.729 222.027 254.578 222.102C254.253 222.277 253.927 222.427 253.601 222.604L231.113 202.948L230.787 202.672L231.766 201.546V201.546Z" fill="#439D8A"/>
<path fill-rule="evenodd" clip-rule="evenodd" d="M225.624 183.872L219.657 205.079L219.356 206.208L217.926 205.808L217.952 205.656L223.792 184.799C224.395 184.472 224.997 184.173 225.624 183.872V183.872Z" fill="#439D8A"/>
<path fill-rule="evenodd" clip-rule="evenodd" d="M83.2048 55.7935C83.3564 55.844 83.5312 55.8924 83.6807 55.943C97.1688 59.954 107.572 64.5168 115.569 69.33C116.02 69.6059 116.447 69.8817 116.873 70.1575C125.798 75.7478 131.538 81.6391 135.149 87.3304C135.5 87.882 135.825 88.4337 136.151 88.9853C143.973 102.823 139.511 115.157 137.932 118.667C137.656 119.293 137.454 119.644 137.454 119.644C137.454 119.644 137.28 119.67 136.953 119.72C135.686 119.922 132.098 120.417 127.396 120.417C116.953 120.417 101.011 117.977 92.7324 104.478C92.5303 104.177 92.3555 103.876 92.1808 103.575L91.9533 103.149C88.4455 96.8812 86.2389 90.3624 84.8598 84.2458C84.7587 83.7699 84.6597 83.294 84.5587 82.8435C82.1267 71.1345 82.6784 61.0826 83.03 57.3474C83.129 56.3451 83.2048 55.7935 83.2048 55.7935V55.7935Z" fill="#59D098"/>
<path fill-rule="evenodd" clip-rule="evenodd" d="M83.2045 55.7935C83.3561 55.844 83.5309 55.8924 83.6804 55.943C89.9234 62.7376 101.38 75.2972 112.686 88.2084C113.087 88.6843 113.489 89.1349 113.914 89.6107C119.254 95.7526 124.545 101.92 129.156 107.561C129.533 108.011 129.91 108.439 130.259 108.889C133.167 112.45 135.776 115.734 137.932 118.667C137.656 119.293 137.454 119.644 137.454 119.644C137.454 119.644 137.279 119.67 136.953 119.72C132.891 114.254 127.202 107.31 120.984 99.989C120.608 99.5636 120.258 99.1383 119.881 98.7109C115.493 93.5712 110.831 88.2316 106.294 83.1193C105.892 82.6413 105.492 82.1907 105.09 81.7402C96.3158 71.8883 88.1189 62.8618 83.0298 57.3474C83.1288 56.3451 83.2045 55.7935 83.2045 55.7935V55.7935Z" fill="#439D8A"/>
<path fill-rule="evenodd" clip-rule="evenodd" d="M106.57 81.6646L106.645 83.0942L106.294 83.1195L84.8592 84.246C84.7581 83.7701 84.6592 83.2943 84.5581 82.8437L105.064 81.7404L106.57 81.6646V81.6646Z" fill="#439D8A"/>
<path fill-rule="evenodd" clip-rule="evenodd" d="M115.569 69.3301C116.02 69.6059 116.447 69.8817 116.872 70.1576L113.914 89.6107L113.866 89.9371L112.436 89.7118L112.687 88.2084L115.569 69.3301V69.3301Z" fill="#439D8A"/>
<path fill-rule="evenodd" clip-rule="evenodd" d="M121.159 98.5112L121.385 99.9409L120.984 99.9893L92.7322 104.478C92.5301 104.177 92.3553 103.876 92.1805 103.575L91.9531 103.15L119.881 98.7112L121.159 98.5112V98.5112Z" fill="#439D8A"/>
<path fill-rule="evenodd" clip-rule="evenodd" d="M135.148 87.3306C135.5 87.8822 135.824 88.4339 136.151 88.9855L130.259 108.889L130.209 109.041L128.855 108.613L129.156 107.561L135.148 87.3306V87.3306Z" fill="#439D8A"/>
<path fill-rule="evenodd" clip-rule="evenodd" d="M216.115 46.7124C216.478 46.7124 216.781 46.9735 216.848 47.3188C217.777 53.2354 215.37 61.2828 209.755 71.2358C205.617 78.5315 199.751 86.8779 192.255 96.0539V93.7988C208.927 73.0402 216.924 57.1222 215.421 47.5462C215.37 47.1693 215.646 46.7924 216.023 46.7187C216.054 46.7145 216.086 46.7124 216.115 46.7124V46.7124Z" fill="#439D8A"/>
<path fill-rule="evenodd" clip-rule="evenodd" d="M220.977 56.0381C223.007 56.0381 224.67 56.6466 224.67 56.6466C221.445 61.561 218.516 62.6495 216.553 62.6495C214.991 62.6495 214.042 61.961 214.042 61.961C215.01 57.0888 218.309 56.0381 220.977 56.0381V56.0381Z" fill="#59D098"/>
<path fill-rule="evenodd" clip-rule="evenodd" d="M206.621 55.667C215.018 61.9857 211.283 66.6474 211.283 66.6474C202.911 64.4408 206.621 55.667 206.621 55.667Z" fill="#59D098"/>
<path fill-rule="evenodd" clip-rule="evenodd" d="M215.446 40C221.261 48.7991 216.197 51.9321 216.197 51.9321C209.028 47.0452 215.444 40 215.446 40Z" fill="#59D098"/>
<path fill-rule="evenodd" clip-rule="evenodd" d="M211.807 72.5625C215.014 72.5625 217.827 74.9207 217.827 74.9207C214.551 77.3779 212.041 78.1296 210.197 78.1296C207.299 78.1296 206.044 76.2746 206.044 76.2746C207.746 73.4426 209.851 72.5625 211.807 72.5625V72.5625Z" fill="#59D098"/>
<path fill-rule="evenodd" clip-rule="evenodd" d="M199.802 69.0034C206.996 76.7013 202.509 80.6618 202.509 80.6618C194.639 77.0256 199.802 69.0055 199.802 69.0034Z" fill="#59D098"/>
<path fill-rule="evenodd" clip-rule="evenodd" d="M204 83.4902C207.253 83.4902 210.081 85.9516 210.081 85.9516C206.834 88.2993 204.347 89.0278 202.514 89.0278C199.532 89.0278 198.273 87.1055 198.273 87.1055C199.997 84.3535 202.073 83.4902 204 83.4902V83.4902Z" fill="#59D098"/>
<path fill-rule="evenodd" clip-rule="evenodd" d="M73.334 104.168C73.6056 104.168 73.8688 104.324 73.9804 104.602C77.9915 113.477 93.5094 122.403 119.054 130.498L119.631 132.204C108.45 128.694 99.0491 125.009 91.6544 121.223C81.5246 116.033 75.1574 110.645 72.7002 105.179C72.5255 104.827 72.6771 104.402 73.0519 104.227C73.1424 104.187 73.2392 104.168 73.334 104.168V104.168Z" fill="#439D8A"/>
<path fill-rule="evenodd" clip-rule="evenodd" d="M77.9806 113.418C79.5366 113.418 81.2527 114.054 83.0045 115.833C83.0045 115.833 81.8801 118.833 77.5069 118.833C75.8961 118.833 73.8453 118.425 71.2471 117.313C71.2471 117.313 74.1233 113.418 77.9806 113.418V113.418Z" fill="#59D098"/>
<path fill-rule="evenodd" clip-rule="evenodd" d="M85.7625 106.482C85.7625 106.482 93.6583 111.748 87.868 118.24C87.868 118.24 82.202 116.41 85.7625 106.482Z" fill="#59D098"/>
<path fill-rule="evenodd" clip-rule="evenodd" d="M69.8679 98.2856C69.8679 98.2856 79.0691 100.616 75.7592 108.689C75.7592 108.689 75.7529 108.689 75.7403 108.689C75.3823 108.689 69.7963 108.525 69.8679 98.2856V98.2856Z" fill="#59D098"/>
<path fill-rule="evenodd" clip-rule="evenodd" d="M93.9239 122.472C94.9746 122.472 96.1621 122.74 97.495 123.38C97.495 123.38 97.4044 128.816 88.3969 128.816C87.9273 128.816 87.4346 128.801 86.9146 128.77C86.9146 128.77 88.8138 122.472 93.9239 122.472V122.472Z" fill="#59D098"/>
<path fill-rule="evenodd" clip-rule="evenodd" d="M98.7227 113.829C98.7248 113.829 107.423 117.663 102.835 125.06C102.835 125.06 96.9182 124.257 98.7227 113.829Z" fill="#59D098"/>
<path fill-rule="evenodd" clip-rule="evenodd" d="M106.429 127.264C107.444 127.264 108.591 127.508 109.878 128.092C109.878 128.092 109.878 133.726 100.382 133.726C100.066 133.726 99.7373 133.72 99.4004 133.707C99.4004 133.707 101.209 127.264 106.429 127.264V127.264Z" fill="#59D098"/>
<path fill-rule="evenodd" clip-rule="evenodd" d="M174.356 250.982C215.12 250.982 248.185 253.088 248.185 255.695C248.185 258.276 215.12 260.382 174.356 260.382C133.569 260.382 100.504 258.276 100.504 255.695C100.504 253.088 133.569 250.982 174.356 250.982Z" fill="white"/>
<path fill-rule="evenodd" clip-rule="evenodd" d="M150.666 105.03V255.695H132.615C127.478 255.695 123.166 251.734 122.665 246.519L109.101 105.03H150.666Z" fill="#002E49"/>
<path fill-rule="evenodd" clip-rule="evenodd" d="M243.597 92.769C245.128 92.769 246.355 93.9987 246.355 95.5273V102.297C246.355 103.8 245.128 105.03 243.597 105.03H105.041C103.511 105.03 102.283 103.8 102.283 102.297V95.5273C102.283 93.9987 103.511 92.769 105.041 92.769H243.597Z" fill="#053B5C"/>
<path fill-rule="evenodd" clip-rule="evenodd" d="M240.388 105.03L239.262 117.865L227.828 246.42C227.353 251.658 222.967 255.695 217.675 255.695H136.928L123.867 108.864L123.541 105.03H240.388Z" fill="#053B5C"/>
<path fill-rule="evenodd" clip-rule="evenodd" d="M240.388 105.03L239.537 113.978L124.067 110.142L123.541 105.03H240.388Z" fill="#002E49"/>
<path fill-rule="evenodd" clip-rule="evenodd" d="M94.758 260.933C111.91 260.933 125.773 262.653 125.773 264.744C125.773 266.85 111.735 268.58 94.3853 268.606C77.063 268.606 63 266.9 63 264.769C63 262.664 77.063 260.933 94.3853 260.933C94.5095 260.933 94.6338 260.933 94.758 260.933V260.933Z" fill="#F2E7DD"/>
<path fill-rule="evenodd" clip-rule="evenodd" d="M101.982 157.374C101.982 157.374 108.501 163.741 111.507 165.872C111.507 165.872 113.362 165.421 117.274 164.318V170.158C114.767 171.161 112.261 171.988 110.657 172.039C110.657 172.039 104.839 168.529 100.453 163.915L101.982 157.374V157.374Z" fill="#FBB28F"/>
<path fill-rule="evenodd" clip-rule="evenodd" d="M92.9829 193.975L105.041 195.103L108.25 226.59L105.441 260.885H100.98C99.9018 248.751 98.1963 238.147 100.228 229.849L92.9829 193.975V193.975Z" fill="#053B5C"/>
<path fill-rule="evenodd" clip-rule="evenodd" d="M105.467 260.381C107.899 262.087 110.455 261.009 112.11 262.112C113.765 263.19 113.714 265.22 113.714 265.22H100.653C100.653 265.22 100.578 262.563 100.578 261.786C100.578 261.009 100.828 260.634 100.828 260.634C101.729 260.712 102.46 260.744 103.05 260.744C105.075 260.744 105.467 260.381 105.467 260.381V260.381Z" fill="#DB8E6A"/>
<path fill-rule="evenodd" clip-rule="evenodd" d="M84.0066 193.499L95.8146 196.28L92.3046 228.67L81.0483 260.381C80.324 260.786 79.5429 260.935 78.728 260.935C78.0184 260.935 77.2836 260.821 76.5361 260.657C77.3889 251.357 81.4252 232.63 84.0066 228.594V193.499V193.499Z" fill="#0D415D"/>
<path fill-rule="evenodd" clip-rule="evenodd" d="M81.0481 260.381C83.4801 262.087 86.013 261.034 87.668 262.112C89.3209 263.19 89.2724 265.245 89.2724 265.245H76.2349C76.2349 265.245 76.2349 262.588 76.2349 261.811C76.2349 261.034 76.536 260.657 76.536 260.657C77.3866 260.727 78.0772 260.754 78.6415 260.754C80.7218 260.754 81.0481 260.381 81.0481 260.381V260.381Z" fill="#DB8E6A"/>
<path fill-rule="evenodd" clip-rule="evenodd" d="M90.0242 155.544L95.9891 156.571L97.0188 156.696L97.3936 156.746L101.982 157.374L106.443 196.23C105.866 197.183 103.912 197.935 102.207 198.337C102.108 198.386 101.982 198.411 101.881 198.436C101.579 198.487 101.306 198.537 101.03 198.588C98.2716 199.064 95.4628 199.264 92.6814 199.264C92.155 199.264 91.6033 199.213 91.0264 199.139C90.9253 199.139 90.8011 199.114 90.7 199.114C87.767 198.687 84.5329 197.409 82.9032 195.779L85.2614 185.15L80.7471 158.728L86.79 156.67L87.1164 156.546L88.4934 156.07L90.0242 155.544V155.544Z" fill="#40B4E5"/>
<path fill-rule="evenodd" clip-rule="evenodd" d="M100.251 137.744C100.253 137.744 101.855 138.546 101.655 141.279C101.481 144.012 100.478 144.437 100.478 144.437C100.478 144.437 98.1706 138.723 100.251 137.744V137.744Z" fill="#053B5C"/>
<path fill-rule="evenodd" clip-rule="evenodd" d="M91.3785 150.708C92.227 150.708 93.1366 150.809 93.8335 150.905C94.5115 151.007 94.9874 151.105 94.9874 151.105L95.2127 154.491L95.339 156.546C94.8295 157.033 94.1789 157.205 93.5135 157.205C91.8796 157.205 90.1488 156.169 90.1488 156.169L89.1719 151.207C89.6014 150.828 90.4541 150.708 91.3785 150.708V150.708Z" fill="#FBB28F"/>
<path fill-rule="evenodd" clip-rule="evenodd" d="M93.8333 150.906C94.5113 151.007 94.9872 151.106 94.9872 151.106L95.2125 154.492C92.8816 154.264 90.5508 151.356 90.5508 151.356L93.8333 150.906V150.906Z" fill="#ED867A"/>
<path fill-rule="evenodd" clip-rule="evenodd" d="M99.8803 132.853C100.845 132.853 101.609 133.189 102.083 134.135C103.536 136.992 100.127 139.148 100.127 139.148C99.9856 139.131 99.8445 139.123 99.7013 139.123C95.6419 139.123 91.7866 145.892 91.277 148.048C90.8601 149.83 90.3043 151.786 89.2241 151.786C88.9357 151.786 88.6114 151.647 88.243 151.331C86.4638 149.827 85.9121 145.24 85.3352 141.831C84.733 138.447 86.1374 135.863 92.4056 134.735C95.1744 134.232 97.9327 132.853 99.8803 132.853V132.853Z" fill="#053B5C"/>
<path fill-rule="evenodd" clip-rule="evenodd" d="M94.0944 136.933C96.7516 136.933 99.2109 137.71 100.026 138.999C100.428 139.624 100.678 140.702 100.828 142.005C100.828 142.132 100.853 142.256 100.853 142.357C101.053 144.488 101.03 147.12 100.929 149.276C100.834 151.428 99.0508 153.123 96.9053 153.123C96.8021 153.123 96.6969 153.121 96.5916 153.112C93.8585 152.935 90.475 152.535 88.8452 151.733C88.3694 151.482 88.0178 151.207 87.942 150.88C87.6914 150.154 87.4914 149.101 87.3166 147.972C86.765 144.564 86.4639 140.226 86.4639 140.226C87.8956 137.908 91.1171 136.933 94.0944 136.933V136.933Z" fill="#FBB28F"/>
<path fill-rule="evenodd" clip-rule="evenodd" d="M93.3218 135.645C97.5666 135.645 102.243 138.045 100.127 139.148C98.9773 139.759 97.5814 139.942 96.318 139.942C94.4104 139.942 92.806 139.525 92.806 139.525C92.6817 140.803 90.9004 141.003 90.5762 142.081C90.2498 143.185 90.5509 145.115 90.5509 145.115L89.6224 145.214C89.0518 144.614 88.5001 144.433 88.0432 144.433C87.3589 144.433 86.8894 144.839 86.8894 144.839C85.8113 141.656 85.1607 139.776 89.2223 136.767C90.3024 135.96 91.7848 135.645 93.3218 135.645V135.645Z" fill="#053B5C"/>
<path fill-rule="evenodd" clip-rule="evenodd" d="M87.3169 147.972L89.873 149.301C89.873 149.301 90.1236 150.981 88.8455 151.733C88.3697 151.482 88.0181 151.206 87.9423 150.88C87.6917 150.154 87.4917 149.101 87.3169 147.972V147.972Z" fill="#002E49"/>
<path fill-rule="evenodd" clip-rule="evenodd" d="M87.8638 144.397C88.7523 144.397 89.622 145.214 89.622 145.214L89.8725 149.301C89.7272 149.324 89.5841 149.335 89.4472 149.335C87.0595 149.335 85.7772 146.023 86.8889 144.84C87.1858 144.515 87.5269 144.397 87.8638 144.397V144.397Z" fill="#FBB28F"/>
<path fill-rule="evenodd" clip-rule="evenodd" d="M123.29 135.688L130.31 136.916L128.029 149.977C127.802 151.331 128.705 152.611 130.034 152.836L130.16 152.861C132.19 153.211 133.519 155.116 133.167 157.148L131.664 165.697L130.51 172.39L129.783 176.601L127.754 188.435C127.551 189.578 126.528 190.399 125.381 190.399C125.246 190.399 125.109 190.389 124.97 190.363L110.33 187.807C109.027 187.582 108.149 186.352 108.374 185.049L110.404 173.468L111.183 169.005L112.385 162.187L113.865 153.763C114.04 152.76 114.592 151.908 115.369 151.356C115.979 150.943 116.714 150.699 117.5 150.699C117.714 150.699 117.931 150.718 118.152 150.756C118.289 150.779 118.426 150.789 118.561 150.789C119.734 150.789 120.782 149.941 120.984 148.749L123.29 135.688V135.688Z" fill="#FFFBF4"/>
<path fill-rule="evenodd" clip-rule="evenodd" d="M112.385 162.187L131.664 165.697L130.51 172.391L129.784 176.602L110.455 173.117L111.183 169.005L112.385 162.187V162.187Z" fill="#439D8A"/>
<path fill-rule="evenodd" clip-rule="evenodd" d="M112.11 163.516L131.439 167.125L130.51 172.416L130.034 175.197L110.73 171.713L111.206 168.931L112.11 163.516V163.516Z" fill="#59D098"/>
<path fill-rule="evenodd" clip-rule="evenodd" d="M123.29 135.663L130.31 136.916L129.783 140.001C127.377 139.849 125.046 139.424 122.738 138.746L123.29 135.663V135.663Z" fill="#ECE4DA"/>
<path fill-rule="evenodd" clip-rule="evenodd" d="M122.966 133.634L131.439 135.112L130.912 138.121C128.03 138.02 125.196 137.519 122.438 136.615L122.966 133.634V133.634Z" fill="#439D8A"/>
<path fill-rule="evenodd" clip-rule="evenodd" d="M80.7221 158.728C85.5607 162.136 95.4378 173.793 95.4378 173.793C99.0993 174.271 104.287 175.648 106.443 176.1C108.6 176.526 115.369 178.257 115.369 178.257L114.491 181.941L93.6081 179.61C93.6081 179.61 82.6024 172.715 80.3726 167.853C78.1154 163.014 80.7221 158.728 80.7221 158.728V158.728Z" fill="#FBB28F"/>
<path fill-rule="evenodd" clip-rule="evenodd" d="M118.987 176.558C119.713 176.558 120.441 176.686 121.16 176.703C122.263 176.751 121.911 177.604 120.909 177.829C119.881 178.055 118.778 178.156 119.029 178.482C119.254 178.808 123.791 179.434 124.644 180.337C124.962 180.674 124.573 180.777 123.973 180.777C123.01 180.777 121.511 180.512 121.511 180.512C121.511 180.512 125.246 181.539 125.421 182.243C125.459 182.419 125.255 182.487 124.924 182.487C123.899 182.487 121.663 181.843 121.661 181.84C121.665 181.843 124.52 182.693 124.295 183.295C124.25 183.407 124.074 183.453 123.817 183.453C123.044 183.453 121.53 183.039 120.684 182.794C120.686 182.794 123.467 183.695 123.065 184.072C122.964 184.159 122.69 184.203 122.294 184.203C120.629 184.203 116.801 183.441 114.491 181.942C114.592 180.689 115.018 179.51 115.369 178.257C115.369 178.257 116.647 177.078 117.751 176.726C118.161 176.6 118.574 176.558 118.987 176.558V176.558Z" fill="#FBB28F"/>
<path fill-rule="evenodd" clip-rule="evenodd" d="M259.089 261.459C284.585 261.459 305.293 263.015 305.293 264.921C305.293 266.85 284.585 268.38 259.089 268.38C233.57 268.38 212.887 266.85 212.887 264.921C212.887 263.015 233.57 261.459 259.089 261.459Z" fill="#F2E7DD"/>
<path fill-rule="evenodd" clip-rule="evenodd" d="M220.535 93.2217L247.183 93.3712L247.057 116.033C247.057 117.448 241.22 118.566 233.962 118.566C233.882 118.566 233.802 118.566 233.72 118.566C226.376 118.516 220.409 117.313 220.409 115.884L220.535 93.2217V93.2217Z" fill="#FFFBF4"/>
<path fill-rule="evenodd" clip-rule="evenodd" d="M233.632 90.689C233.712 90.689 233.792 90.689 233.872 90.689C241.241 90.7395 247.183 91.9439 247.183 93.3714C247.183 94.7948 241.471 95.9065 234.318 95.9065C234.162 95.9065 234.004 95.9044 233.846 95.9044C226.5 95.8791 220.535 94.6748 220.535 93.2219C220.558 91.8091 226.397 90.689 233.632 90.689V90.689Z" fill="#ECE4DA"/>
<path fill-rule="evenodd" clip-rule="evenodd" d="M233.568 92.3926C233.67 92.3926 233.771 92.3947 233.872 92.3947C237.281 92.4199 240.039 92.8453 240.039 93.3464C240.039 93.8328 237.443 94.2265 234.173 94.2265C234.074 94.2265 233.973 94.2244 233.872 94.2244C230.437 94.1992 227.679 93.7738 227.679 93.2727C227.679 92.7863 230.299 92.3926 233.568 92.3926V92.3926Z" fill="#D2C3B3"/>
<path fill-rule="evenodd" clip-rule="evenodd" d="M263.452 136.592L256.232 172.34C258.287 180.613 256.584 191.191 255.531 203.275H251.067L248.235 169.08L251.419 137.718L263.452 136.592V136.592Z" fill="#0D415D"/>
<path fill-rule="evenodd" clip-rule="evenodd" d="M251.044 202.773C251.044 202.773 251.434 203.134 253.449 203.134C254.036 203.134 254.763 203.104 255.655 203.024C255.655 203.024 255.931 203.401 255.931 204.178C255.931 204.93 255.858 207.612 255.858 207.612H242.82C242.82 207.612 242.769 205.58 244.424 204.504C246.079 203.426 248.612 204.479 251.044 202.773V202.773Z" fill="white"/>
<path fill-rule="evenodd" clip-rule="evenodd" d="M269.67 136.089L269.695 171.087C272.251 175.098 276.313 193.749 277.166 203.024C276.399 203.193 275.646 203.313 274.921 203.313C274.123 203.313 273.361 203.167 272.654 202.774L261.423 171.161L257.913 138.898L269.67 136.089V136.089Z" fill="#053B5C"/>
<path fill-rule="evenodd" clip-rule="evenodd" d="M272.654 202.773C272.654 202.773 272.97 203.134 274.961 203.134C275.543 203.134 276.265 203.104 277.166 203.024C277.166 203.024 277.467 203.426 277.467 204.203V207.612H264.455C264.455 207.612 264.406 205.58 266.059 204.504C267.689 203.426 270.247 204.479 272.654 202.773V202.773Z" fill="white"/>
<path fill-rule="evenodd" clip-rule="evenodd" d="M262.149 97.2832L266.36 99.3887L267.689 100.065L268.316 100.366L271.35 101.894L266.861 118.69L270.472 138.723C270.472 138.723 266.078 141.66 259.182 141.66C256.588 141.66 253.642 141.245 250.442 140.1L250.541 115.858V115.433C250.518 115.383 250.467 115.332 250.442 115.281C249.916 114.58 249.513 113.652 249.539 112.449C249.564 111.121 250.09 109.592 250.718 108.238C251.067 104.827 251.343 101.494 250.943 98.736L251.846 98.6118L252.522 98.536L253.701 98.3612L262.149 97.2832V97.2832Z" fill="white"/>
<path fill-rule="evenodd" clip-rule="evenodd" d="M250.442 115.282C251.379 115.56 253.973 116.21 257.359 116.21C258.867 116.21 260.53 116.082 262.276 115.734C262.288 115.73 262.301 115.73 262.313 115.73C262.429 115.73 262.553 115.821 262.575 115.934C262.6 116.084 262.501 116.21 262.375 116.236C260.595 116.585 258.915 116.737 257.386 116.737C254.178 116.737 251.645 116.16 250.541 115.859V115.433C250.518 115.383 250.468 115.332 250.442 115.282V115.282Z" fill="white"/>
<path fill-rule="evenodd" clip-rule="evenodd" d="M262.589 93.8745C262.985 93.8745 263.322 93.944 263.553 94.123L262.976 99.1868C262.976 99.1868 261.505 99.9595 260.033 99.9595C259.363 99.9595 258.696 99.7995 258.163 99.3384L258.188 97.8835L258.239 94.7251C258.239 94.7251 258.689 94.6009 259.317 94.4746C260.262 94.2956 261.606 93.8745 262.589 93.8745V93.8745Z" fill="#FBB28F"/>
<path fill-rule="evenodd" clip-rule="evenodd" d="M259.317 94.4746L262.374 94.7252C262.374 94.7252 260.37 97.5592 258.188 97.8835L258.239 94.7252C258.239 94.7252 258.69 94.6009 259.317 94.4746V94.4746Z" fill="#ED867A"/>
<path fill-rule="evenodd" clip-rule="evenodd" d="M253.474 81.4897L264.48 83.5448C265.533 84.3217 265.859 86.0272 265.884 87.8569C265.884 89.3856 265.659 90.99 265.434 92.1691C265.232 93.2956 265.031 94.0494 265.031 94.0494C265.031 94.0494 264.857 94.1736 264.581 94.3252C263.549 94.8937 260.879 96.2055 258.089 96.2055C256.946 96.2055 255.782 95.9865 254.704 95.4032C250.718 93.2219 252.874 83.8711 253.375 81.8645C253.451 81.614 253.474 81.4897 253.474 81.4897V81.4897Z" fill="#FBB28F"/>
<path fill-rule="evenodd" clip-rule="evenodd" d="M271.542 76.291C271.643 76.291 271.746 76.2952 271.851 76.2994C275.961 76.4995 279.097 84.1973 275.336 88.859C271.637 93.5018 270.394 99.9406 276.267 99.9406C276.324 99.9406 276.38 99.9406 276.439 99.9406C276.439 99.9406 275.039 100.724 273.38 100.724C271.917 100.724 270.249 100.113 269.169 97.8097C268.44 96.279 267.965 93.9987 267.638 91.592C267.013 92.8954 266.084 93.9734 264.781 94.224C264.705 94.2493 264.657 94.2745 264.581 94.325C263.829 93.4976 264.53 92.47 264.53 92.47L264.958 92.3185C265.107 91.1162 265.208 89.4865 265.057 87.9558C264.429 88.2569 263.979 88.9096 263.678 89.2844C263.678 89.2844 263.202 91.8679 262.574 93.0449C262.155 93.805 261.747 93.9397 261.509 93.9397C261.376 93.9397 261.296 93.8976 261.296 93.8976C262.098 93.8239 262.551 92.2427 262.299 90.2634C262.073 88.4821 262.425 85.2985 262.475 84.7237C262.475 84.6985 262.501 84.6732 262.501 84.6732C262.501 84.6479 262.501 84.6479 262.501 84.6479C262.526 84.1973 262.574 83.9215 262.574 83.9215C262.256 83.9594 261.926 83.9784 261.591 83.9784C260.425 83.9784 259.18 83.7615 258.012 83.4688C256.635 83.3193 255.23 83.0182 254.152 82.4413C253.876 82.2918 253.626 82.115 253.451 81.8897H253.4L252.548 86.8546C252.548 86.8546 251.771 85.5996 251.946 83.8963C252.072 82.8435 252.672 81.9402 253.099 81.3885C252.373 79.8599 253.499 77.7038 255.782 77.1522C256.106 77.0764 256.472 77.0427 256.868 77.0427C260.172 77.0427 265.573 79.4514 266.737 80.8622C266.737 80.8622 266.836 80.4853 267.038 80.0094C267.061 79.8873 267.729 76.291 271.542 76.291V76.291Z" fill="#053B5C"/>
<path fill-rule="evenodd" clip-rule="evenodd" d="M265.724 87.8296C266.049 87.8296 266.383 87.9559 266.687 88.3075C267.784 89.5919 266.644 92.9798 264.238 92.9798C264.059 92.9798 263.871 92.9608 263.678 92.9208L264.13 88.6592C264.13 88.6592 264.895 87.8296 265.724 87.8296V87.8296Z" fill="#FBB28F"/>
<path fill-rule="evenodd" clip-rule="evenodd" d="M267.038 80.0098C269.369 81.1636 269.996 84.5725 270.12 85.5011C269.794 85.5011 269.445 85.4505 269.068 85.3747C268.541 82.3911 266.737 80.8625 266.737 80.8625C266.737 80.8625 266.836 80.4856 267.038 80.0098V80.0098Z" fill="white"/>
<path fill-rule="evenodd" clip-rule="evenodd" d="M250.943 98.7363C251.821 102.072 251.068 104.253 251.068 104.253C251.068 104.253 249.114 106.483 247.132 107.31V101.469H247.158C248.838 100.065 250.943 98.7363 250.943 98.7363V98.7363Z" fill="#FBB28F"/>
<path fill-rule="evenodd" clip-rule="evenodd" d="M269.447 101.238C271.624 101.238 273.412 103.668 272.152 105.881C272.127 105.881 272.001 106.057 271.801 106.283C269.87 108.538 267.564 110.469 264.981 111.974C262.551 113.351 259.641 116.109 256.508 116.61C256.081 116.682 255.611 116.714 255.106 116.714C248.073 116.714 234.198 110.344 234.198 110.344L235.526 106.683C235.526 106.683 244.675 108.99 247.835 109.492C251.093 109.993 254.177 110.544 254.177 110.544C257.411 108.639 264.254 103.775 267.891 101.669C268.407 101.37 268.937 101.238 269.447 101.238V101.238Z" fill="#FBB28F"/>
<path fill-rule="evenodd" clip-rule="evenodd" d="M231.471 101.753C231.612 101.753 231.797 101.827 232.016 101.996C232.892 102.671 233.945 103.223 234.598 104.177C235.225 105.154 235.526 106.683 235.526 106.683L234.198 110.344C230.812 109.942 225.923 107.085 225.824 106.407C225.809 106.304 225.902 106.264 226.06 106.264C226.706 106.264 228.456 106.958 228.456 106.958C227.378 106.482 225.222 105.48 225.373 105.03C225.413 104.905 225.559 104.857 225.765 104.857C226.571 104.857 228.306 105.604 228.306 105.604C228.306 105.604 224.594 103.952 225.171 103.499C225.243 103.45 225.352 103.427 225.493 103.427C226.548 103.427 229.283 104.678 229.283 104.678C229.283 104.678 225.799 102.671 227.001 102.522C227.039 102.518 227.077 102.516 227.119 102.516C228.429 102.516 231.953 104.731 232.465 104.731C232.475 104.731 232.484 104.731 232.492 104.729C232.892 104.627 232.09 103.851 231.465 103.023C230.995 102.402 231.046 101.753 231.471 101.753V101.753Z" fill="#FBB28F"/>
<path fill-rule="evenodd" clip-rule="evenodd" d="M260.646 209.341L274.608 263.967C274.734 264.443 274.458 264.845 273.982 264.845C273.506 264.845 273.003 264.443 272.879 263.967L258.915 209.341H260.646Z" fill="#DB8E6A"/>
<path fill-rule="evenodd" clip-rule="evenodd" d="M283.482 209.341L297.446 263.967C297.573 264.443 297.272 264.845 296.794 264.845C296.318 264.845 295.842 264.443 295.716 263.967L281.729 209.341H283.482Z" fill="#DB8E6A"/>
<path fill-rule="evenodd" clip-rule="evenodd" d="M285.363 220.222C285.838 220.222 286.342 220.622 286.466 221.098C286.592 221.576 286.291 221.951 285.815 221.951H263.002C262.526 221.951 262.048 221.576 261.924 221.098C261.797 220.622 262.073 220.222 262.574 220.222H285.363Z" fill="#DB8E6A"/>
<path fill-rule="evenodd" clip-rule="evenodd" d="M288.146 231.102C288.622 231.102 289.123 231.504 289.25 231.98C289.374 232.455 289.073 232.856 288.597 232.856H265.783C265.307 232.856 264.832 232.455 264.705 231.98C264.581 231.504 264.882 231.102 265.358 231.102H288.146Z" fill="#DB8E6A"/>
<path fill-rule="evenodd" clip-rule="evenodd" d="M290.928 241.907C291.431 241.907 291.907 242.333 292.031 242.808C292.158 243.31 291.857 243.712 291.381 243.712H268.567C268.091 243.712 267.615 243.31 267.489 242.808C267.365 242.333 267.664 241.907 268.142 241.907H290.928Z" fill="#DB8E6A"/>
<path fill-rule="evenodd" clip-rule="evenodd" d="M293.736 252.888C294.212 252.888 294.688 253.288 294.814 253.764C294.939 254.239 294.64 254.642 294.162 254.642H271.375C270.872 254.642 270.396 254.239 270.272 253.764C270.146 253.288 270.447 252.888 270.923 252.888H293.736Z" fill="#DB8E6A"/>
<path fill-rule="evenodd" clip-rule="evenodd" d="M261.949 209.341L247.985 263.967C247.859 264.443 247.383 264.845 246.907 264.845C246.431 264.845 246.13 264.443 246.254 263.967L260.218 209.341H261.949Z" fill="#DB8E6A"/>
<path fill-rule="evenodd" clip-rule="evenodd" d="M239.135 209.341L225.171 263.967C225.047 264.443 224.546 264.845 224.068 264.845C223.592 264.845 223.316 264.443 223.417 263.967L237.407 209.341H239.135Z" fill="#DB8E6A"/>
<path fill-rule="evenodd" clip-rule="evenodd" d="M284.636 207.612C284.912 207.612 285.137 207.838 285.137 208.113V210.571C285.137 210.846 284.912 211.072 284.636 211.072H236.88C236.604 211.072 236.377 210.846 236.377 210.571V208.113C236.377 207.838 236.604 207.612 236.88 207.612H284.636Z" fill="#DB8E6A"/>
<path fill-rule="evenodd" clip-rule="evenodd" d="M258.313 220.222C258.791 220.222 259.09 220.622 258.965 221.098C258.839 221.576 258.338 221.951 257.862 221.951H235.074C234.573 221.951 234.297 221.576 234.423 221.098C234.547 220.622 235.023 220.222 235.501 220.222H258.313Z" fill="#DB8E6A"/>
<path fill-rule="evenodd" clip-rule="evenodd" d="M255.531 231.102C256.007 231.102 256.308 231.504 256.181 231.98C256.057 232.455 255.556 232.856 255.078 232.856H232.267C231.791 232.856 231.515 232.455 231.639 231.98C231.765 231.504 232.241 231.102 232.717 231.102H255.531Z" fill="#DB8E6A"/>
<path fill-rule="evenodd" clip-rule="evenodd" d="M252.748 241.907C253.224 241.907 253.499 242.333 253.401 242.808C253.274 243.31 252.773 243.712 252.297 243.712H229.484C229.008 243.712 228.732 243.31 228.858 242.808C228.957 242.333 229.458 241.907 229.934 241.907H252.748Z" fill="#DB8E6A"/>
<path fill-rule="evenodd" clip-rule="evenodd" d="M249.966 252.888C250.442 252.888 250.718 253.288 250.591 253.764C250.492 254.239 249.989 254.642 249.513 254.642H226.702C226.224 254.642 225.948 254.239 226.049 253.764C226.175 253.288 226.677 252.888 227.152 252.888H249.966Z" fill="#DB8E6A"/>
<path fill-rule="evenodd" clip-rule="evenodd" d="M160.005 166.975L145.939 167.202L150.277 169.683C143.409 176.301 146.843 182.217 146.843 182.217L154.764 195.905C154.764 195.806 154.764 195.68 154.789 195.579C154.84 192.671 155.667 189.865 157.095 187.332L162.912 177.08L167.273 179.436L160.005 166.975V166.975Z" fill="white"/>
<path fill-rule="evenodd" clip-rule="evenodd" d="M189.586 183.622L182.166 195.981L189.11 208.189L189.209 203.201C190.979 203.753 192.537 203.974 193.902 203.974C199.551 203.974 201.844 200.167 201.844 200.167L210.041 186.656C209.942 186.706 209.841 186.755 209.742 186.805C207.232 188.109 204.411 188.736 201.585 188.736C201.528 188.736 201.473 188.736 201.419 188.736L189.611 188.561L189.586 183.622V183.622Z" fill="white"/>
<path fill-rule="evenodd" clip-rule="evenodd" d="M189.426 143.867C189.099 143.867 188.767 143.898 188.432 143.961C182.54 145.115 180.41 150.607 180.41 150.607L186.126 160.307L181.915 162.89L196.33 162.865L203.198 150.607L199.313 152.862C199.313 152.862 195.016 143.867 189.426 143.867V143.867Z" fill="white"/>
<path fill-rule="evenodd" clip-rule="evenodd" d="M159.552 188.41C159.552 188.41 156.594 191.244 157.345 196.508C158.224 202.85 163.814 202.976 163.814 202.976H176.55V188.41H159.552Z" fill="white"/>
<path fill-rule="evenodd" clip-rule="evenodd" d="M205.202 164.495L192.668 171.915L201.318 186.529C201.318 186.529 201.901 186.828 202.943 186.828C204.139 186.828 205.939 186.437 208.161 184.75C213.25 180.888 211.696 175.45 211.696 175.45L205.202 164.495V164.495Z" fill="white"/>
<path fill-rule="evenodd" clip-rule="evenodd" d="M168.503 143.159C165.243 143.159 163.163 146.619 163.163 146.619L156.594 158.102L169.305 165.246C169.305 165.246 174.268 155.769 177.527 150.63C180.711 145.566 183.894 143.159 183.894 143.159H168.503Z" fill="white"/>
</svg>
